<svg xmlns="http://www.w3.org/2000/svg" xmlns:xlink="http://www.w3.org/1999/xlink" width="295" height="330" viewBox="0 0 295 330">
  <defs>
    <clipPath id="clip-path">
      <rect id="Rectángulo_401948" data-name="Rectángulo 401948" width="294.858" height="303" fill="none"/>
    </clipPath>
    <clipPath id="clip-path-2">
      <path id="Trazado_874108" data-name="Trazado 874108" d="M87.54,416.047c-4.576,1.579-11.419,8.756-17.42,20.2-7.382,14.081-11.767,15.314-22.21,8.377s-22.71-2.277-31.588,16.2S23,493.654,37.412,516.157s-14.366,16.683-23.69,42.966,3.826,55.768,47.091,55.417c43.324-.351,108.816.322,108.816.322s60.735,6.213,82.852-9.841-5.087-23.862,15.483-34.126S310,559.938,301.01,533.405s-21.724-21.038-29.939-28.132-13.156-14.8-1.41-27.422,20.738-21.134,14.8-37.862c-8.52-24-29.195-27.1-51.909-16.924s-43.957,51.285-62.9,40.879C152.9,454.737,132.018,413.8,100.438,413.8a39.309,39.309,0,0,0-12.9,2.243" transform="translate(-10.886 -413.803)" fill="#e7fdeb"/>
    </clipPath>
    <clipPath id="clip-path-3">
      <rect id="Rectángulo_401899" data-name="Rectángulo 401899" width="294.857" height="303" fill="none"/>
    </clipPath>
    <clipPath id="clip-path-4">
      <path id="Trazado_874111" data-name="Trazado 874111" d="M317.176,1077.77c.577.076,1.162.136,1.747.179-.618.307-1.2.583-1.748.834Zm-.419,1.656.294-.131c.845-.378,1.745-.81,2.751-1.322l.7-.357-.786-.037c-.909-.042-1.824-.128-2.721-.254l-.237-.034Z" transform="translate(-316.757 -1077.292)" fill="none"/>
    </clipPath>
    <linearGradient id="linear-gradient" x1="-13.406" y1="8.489" x2="-13.363" y2="8.489" gradientUnits="objectBoundingBox">
      <stop offset="0" stop-color="#a737d5"/>
      <stop offset="1" stop-color="#ef497a"/>
    </linearGradient>
    <clipPath id="clip-path-6">
      <path id="Trazado_874114" data-name="Trazado 874114" d="M166.266,59.221a14.545,14.545,0,0,0-13.584,14.166c-1.141,46.021-4.841,204.764-3.075,261.018a11.294,11.294,0,0,0,10.924,10.938c21.225.695,71.142,2.157,115.42,2.166h.847c16.9,0,32.936-.222,46.21-.779a19.018,19.018,0,0,0,18.236-18.6c1-48.3,3.212-184.168-2.042-246.407a15.52,15.52,0,0,0-13.929-14.14c-27.517-2.753-94.1-8.914-138.787-8.914-7.442,0-14.274.171-20.22.557" transform="translate(-149.137 -58.664)" fill="none"/>
    </clipPath>
    <linearGradient id="linear-gradient-2" x1="0.119" y1="0.956" x2="0.119" y2="0.956" gradientUnits="objectBoundingBox">
      <stop offset="0" stop-color="#09005d"/>
      <stop offset="1" stop-color="#1a0f91"/>
    </linearGradient>
    <clipPath id="clip-path-7">
      <path id="Trazado_874115" data-name="Trazado 874115" d="M208.5,127.655a12.675,12.675,0,0,0-11.987,12.113c-1.61,37.691-6.688,163.079-5.076,209.445a13.119,13.119,0,0,0,12.347,12.653c27.872,1.631,99.362,5.228,140.244,1.954A14.744,14.744,0,0,0,357.566,349.9c2.072-38.453,8.02-155.207,6.475-201.053a14.5,14.5,0,0,0-13.2-13.941c-26.384-2.369-88.978-7.6-127.486-7.6-5.5,0-10.508.107-14.851.344" transform="translate(-191.128 -127.311)" fill="#93fdf3"/>
    </clipPath>
    <clipPath id="clip-path-8">
      <path id="Trazado_874116" data-name="Trazado 874116" d="M468.233,83.066a2.655,2.655,0,0,0-.031,5.3c6.962.365,26.573,1.4,35.338,1.9a2.652,2.652,0,0,0,2.757-3.153l-.056-.29a2.652,2.652,0,0,0-2.362-2.14c-5.21-.478-19.665-1.7-31.131-1.7-1.572,0-3.086.023-4.515.074" transform="translate(-465.691 -82.992)" fill="none"/>
    </clipPath>
    <linearGradient id="linear-gradient-3" x1="-15.181" y1="7.293" x2="-15.153" y2="7.293" xlink:href="#linear-gradient-2"/>
    <clipPath id="clip-path-9">
      <path id="Trazado_874117" data-name="Trazado 874117" d="M391.827,494.528a5.39,5.39,0,0,0,5.184,5.557l66.358,2.3a5.374,5.374,0,0,0,.372-10.741l-66.357-2.3c-.063,0-.125,0-.187,0a5.391,5.391,0,0,0-5.37,5.188" transform="translate(-391.824 -489.34)" fill="none"/>
    </clipPath>
    <linearGradient id="linear-gradient-4" x1="-1.266" y1="4.432" x2="-1.263" y2="4.432" xlink:href="#linear-gradient-2"/>
    <clipPath id="clip-path-10">
      <path id="Trazado_874118" data-name="Trazado 874118" d="M352.906,311.626l-.578,16.669a12.576,12.576,0,0,0,12.1,12.966l72.8,2.525a12.576,12.576,0,0,0,12.966-12.1l.578-16.669a22.916,22.916,0,0,0-22.043-23.627l-52.195-1.81c-.267-.009-.531-.014-.8-.014a22.921,22.921,0,0,0-22.831,22.057" transform="translate(-352.321 -289.569)" fill="none"/>
    </clipPath>
    <linearGradient id="linear-gradient-5" x1="-0.691" y1="2.57" x2="-0.689" y2="2.57" gradientUnits="objectBoundingBox">
      <stop offset="0" stop-color="#4042e2"/>
      <stop offset="1" stop-color="#4f52ff"/>
    </linearGradient>
    <clipPath id="clip-path-11">
      <path id="Trazado_874119" data-name="Trazado 874119" d="M347.256,527.179l-.336,9.681c-.933,26.913,19.478,74.043,46.391,74.976h0c26.913.934,50.54-44.669,51.474-71.582l.336-9.681A12.084,12.084,0,0,0,433.5,518.115l-73.783-2.559c-.141,0-.28-.007-.42-.007a12.086,12.086,0,0,0-12.038,11.63" transform="translate(-346.89 -515.549)" fill="none"/>
    </clipPath>
    <linearGradient id="linear-gradient-6" x1="-0.462" y1="1.447" x2="-0.46" y2="1.447" xlink:href="#linear-gradient-5"/>
    <clipPath id="clip-path-12">
      <path id="Trazado_874120" data-name="Trazado 874120" d="M405.063,364.89a7.055,7.055,0,0,0-6.589,6.8l-.132,3.818a7.058,7.058,0,0,0,6.16,7.245,328.35,328.35,0,0,0,60.77,2.127,7.05,7.05,0,0,0,6.616-6.8l.137-3.949a7.048,7.048,0,0,0-6-7.223,268.391,268.391,0,0,0-39.123-2.743c-7.273,0-14.553.257-21.84.726" transform="translate(-398.337 -364.164)" fill="none"/>
    </clipPath>
    <linearGradient id="linear-gradient-7" x1="-4.943" y1="3.235" x2="-4.933" y2="3.235" xlink:href="#linear-gradient-2"/>
    <clipPath id="clip-path-13">
      <path id="Trazado_874121" data-name="Trazado 874121" d="M450.248,391.563a4.47,4.47,0,1,0,4.622-4.313l-.158,0a4.47,4.47,0,0,0-4.465,4.315" transform="translate(-450.246 -387.248)" fill="none"/>
    </clipPath>
    <linearGradient id="linear-gradient-8" x1="-9.517" y1="18.747" x2="-9.496" y2="18.747" xlink:href="#linear-gradient-5"/>
    <clipPath id="clip-path-14">
      <path id="Trazado_874122" data-name="Trazado 874122" d="M614.741,397.268a4.47,4.47,0,1,0,4.622-4.313l-.158,0a4.47,4.47,0,0,0-4.464,4.315" transform="translate(-614.739 -392.953)" fill="none"/>
    </clipPath>
    <linearGradient id="linear-gradient-9" x1="-13.033" y1="18.625" x2="-13.011" y2="18.625" xlink:href="#linear-gradient-5"/>
    <clipPath id="clip-path-15">
      <path id="Trazado_874123" data-name="Trazado 874123" d="M448.664,391.442a.263.263,0,0,0-.253.273.258.258,0,0,0,.254.252h.014a.263.263,0,0,0-.007-.527h-.008m-1.8.057a.269.269,0,0,0,.2.318c.019,0,.033.006.053.007a.265.265,0,0,0,.066-.523.253.253,0,0,0-.06-.007.266.266,0,0,0-.257.206m3.274-.283a.261.261,0,0,0,.063.514.248.248,0,0,0,.081-.007.264.264,0,0,0,.179-.328.257.257,0,0,0-.248-.19.253.253,0,0,0-.076.012m-4.712-.307a.259.259,0,0,0,.112.353.241.241,0,0,0,.109.028.254.254,0,0,0,.244-.145.259.259,0,0,0-.112-.353.267.267,0,0,0-.121-.029.255.255,0,0,0-.232.146m6.08-.286a.265.265,0,0,0-.094.365.271.271,0,0,0,.36.094.269.269,0,0,0,.094-.365.275.275,0,0,0-.231-.129.25.25,0,0,0-.129.035m-7.329-.651a.264.264,0,0,0,.021.373.249.249,0,0,0,.165.068.265.265,0,0,0,.188-.462.276.276,0,0,0-.179-.066.259.259,0,0,0-.2.086m8.508-.259a.269.269,0,0,0,0,.377.283.283,0,0,0,.179.073.25.25,0,0,0,.194-.074.264.264,0,0,0,0-.373.261.261,0,0,0-.188-.079.264.264,0,0,0-.185.075m-9.488-.951a.265.265,0,0,0,.141.483.259.259,0,0,0,.155-.047.262.262,0,0,0-.145-.482.272.272,0,0,0-.151.046m10.4-.222a.266.266,0,0,0,.092.362.243.243,0,0,0,.123.038.26.26,0,0,0,.239-.13.262.262,0,0,0-.226-.4.266.266,0,0,0-.229.128m-11.048-1.2a.265.265,0,0,0,.078.514.368.368,0,0,0,.1-.016.268.268,0,0,0,.16-.339.272.272,0,0,0-.252-.175.259.259,0,0,0-.087.015m11.645-.17a.258.258,0,0,0,.18.327.263.263,0,0,0,.062.012.267.267,0,0,0,.265-.187v0a.262.262,0,0,0-.18-.327.254.254,0,0,0-.069-.009.271.271,0,0,0-.257.189m-11.916-1.364a.264.264,0,0,0,.015.526h.034a.265.265,0,0,0-.024-.529h-.025m12.154-.133v0c0,.009,0,.014,0,.019v.01a.265.265,0,0,0,.254.272.262.262,0,0,0,.271-.254s0-.009,0-.014,0-.01,0-.014a.265.265,0,0,0-.253-.272h-.01a.262.262,0,0,0-.262.254m-12.342-1.2a.266.266,0,0,0,.224.3c.01,0,.019.005.029.006a.263.263,0,0,0,.27-.225.26.26,0,0,0-.219-.3.263.263,0,0,0-.3.219m12.4-.6a.262.262,0,0,0,.049.518.323.323,0,0,0,.067,0,.269.269,0,0,0,.2-.318.266.266,0,0,0-.258-.2.255.255,0,0,0-.06.007m-11.945-.964a.267.267,0,0,0,.136.349.358.358,0,0,0,.095.022.275.275,0,0,0,.254-.159.266.266,0,0,0-.136-.349.273.273,0,0,0-.106-.021.264.264,0,0,0-.243.157m11.354-.476a.263.263,0,0,0,.112.5.263.263,0,0,0,.243-.383.258.258,0,0,0-.231-.143.27.27,0,0,0-.123.03m-10.526-.92a.268.268,0,0,0,.049.374.251.251,0,0,0,.151.053.265.265,0,0,0,.218-.1.262.262,0,0,0-.049-.37.253.253,0,0,0-.159-.055.271.271,0,0,0-.21.1m9.595-.332a.264.264,0,0,0-.022.372.26.26,0,0,0,.193.088.274.274,0,0,0,.184-.065.264.264,0,0,0-.176-.461.274.274,0,0,0-.178.066m-8.446-.814a.265.265,0,0,0,.151.474.265.265,0,0,0,.174-.056.263.263,0,0,0-.163-.471.273.273,0,0,0-.162.054m7.237-.165a.263.263,0,0,0,.068.366.272.272,0,0,0,.142.043.276.276,0,0,0,.229-.112.27.27,0,0,0-.073-.37.254.254,0,0,0-.144-.044.266.266,0,0,0-.221.118m-5.842-.661a.268.268,0,0,0-.137.349.262.262,0,0,0,.233.161.221.221,0,0,0,.111-.025.261.261,0,0,0,.141-.344.265.265,0,0,0-.348-.141m4.425.01a.27.27,0,0,0,.16.34.227.227,0,0,0,.081.017.259.259,0,0,0,.255-.178.256.256,0,0,0-.16-.335h0a.266.266,0,0,0-.1-.017.258.258,0,0,0-.245.173m-2.866-.458a.258.258,0,0,0-.221.3.265.265,0,0,0,.25.224.214.214,0,0,0,.053,0,.269.269,0,0,0,.221-.3.262.262,0,0,0-.259-.22.272.272,0,0,0-.044,0m1.332.185a.266.266,0,0,0,.238.29h.019a.265.265,0,0,0,.033-.529h-.02a.269.269,0,0,0-.271.239" transform="translate(-442.042 -379.049)" fill="none"/>
    </clipPath>
    <linearGradient id="linear-gradient-10" x1="-5.789" y1="11.903" x2="-5.775" y2="11.903" xlink:href="#linear-gradient-5"/>
    <clipPath id="clip-path-16">
      <path id="Trazado_874124" data-name="Trazado 874124" d="M613.068,397.144a.263.263,0,0,0-.253.273.259.259,0,0,0,.254.253h.014a.263.263,0,0,0-.006-.527h-.009m-1.8.057a.269.269,0,0,0,.2.318c.019,0,.033.006.052.006a.265.265,0,0,0,.066-.523.263.263,0,0,0-.318.2m3.275-.283a.261.261,0,0,0,.064.514.255.255,0,0,0,.081-.007.264.264,0,0,0,.179-.328.257.257,0,0,0-.248-.19.26.26,0,0,0-.076.011m-4.712-.307a.26.26,0,0,0,.112.353.244.244,0,0,0,.109.028.253.253,0,0,0,.244-.144.26.26,0,0,0-.112-.353.267.267,0,0,0-.121-.029.256.256,0,0,0-.232.146m6.08-.286a.265.265,0,0,0-.094.365.27.27,0,0,0,.36.094.269.269,0,0,0,.094-.365.275.275,0,0,0-.231-.129.252.252,0,0,0-.129.035m-7.328-.651a.264.264,0,0,0,.021.374.249.249,0,0,0,.165.068.265.265,0,0,0,.188-.462.275.275,0,0,0-.178-.065.259.259,0,0,0-.2.086m8.507-.259a.269.269,0,0,0,0,.377.283.283,0,0,0,.179.073.25.25,0,0,0,.194-.075.264.264,0,0,0,0-.373.26.26,0,0,0-.187-.079.264.264,0,0,0-.185.075m-9.488-.95a.265.265,0,0,0,.141.483.255.255,0,0,0,.155-.048.262.262,0,0,0-.144-.481.271.271,0,0,0-.151.046m10.4-.222a.266.266,0,0,0,.093.362.241.241,0,0,0,.123.038.259.259,0,0,0,.239-.13.262.262,0,0,0-.226-.4.266.266,0,0,0-.229.128m-11.047-1.2a.265.265,0,0,0,.078.514.379.379,0,0,0,.1-.016.268.268,0,0,0,.16-.339.273.273,0,0,0-.252-.174.256.256,0,0,0-.086.015m11.645-.17a.269.269,0,0,0,.241.338.267.267,0,0,0,.265-.187v0a.262.262,0,0,0-.18-.326.254.254,0,0,0-.069-.01.272.272,0,0,0-.257.189m-11.917-1.365a.264.264,0,0,0,.015.527h.033a.265.265,0,0,0-.024-.529h-.025m12.154-.133v0Zm0,0c0,.01,0,.014,0,.019v.009a.265.265,0,0,0,.254.272.262.262,0,0,0,.272-.253c0-.005,0-.01,0-.015V391.4a.265.265,0,0,0-.253-.272H619.1a.262.262,0,0,0-.263.254m-12.342-1.2a.266.266,0,0,0,.224.3c.009,0,.019.005.029.006a.263.263,0,0,0,.271-.225.26.26,0,0,0-.219-.3.245.245,0,0,0-.044,0,.264.264,0,0,0-.26.223m12.4-.6a.262.262,0,0,0,.049.518.31.31,0,0,0,.067,0,.264.264,0,0,0-.056-.522.291.291,0,0,0-.06.007m-11.944-.964a.267.267,0,0,0,.136.349.39.39,0,0,0,.095.022.276.276,0,0,0,.254-.159.267.267,0,0,0-.136-.349.273.273,0,0,0-.106-.021.264.264,0,0,0-.243.158m11.354-.476a.263.263,0,0,0,.242.467.264.264,0,0,0-.119-.5.272.272,0,0,0-.123.03m-10.527-.92a.268.268,0,0,0,.049.375.251.251,0,0,0,.151.053.267.267,0,0,0,.218-.1.262.262,0,0,0-.049-.37.253.253,0,0,0-.159-.055.272.272,0,0,0-.21.1m9.595-.332a.264.264,0,0,0-.022.372.259.259,0,0,0,.193.088.273.273,0,0,0,.184-.065.263.263,0,0,0-.176-.461.274.274,0,0,0-.178.066m-8.446-.814a.265.265,0,0,0,.151.474.264.264,0,0,0,.174-.056.263.263,0,0,0-.163-.471.273.273,0,0,0-.162.054m7.237-.165a.263.263,0,0,0,.069.366.267.267,0,0,0,.142.043.275.275,0,0,0,.229-.112.27.27,0,0,0-.073-.371.252.252,0,0,0-.144-.044.266.266,0,0,0-.222.117m-5.842-.661a.268.268,0,0,0-.137.349.262.262,0,0,0,.234.161.221.221,0,0,0,.111-.025.262.262,0,0,0,.141-.344.266.266,0,0,0-.349-.141m4.425.01a.27.27,0,0,0,.16.34.227.227,0,0,0,.081.017.26.26,0,0,0,.255-.178.256.256,0,0,0-.16-.335h0a.271.271,0,0,0-.1-.017.258.258,0,0,0-.245.173m-2.866-.458a.259.259,0,0,0-.221.3.265.265,0,0,0,.25.224.194.194,0,0,0,.053,0,.269.269,0,0,0,.221-.3.262.262,0,0,0-.259-.219.275.275,0,0,0-.044,0m1.332.185a.267.267,0,0,0,.239.291h.019a.265.265,0,0,0,.033-.529h-.02a.27.27,0,0,0-.271.239" transform="translate(-606.446 -384.75)" fill="none"/>
    </clipPath>
    <linearGradient id="linear-gradient-11" x1="-7.994" y1="11.826" x2="-7.981" y2="11.826" xlink:href="#linear-gradient-5"/>
    <clipPath id="clip-path-17">
      <path id="Trazado_874125" data-name="Trazado 874125" d="M367.081,235.936a2.481,2.481,0,1,0,2.565-2.393l-.087,0a2.481,2.481,0,0,0-2.478,2.395" transform="translate(-367.08 -233.541)" fill="none"/>
    </clipPath>
    <linearGradient id="linear-gradient-12" x1="-15.513" y1="43.143" x2="-15.471" y2="43.143" xlink:href="#linear-gradient-5"/>
    <clipPath id="clip-path-18">
      <path id="Trazado_874126" data-name="Trazado 874126" d="M379.42,282.232l-3.458,1.581a2.2,2.2,0,0,0-1.286,1.929l-.262,7.554s5.894.963,9.4-6.654l-1.461-3.3a2.2,2.2,0,0,0-2.933-1.112" transform="translate(-374.414 -282.032)" fill="none"/>
    </clipPath>
    <linearGradient id="linear-gradient-13" x1="-7.076" y1="23.805" x2="-7.057" y2="23.805" xlink:href="#linear-gradient-2"/>
    <clipPath id="clip-path-19">
      <path id="Trazado_874127" data-name="Trazado 874127" d="M378.129,248.435l1.663,10.952a.751.751,0,0,0,1.137.526l.645-.4a1.308,1.308,0,0,0,.532-1.586l-3.712-9.564a.131.131,0,0,0-.125-.088.136.136,0,0,0-.139.159" transform="translate(-378.127 -248.276)" fill="none"/>
    </clipPath>
    <linearGradient id="linear-gradient-14" x1="-7.106" y1="40.828" x2="-7.087" y2="40.828" xlink:href="#linear-gradient-5"/>
    <clipPath id="clip-path-20">
      <path id="Trazado_874128" data-name="Trazado 874128" d="M736.925,248.764a2.481,2.481,0,1,0,2.565-2.393H739.4a2.48,2.48,0,0,0-2.477,2.395" transform="translate(-736.924 -246.369)" fill="none"/>
    </clipPath>
    <linearGradient id="linear-gradient-15" x1="-31.209" y1="42.601" x2="-31.166" y2="42.601" xlink:href="#linear-gradient-5"/>
    <clipPath id="clip-path-21">
      <path id="Trazado_874129" data-name="Trazado 874129" d="M709,294.423l-1.686,3.189c2.97,7.841,8.916,7.289,8.916,7.289l.262-7.554a2.2,2.2,0,0,0-1.15-2.013L712,293.518a2.2,2.2,0,0,0-3,.906" transform="translate(-707.31 -293.249)" fill="none"/>
    </clipPath>
    <linearGradient id="linear-gradient-16" x1="-13.504" y1="23.993" x2="-13.484" y2="23.993" xlink:href="#linear-gradient-2"/>
    <clipPath id="clip-path-22">
      <path id="Trazado_874130" data-name="Trazado 874130" d="M730.886,261.077l-4.366,9.284a1.307,1.307,0,0,0,.421,1.619l.577.414a.782.782,0,0,0,1.22-.465l2.407-10.763a.137.137,0,0,0-.137-.168.131.131,0,0,0-.121.079" transform="translate(-726.396 -260.998)" fill="none"/>
    </clipPath>
    <linearGradient id="linear-gradient-17" x1="-14.088" y1="36.307" x2="-14.068" y2="36.307" xlink:href="#linear-gradient-5"/>
    <clipPath id="clip-path-24">
      <path id="Trazado_874132" data-name="Trazado 874132" d="M397.737,378.972a7.394,7.394,0,0,1-6.179-7.8l.147-4.255a7.406,7.406,0,0,1,6.646-7.352,315.1,315.1,0,0,1,33.425-.7,252.092,252.092,0,0,1,29.97,2.788,7.423,7.423,0,0,1,6.017,7.78l-.153,4.4a7.39,7.39,0,0,1-6.673,7.355q-10.055.662-20.269.662a325.28,325.28,0,0,1-42.932-2.875m.579-19.9a7.9,7.9,0,0,0-7.1,7.828l-.147,4.255a7.885,7.885,0,0,0,6.607,8.311c10.674,1.423,21.35,2.32,31.96,2.688a312.4,312.4,0,0,0,31.339-.472,7.882,7.882,0,0,0,7.135-7.831l.152-4.4a7.916,7.916,0,0,0-6.435-8.286,259.7,259.7,0,0,0-39.971-2.963c-7.6,0-15.428.291-23.536.869" transform="translate(-391.059 -358.198)" fill="none"/>
    </clipPath>
    <linearGradient id="linear-gradient-18" x1="-1.463" y1="3.209" x2="-1.459" y2="3.209" gradientUnits="objectBoundingBox">
      <stop offset="0" stop-color="#53d8ff"/>
      <stop offset="1" stop-color="#3840f7"/>
    </linearGradient>
    <clipPath id="clip-path-26">
      <rect id="Rectángulo_401920" data-name="Rectángulo 401920" width="98.953" height="81.195" fill="none"/>
    </clipPath>
    <clipPath id="clip-path-27">
      <rect id="Rectángulo_401921" data-name="Rectángulo 401921" width="101.257" height="76.156" fill="none"/>
    </clipPath>
    <clipPath id="clip-path-28">
      <rect id="Rectángulo_401922" data-name="Rectángulo 401922" width="46.152" height="54.228" fill="none"/>
    </clipPath>
    <clipPath id="clip-path-29">
      <rect id="Rectángulo_401923" data-name="Rectángulo 401923" width="47.572" height="51.795" fill="none"/>
    </clipPath>
    <clipPath id="clip-path-30">
      <rect id="Rectángulo_401924" data-name="Rectángulo 401924" width="37.01" height="30.39" fill="none"/>
    </clipPath>
    <clipPath id="clip-path-31">
      <rect id="Rectángulo_401925" data-name="Rectángulo 401925" width="37.879" height="28.504" fill="none"/>
    </clipPath>
    <clipPath id="clip-path-32">
      <path id="Trazado_874164" data-name="Trazado 874164" d="M923.075,938.182l2.739,2.7A19.65,19.65,0,0,0,935,937.765a21.69,21.69,0,0,0-3.9-6.684,22.539,22.539,0,0,1-8.027,7.1" transform="translate(-923.075 -931.081)" fill="none"/>
    </clipPath>
    <linearGradient id="linear-gradient-19" x1="-15.148" y1="5.988" x2="-15.131" y2="5.988" gradientUnits="objectBoundingBox">
      <stop offset="0" stop-color="#ff928e"/>
      <stop offset="1" stop-color="#feb3b1"/>
    </linearGradient>
    <clipPath id="clip-path-33">
      <path id="Trazado_874165" data-name="Trazado 874165" d="M956.341,889.862a21.69,21.69,0,0,1,3.9,6.684,17.781,17.781,0,0,0,7.139-9.689l-6.464-10.105a25.482,25.482,0,0,1-4.572,13.111" transform="translate(-956.341 -876.751)" fill="none"/>
    </clipPath>
    <linearGradient id="linear-gradient-20" x1="-10.209" y1="4.294" x2="-10.198" y2="4.294" xlink:href="#linear-gradient-5"/>
    <clipPath id="clip-path-34">
      <path id="Trazado_874166" data-name="Trazado 874166" d="M1005.567,1226.31c-3.655,1.169-8.024,4.105-9.92,5.455,2.083.107,5.2.2,8.424.052,3.528-.163,4.743-.886,5.159-1.405a10.223,10.223,0,0,0-1.154-4.252Z" transform="translate(-995.647 -1226.16)" fill="none"/>
    </clipPath>
    <linearGradient id="linear-gradient-21" x1="-17.688" y1="1.225" x2="-17.671" y2="1.225" xlink:href="#linear-gradient-2"/>
    <clipPath id="clip-path-35">
      <path id="Trazado_874167" data-name="Trazado 874167" d="M1003.405,1245.187c-3.222.148-6.341.055-8.424-.052l-.026.018a.44.44,0,0,0,.231.8c3.156.166,9.7-.286,12.338-.486a1.175,1.175,0,0,0,1.08-1.269c-.012-.143-.026-.279-.04-.415-.416.519-1.632,1.242-5.159,1.405" transform="translate(-994.77 -1243.782)" fill="none"/>
    </clipPath>
    <linearGradient id="linear-gradient-22" x1="-17.015" y1="1.125" x2="-16.998" y2="1.125" xlink:href="#linear-gradient-2"/>
    <clipPath id="clip-path-36">
      <path id="Trazado_874168" data-name="Trazado 874168" d="M1126.925,1227.155a24.343,24.343,0,0,0-.907,4.259,1.255,1.255,0,0,0,.177.862l6.287-.22a.708.708,0,0,0-.1-.376c-.606-1.055-1.5-2.609-1.824-3.155a4.169,4.169,0,0,0-1.61-1.371,3.228,3.228,0,0,0-1.3-.39.758.758,0,0,0-.73.39" transform="translate(-1126.003 -1226.765)" fill="none"/>
    </clipPath>
    <linearGradient id="linear-gradient-23" x1="-41.19" y1="1.067" x2="-41.153" y2="1.067" xlink:href="#linear-gradient-2"/>
    <clipPath id="clip-path-37">
      <path id="Trazado_874169" data-name="Trazado 874169" d="M1126.8,1248.912a1.265,1.265,0,0,0,1.111.6l4.479-.123a.716.716,0,0,0,.7-.7Z" transform="translate(-1126.798 -1248.692)" fill="none"/>
    </clipPath>
    <linearGradient id="linear-gradient-24" x1="-282.162" y1="0.7" x2="-281.914" y2="0.7" xlink:href="#linear-gradient-2"/>
    <clipPath id="clip-path-38">
      <path id="Trazado_874170" data-name="Trazado 874170" d="M1124.075,1205.077c.054.181.867,4.12,1.223,5.848a.987.987,0,0,0,1.016.789c.266-.013.576-.037.9-.08a1.191,1.191,0,0,0,1.036-1.136c.058-1.514.086-4.421-.47-5.548a1.242,1.242,0,0,0-1.218-.66,6.2,6.2,0,0,0-2.487.785" transform="translate(-1124.075 -1204.292)" fill="none"/>
    </clipPath>
    <linearGradient id="linear-gradient-25" x1="-63.662" y1="1.664" x2="-63.605" y2="1.664" xlink:href="#linear-gradient-19"/>
    <clipPath id="clip-path-39">
      <path id="Trazado_874171" data-name="Trazado 874171" d="M1035.107,1211.64a1.01,1.01,0,0,0,.931.911c.326.026.648.031.919.028a.915.915,0,0,0,.838-.722c.527-1.779.04-3.589.388-3.578l-3.5-1.253Z" transform="translate(-1034.678 -1207.025)" fill="none"/>
    </clipPath>
    <linearGradient id="linear-gradient-26" x1="-68.535" y1="2.111" x2="-68.468" y2="2.111" xlink:href="#linear-gradient-19"/>
    <clipPath id="clip-path-40">
      <path id="Trazado_874172" data-name="Trazado 874172" d="M1008.809,1001.887c.156.757,5.645,32.776,5.978,49.345a.564.564,0,0,0,.485.549,11.083,11.083,0,0,0,3.37-.022.4.4,0,0,0,.328-.365c.192-3.088,1.735-29.193-.155-41.482,0,0,15.608,32.85,17.974,41.908a.475.475,0,0,0,.487.357,11.79,11.79,0,0,0,3.163-.562.826.826,0,0,0,.521-.971c-1.322-5.421-10.586-42.769-16.876-51Z" transform="translate(-1008.809 -999.646)" fill="none"/>
    </clipPath>
    <linearGradient id="linear-gradient-27" x1="-3.712" y1="1.155" x2="-3.708" y2="1.155" xlink:href="#linear-gradient-2"/>
    <clipPath id="clip-path-41">
      <path id="Trazado_874173" data-name="Trazado 874173" d="M1040.825,1032.539a.2.2,0,0,0,0,.29l2.09,2.137a.2.2,0,0,0,.293-.286l-2.09-2.137a.2.2,0,0,0-.29,0" transform="translate(-1040.763 -1032.481)" fill="none"/>
    </clipPath>
    <linearGradient id="linear-gradient-28" x1="-70.224" y1="15.228" x2="-70.156" y2="15.228" xlink:href="#linear-gradient-2"/>
    <clipPath id="clip-path-42">
      <path id="Trazado_874174" data-name="Trazado 874174" d="M966.47,835.286a1.659,1.659,0,0,0-1.006.852c-1.6,2.814.048,11.257.048,11.257a168.992,168.992,0,0,0,9.88,27.979c5.031.74,10.131-.2,15.276-2.24-2.289-8.1-3.5-22.009-4.393-37.689a2.664,2.664,0,0,0-2.512-2.5c-.551-.033-1.115-.048-1.689-.048a67.189,67.189,0,0,0-15.6,2.392" transform="translate(-964.763 -832.894)" fill="none"/>
    </clipPath>
    <linearGradient id="linear-gradient-29" x1="-4.592" y1="2.095" x2="-4.587" y2="2.095" xlink:href="#linear-gradient-5"/>
    <clipPath id="clip-path-43">
      <path id="Trazado_874175" data-name="Trazado 874175" d="M987.05,798.8l-.176,8.063a1.021,1.021,0,0,0,.692.995,8,8,0,0,0,6.042-.645,1.1,1.1,0,0,0,.594-1.092c-.3-2.793-1.314-8.833-1.314-8.833Z" transform="translate(-986.873 -797.291)" fill="none"/>
    </clipPath>
    <linearGradient id="linear-gradient-30" x1="-26.282" y1="8.961" x2="-26.256" y2="8.961" xlink:href="#linear-gradient-19"/>
    <clipPath id="clip-path-44">
      <path id="Trazado_874176" data-name="Trazado 874176" d="M975.41,776.4c-.131,2.355-.639,3.883,2.084,4.358a5.79,5.79,0,0,0,6.26-3.228s1.947-3.615,1.51-5.1-7.771-2.876-7.771-2.876-1.953,4.487-2.084,6.842" transform="translate(-975.287 -769.559)" fill="none"/>
    </clipPath>
    <linearGradient id="linear-gradient-31" x1="-19.323" y1="9.22" x2="-19.303" y2="9.22" xlink:href="#linear-gradient-19"/>
    <clipPath id="clip-path-45">
      <path id="Trazado_874177" data-name="Trazado 874177" d="M975.647,749.265a3.257,3.257,0,0,0-1.259,4.481c1.065,1.752,6,2.758,7.248,3.27s-.172,3.421-.172,3.421h1.078a.185.185,0,0,1,.185.2l-.127,2.058a.185.185,0,0,0,.14.191,3.774,3.774,0,0,0,2.63-.607c1.416-.757.87-1.325.5-1.563a.184.184,0,0,1-.009-.3c2.023-1.655,2.4-3.668,1.478-4.443-.531-.446-.928-.375-1.176-.224a.185.185,0,0,1-.286-.152c-.055-2.322-2.276-3.682-5.636-4.3-2.368-.437-3.251-1.289-3.577-1.813a.184.184,0,0,0-.332.051.185.185,0,0,1-.341.035l-.114-.215a.189.189,0,0,0-.164-.1.167.167,0,0,0-.069.015" transform="translate(-973.948 -749.25)" fill="none"/>
    </clipPath>
    <linearGradient id="linear-gradient-32" x1="-11.571" y1="6.198" x2="-11.559" y2="6.198" xlink:href="#linear-gradient-2"/>
    <clipPath id="clip-path-46">
      <path id="Trazado_874178" data-name="Trazado 874178" d="M1006.171,790.456l.33,1.256c1.033-.107,2.985-2.515,1.7-3.319a.842.842,0,0,0-.449-.142c-1.008,0-1.581,2.2-1.581,2.2" transform="translate(-1006.171 -788.251)" fill="none"/>
    </clipPath>
    <linearGradient id="linear-gradient-33" x1="-66.139" y1="29.746" x2="-66.073" y2="29.746" xlink:href="#linear-gradient-19"/>
    <clipPath id="clip-path-48">
      <path id="Trazado_874183" data-name="Trazado 874183" d="M1096.9,926.763a25.031,25.031,0,0,1,.866,11.527l2.613.7s3.376-4.016,2.6-12.927a10.514,10.514,0,0,0-1.589-.118,13.552,13.552,0,0,0-4.494.821" transform="translate(-1096.899 -925.942)" fill="none"/>
    </clipPath>
    <linearGradient id="linear-gradient-34" x1="-21.265" y1="5.458" x2="-21.245" y2="5.458" xlink:href="#linear-gradient-19"/>
    <clipPath id="clip-path-49">
      <path id="Trazado_874184" data-name="Trazado 874184" d="M1046.035,834.5l.421,13.36c7.017.943,10.338,4.958,11.853,9.207a12.745,12.745,0,0,1,6.083-.7c-.087-1-.224-2.063-.426-3.19-1.766-9.828-14.365-17.388-17.33-19.043a.4.4,0,0,0-.2-.052.407.407,0,0,0-.405.421" transform="translate(-1046.035 -834.082)" fill="none"/>
    </clipPath>
    <linearGradient id="linear-gradient-35" x1="-8.585" y1="3.567" x2="-8.577" y2="3.567" xlink:href="#linear-gradient-5"/>
    <clipPath id="clip-path-50">
      <path id="Trazado_874185" data-name="Trazado 874185" d="M894.346,965.057c-.965.439-.513,1.879-.112,2.778a1.694,1.694,0,0,0,1.095.948c2.38.741,4.443,1.232,5.513.938l-1.168-.568-1.277-2.07s-2.076-2.128-3.545-2.128a1.212,1.212,0,0,0-.506.1" transform="translate(-893.77 -964.954)" fill="none"/>
    </clipPath>
    <linearGradient id="linear-gradient-36" x1="-24.482" y1="9.676" x2="-24.455" y2="9.676" xlink:href="#linear-gradient-19"/>
    <clipPath id="clip-path-51">
      <path id="Trazado_874186" data-name="Trazado 874186" d="M1091.052,971.7h-3.231s2.621,1.572,2.708,3.225a16.624,16.624,0,0,1-1.568,6.01c-.577,1.02,7.317-1.518,4.53-9.235Z" transform="translate(-1087.821 -971.697)" fill="none"/>
    </clipPath>
    <linearGradient id="linear-gradient-37" x1="-21.068" y1="5.354" x2="-21.048" y2="5.354" xlink:href="#linear-gradient-19"/>
  </defs>
  <g id="img1" transform="translate(-180 -404)">
    <rect id="Rectángulo_401724" data-name="Rectángulo 401724" width="295" height="330" transform="translate(180 404)" fill="none"/>
    <g id="Grupo_1101105" data-name="Grupo 1101105" transform="translate(180 418)">
      <g id="Grupo_1101104" data-name="Grupo 1101104" clip-path="url(#clip-path)">
        <g id="Grupo_1100997" data-name="Grupo 1100997" transform="translate(2.627 99.856)">
          <g id="Grupo_1100996" data-name="Grupo 1100996" clip-path="url(#clip-path-2)">
            <rect id="Rectángulo_401898" data-name="Rectángulo 401898" width="305.606" height="208.183" transform="translate(-6.487 -0.91)" fill="#e7fdeb"/>
          </g>
        </g>
        <g id="Grupo_1100999" data-name="Grupo 1100999">
          <g id="Grupo_1100998" data-name="Grupo 1100998" clip-path="url(#clip-path-3)">
            <path id="Trazado_874109" data-name="Trazado 874109" d="M396.7,24.84a126.5,126.5,0,0,0-8-23.166,2.834,2.834,0,0,0-5.243.172c-3.367,9.928-11.855,18.26-21.109,24.133-11.784,7.479-25.285,12.294-36.688,20.3-23.47,16.475-35.24,44.4-41.429,71.852s-7.971,55.922-16.99,82.6c-4.3,12.72-10.406,25.175-20.213,34.59-9.631,9.246-23.289,15.226-36.84,13.665a.622.622,0,0,0-.377,1.171c15.133,7.928,34.965,1.71,46.447-10.507,11.567-12.306,16.332-29.179,19.214-45.621s4.316-33.355,10.721-48.807a83.521,83.521,0,0,1,32.068-38.042c13.052-8.344,28.2-13.06,42.278-19.7s27.788-15.974,33.993-29.864c4.548-10.182,4.562-21.865,2.164-32.779" transform="translate(-158.925 0)" fill="#99eca7"/>
          </g>
        </g>
        <g id="Grupo_1101001" data-name="Grupo 1101001" transform="translate(76.438 259.965)">
          <g id="Grupo_1101000" data-name="Grupo 1101000" clip-path="url(#clip-path-4)">
            <path id="Trazado_874110" data-name="Trazado 874110" d="M318.482,1072.9l-1.854,3.177-3.778-2.08,1.854-3.177Z" transform="translate(-313.793 -1072.383)" fill="url(#linear-gradient)"/>
          </g>
        </g>
        <g id="Grupo_1101003" data-name="Grupo 1101003">
          <g id="Grupo_1101002" data-name="Grupo 1101002" clip-path="url(#clip-path-3)">
            <path id="Trazado_874112" data-name="Trazado 874112" d="M522.641,325.124c-11.845,8.887-27.565,13.268-42.651,16.074-19.73,3.669-40.52,5.826-57.407,16.23-17.64,10.868-28.643,29.409-36.039,48.333s-11.869,38.894-20.133,57.473c-7.859,17.669-19.916,34.55-37.426,43.465,13.665.637,26.578-8.2,34.173-19.319,8.1-11.861,11.548-26.05,15.769-39.69s9.729-27.579,20.685-37.059c21.5-18.6,55.614-13.917,81.407-26.5,13.344-6.508,23.894-17.452,31.921-29.616a181.7,181.7,0,0,0,13.9-26.219,2.731,2.731,0,0,0-4.2-3.176" transform="translate(-249.596 -246.24)" fill="#99eca7"/>
            <path id="Trazado_874113" data-name="Trazado 874113" d="M623.357,97.437c-.3.73-.629,1.42-.98,2.109l-.536,1.025-.575,1c-.773,1.332-1.6,2.63-2.483,3.894-.424.644-.888,1.258-1.348,1.875s-.916,1.239-1.416,1.824l-1.471,1.782c-.506.579-1.029,1.145-1.543,1.718-1.009,1.166-2.131,2.223-3.2,3.327-.53.56-1.12,1.057-1.68,1.585l-1.705,1.56c-1.178.991-2.379,1.957-3.568,2.936l-3.712,2.75c-1.268.873-2.56,1.71-3.84,2.566-.632.441-1.306.813-1.966,1.21l-1.986,1.178c-1.318.806-2.664,1.518-4,2.26l-4,2.22a172.344,172.344,0,0,0-15.534,9.55A84.258,84.258,0,0,0,548.325,162.7c-1.788,2.447-3.49,4.961-5.049,7.567-6.231,10.439-10.784,21.833-14.539,33.432a.316.316,0,0,1-.6-.187c1.732-5.867,3.7-11.67,6-17.352a125.63,125.63,0,0,1,8.04-16.545c1.548-2.656,3.244-5.226,5.032-7.731A82.222,82.222,0,0,1,566.9,142.529a173.928,173.928,0,0,1,15.64-9.7l4-2.239c1.333-.744,2.68-1.477,3.978-2.248l1.965-1.144c.652-.386,1.32-.747,1.945-1.176,1.265-.833,2.544-1.646,3.8-2.495l3.673-2.676c1.176-.954,2.364-1.894,3.531-2.859l1.706-1.5c.563-.506,1.156-.981,1.69-1.518,1.081-1.06,2.211-2.074,3.229-3.2.519-.552,1.047-1.1,1.559-1.654l1.488-1.717c.508-.563.963-1.169,1.443-1.755s.958-1.175,1.4-1.791c.914-1.209,1.781-2.453,2.593-3.733l.6-.962.574-.979c.378-.653.741-1.326,1.058-1.993l.007-.014a.316.316,0,0,1,.577.256" transform="translate(-400.679 -73.593)" fill="#bdd0fb"/>
          </g>
        </g>
        <g id="Grupo_1101005" data-name="Grupo 1101005" transform="translate(35.989 14.156)">
          <g id="Grupo_1101004" data-name="Grupo 1101004" clip-path="url(#clip-path-6)">
            <rect id="Rectángulo_401901" data-name="Rectángulo 401901" width="348.796" height="316.896" transform="translate(-128.44 212.922) rotate(-59.157)" fill="url(#linear-gradient-2)"/>
          </g>
        </g>
        <g id="Grupo_1101007" data-name="Grupo 1101007" transform="translate(46.122 30.722)">
          <g id="Grupo_1101006" data-name="Grupo 1101006" clip-path="url(#clip-path-7)">
            <rect id="Rectángulo_401902" data-name="Rectángulo 401902" width="270.325" height="295.033" transform="translate(-103.336 56.943) rotate(-29.164)" fill="#93fdf3"/>
          </g>
        </g>
        <g id="Grupo_1101009" data-name="Grupo 1101009" transform="translate(112.377 20.027)">
          <g id="Grupo_1101008" data-name="Grupo 1101008" clip-path="url(#clip-path-8)">
            <rect id="Rectángulo_401903" data-name="Rectángulo 401903" width="8.472" height="41.115" transform="translate(-0.197 7.378) rotate(-88.472)" fill="url(#linear-gradient-3)"/>
          </g>
        </g>
        <g id="Grupo_1101011" data-name="Grupo 1101011" transform="translate(94.552 118.084)">
          <g id="Grupo_1101010" data-name="Grupo 1101010" clip-path="url(#clip-path-9)">
            <rect id="Rectángulo_401904" data-name="Rectángulo 401904" width="75.363" height="45.358" transform="translate(-5.235 2.471) rotate(-25.688)" fill="url(#linear-gradient-4)"/>
          </g>
        </g>
        <g id="Grupo_1101013" data-name="Grupo 1101013" transform="translate(85.02 69.877)">
          <g id="Grupo_1101012" data-name="Grupo 1101012" clip-path="url(#clip-path-10)">
            <rect id="Rectángulo_401905" data-name="Rectángulo 401905" width="112.817" height="99.448" transform="matrix(0.841, -0.541, 0.541, 0.841, -25.02, 15.963)" fill="url(#linear-gradient-5)"/>
          </g>
        </g>
        <g id="Grupo_1101015" data-name="Grupo 1101015" transform="translate(83.709 124.409)">
          <g id="Grupo_1101014" data-name="Grupo 1101014" clip-path="url(#clip-path-11)">
            <rect id="Rectángulo_401906" data-name="Rectángulo 401906" width="137.728" height="137.284" transform="matrix(0.803, -0.596, 0.596, 0.803, -47.426, 34.52)" fill="url(#linear-gradient-6)"/>
          </g>
        </g>
        <g id="Grupo_1101017" data-name="Grupo 1101017" transform="translate(96.124 87.878)">
          <g id="Grupo_1101016" data-name="Grupo 1101016" clip-path="url(#clip-path-12)">
            <rect id="Rectángulo_401907" data-name="Rectángulo 401907" width="24.429" height="74.649" transform="translate(-0.881 21.851) rotate(-88.011)" fill="url(#linear-gradient-7)"/>
          </g>
        </g>
        <g id="Grupo_1101019" data-name="Grupo 1101019" transform="translate(108.65 93.448)">
          <g id="Grupo_1101018" data-name="Grupo 1101018" clip-path="url(#clip-path-13)">
            <rect id="Rectángulo_401908" data-name="Rectángulo 401908" width="11.293" height="11.237" transform="translate(-2.539 0.727) rotate(-16.487)" fill="url(#linear-gradient-8)"/>
          </g>
        </g>
        <g id="Grupo_1101021" data-name="Grupo 1101021" transform="translate(148.345 94.825)">
          <g id="Grupo_1101020" data-name="Grupo 1101020" clip-path="url(#clip-path-14)">
            <rect id="Rectángulo_401909" data-name="Rectángulo 401909" width="11.292" height="11.237" transform="translate(-2.538 0.727) rotate(-16.487)" fill="url(#linear-gradient-9)"/>
          </g>
        </g>
        <g id="Grupo_1101023" data-name="Grupo 1101023" transform="translate(106.671 91.47)">
          <g id="Grupo_1101022" data-name="Grupo 1101022" clip-path="url(#clip-path-15)">
            <rect id="Rectángulo_401910" data-name="Rectángulo 401910" width="17.989" height="17.984" transform="translate(-6.056 4.176) rotate(-34.65)" fill="url(#linear-gradient-10)"/>
          </g>
        </g>
        <g id="Grupo_1101025" data-name="Grupo 1101025" transform="translate(146.343 92.845)">
          <g id="Grupo_1101024" data-name="Grupo 1101024" clip-path="url(#clip-path-16)">
            <rect id="Rectángulo_401911" data-name="Rectángulo 401911" width="17.989" height="17.984" transform="matrix(0.823, -0.569, 0.569, 0.823, -6.056, 4.176)" fill="url(#linear-gradient-11)"/>
          </g>
        </g>
        <g id="Grupo_1101027" data-name="Grupo 1101027" transform="translate(88.581 56.357)">
          <g id="Grupo_1101026" data-name="Grupo 1101026" clip-path="url(#clip-path-17)">
            <rect id="Rectángulo_401912" data-name="Rectángulo 401912" width="5.687" height="5.725" transform="matrix(0.145, -0.989, 0.989, 0.145, -0.764, 4.902)" fill="url(#linear-gradient-12)"/>
          </g>
        </g>
        <g id="Grupo_1101029" data-name="Grupo 1101029" transform="translate(90.351 68.058)">
          <g id="Grupo_1101028" data-name="Grupo 1101028" clip-path="url(#clip-path-18)">
            <rect id="Rectángulo_401913" data-name="Rectángulo 401913" width="12.546" height="9.819" transform="translate(-0.424 12.213) rotate(-88.011)" fill="url(#linear-gradient-13)"/>
          </g>
        </g>
        <g id="Grupo_1101031" data-name="Grupo 1101031" transform="translate(91.247 59.912)">
          <g id="Grupo_1101030" data-name="Grupo 1101030" clip-path="url(#clip-path-19)">
            <rect id="Rectángulo_401914" data-name="Rectángulo 401914" width="12.272" height="5.882" transform="matrix(0.145, -0.989, 0.989, 0.145, -1.702, 11.538)" fill="url(#linear-gradient-14)"/>
          </g>
        </g>
        <g id="Grupo_1101033" data-name="Grupo 1101033" transform="translate(177.829 59.452)">
          <g id="Grupo_1101032" data-name="Grupo 1101032" clip-path="url(#clip-path-20)">
            <rect id="Rectángulo_401915" data-name="Rectángulo 401915" width="5.686" height="5.725" transform="translate(-0.764 4.902) rotate(-81.671)" fill="url(#linear-gradient-15)"/>
          </g>
        </g>
        <g id="Grupo_1101035" data-name="Grupo 1101035" transform="translate(170.683 70.765)">
          <g id="Grupo_1101034" data-name="Grupo 1101034" clip-path="url(#clip-path-21)">
            <rect id="Rectángulo_401916" data-name="Rectángulo 401916" width="12.517" height="9.625" transform="translate(-0.423 12.19) rotate(-88.011)" fill="url(#linear-gradient-16)"/>
          </g>
        </g>
        <g id="Grupo_1101037" data-name="Grupo 1101037" transform="translate(175.289 62.982)">
          <g id="Grupo_1101036" data-name="Grupo 1101036" clip-path="url(#clip-path-22)">
            <rect id="Rectángulo_401917" data-name="Rectángulo 401917" width="12.175" height="6.541" transform="translate(-1.804 11.342) rotate(-81.671)" fill="url(#linear-gradient-17)"/>
          </g>
        </g>
        <g id="Grupo_1101039" data-name="Grupo 1101039">
          <g id="Grupo_1101038" data-name="Grupo 1101038" clip-path="url(#clip-path-3)">
            <path id="Trazado_874131" data-name="Trazado 874131" d="M436.182,323.768a2.627,2.627,0,0,1-.047-5.249,290.531,290.531,0,0,1,53.328,1.681,2.627,2.627,0,1,1-.673,5.211,285.421,285.421,0,0,0-52.372-1.645q-.119.007-.236,0" transform="translate(-329.004 -241.274)" fill="#91b3fa"/>
          </g>
        </g>
        <g id="Grupo_1101041" data-name="Grupo 1101041" transform="translate(94.368 86.438)">
          <g id="Grupo_1101040" data-name="Grupo 1101040" clip-path="url(#clip-path-24)">
            <rect id="Rectángulo_401919" data-name="Rectángulo 401919" width="67.749" height="75.459" transform="translate(-12.044 14.638) rotate(-50.885)" fill="url(#linear-gradient-18)"/>
          </g>
        </g>
        <g id="Grupo_1101061" data-name="Grupo 1101061">
          <g id="Grupo_1101060" data-name="Grupo 1101060" clip-path="url(#clip-path-3)">
            <path id="Trazado_874133" data-name="Trazado 874133" d="M492.7,573.921l-34.372-1.192a5.977,5.977,0,0,1-5.76-6.174l.339-9.786a5.978,5.978,0,0,1,6.174-5.76l34.372,1.192a5.978,5.978,0,0,1,5.76,6.174l-.339,9.786a5.978,5.978,0,0,1-6.174,5.76m-33.635-22.436a5.5,5.5,0,0,0-5.68,5.3l-.34,9.787a5.5,5.5,0,0,0,5.3,5.68l34.372,1.192a5.5,5.5,0,0,0,5.68-5.3l.34-9.787a5.5,5.5,0,0,0-5.3-5.68Z" transform="translate(-343.357 -418.039)" fill="#91b3fa"/>
            <path id="Trazado_874134" data-name="Trazado 874134" d="M489.33,570.248a.831.831,0,0,1-.185-.026.749.749,0,0,1-.175-.059.806.806,0,0,1-.164-.1.666.666,0,0,1-.139-.125.965.965,0,0,1-.258-.683.977.977,0,0,1,.3-.668.994.994,0,0,1,1.351.047,1.865,1.865,0,0,1,.114.152,1.077,1.077,0,0,1,.08.166.846.846,0,0,1,.046.183.925.925,0,0,1-.013.372.749.749,0,0,1-.059.175.923.923,0,0,1-.091.164,1.22,1.22,0,0,1-.125.139.715.715,0,0,1-.152.114.788.788,0,0,1-.166.085.8.8,0,0,1-.183.046.808.808,0,0,1-.187.013" transform="translate(-370.549 -431.199)" fill="#91b3fa"/>
            <path id="Trazado_874135" data-name="Trazado 874135" d="M525.138,570.5a.955.955,0,1,1,.917.988.954.954,0,0,1-.917-.988m-4.512-.156a.955.955,0,1,1,.922.988.958.958,0,0,1-.922-.988m-4.507-.156a.955.955,0,1,1,.922.988.955.955,0,0,1-.922-.988m-4.511-.156a.955.955,0,1,1,.922.988.958.958,0,0,1-.922-.988m-4.507-.156a.955.955,0,1,1,.922.988.955.955,0,0,1-.922-.988" transform="translate(-384.731 -431.654)" fill="#91b3fa"/>
            <path id="Trazado_874136" data-name="Trazado 874136" d="M601.439,574.1a.938.938,0,0,1-.663-.305.666.666,0,0,1-.114-.147,1.094,1.094,0,0,1-.085-.165.876.876,0,0,1-.046-.183.81.81,0,0,1-.013-.187.939.939,0,0,1,.3-.663.673.673,0,0,1,.147-.114.711.711,0,0,1,.17-.085.766.766,0,0,1,.179-.046.966.966,0,0,1,.855.292.955.955,0,0,1,.254.683.825.825,0,0,1-.026.185.863.863,0,0,1-.059.18.764.764,0,0,1-.1.159.836.836,0,0,1-.119.139.849.849,0,0,1-.152.114.781.781,0,0,1-.165.085.871.871,0,0,1-.183.046.838.838,0,0,1-.187.013" transform="translate(-455.604 -434.115)" fill="#91b3fa"/>
            <g id="Grupo_1101044" data-name="Grupo 1101044" transform="translate(34.717 170.664)" opacity="0.64">
              <g id="Grupo_1101043" data-name="Grupo 1101043">
                <g id="Grupo_1101042" data-name="Grupo 1101042" clip-path="url(#clip-path-26)">
                  <path id="Trazado_874137" data-name="Trazado 874137" d="M153.691,1030.406a1.2,1.2,0,0,1-1.146-.858q-.274-.933-.519-1.876a1.194,1.194,0,1,1,2.311-.6q.236.908.5,1.805a1.2,1.2,0,0,1-1.146,1.531" transform="translate(-150.028 -949.211)" fill="#91b3fa"/>
                  <path id="Trazado_874138" data-name="Trazado 874138" d="M145.76,780.466a1.2,1.2,0,0,1-1.179-1.014c-.2-1.287-.355-2.6-.471-3.894a1.194,1.194,0,0,1,2.379-.212c.111,1.247.263,2.506.453,3.744a1.2,1.2,0,0,1-1.182,1.375m-.7-10.064h-.015a1.194,1.194,0,0,1-1.18-1.209c.015-1.2.064-2.41.147-3.606l.022-.31a1.194,1.194,0,0,1,2.382.175l-.021.3c-.08,1.152-.128,2.32-.142,3.472a1.194,1.194,0,0,1-1.194,1.179M146,760.36a1.179,1.179,0,0,1-.208-.019,1.194,1.194,0,0,1-.969-1.383c.226-1.283.5-2.575.8-3.838a1.194,1.194,0,1,1,2.322.561c-.293,1.215-.553,2.456-.77,3.691a1.194,1.194,0,0,1-1.174.987m2.559-9.754a1.2,1.2,0,0,1-1.126-1.592c.433-1.228.911-2.458,1.421-3.655a1.194,1.194,0,0,1,2.2.935c-.49,1.151-.949,2.333-1.366,3.514a1.194,1.194,0,0,1-1.126.8m4.13-9.2a1.195,1.195,0,0,1-1.044-1.772c.631-1.142,1.305-2.277,2.005-3.375a1.194,1.194,0,0,1,2.014,1.284c-.673,1.056-1.322,2.147-1.928,3.245a1.194,1.194,0,0,1-1.047.617m5.589-8.4a1.194,1.194,0,0,1-.936-1.935c.809-1.023,1.66-2.032,2.528-3a1.194,1.194,0,0,1,1.777,1.6c-.835.931-1.653,1.9-2.432,2.885a1.192,1.192,0,0,1-.937.453m6.884-7.375a1.194,1.194,0,0,1-.8-2.077c.963-.876,1.965-1.733,2.98-2.547a1.194,1.194,0,1,1,1.494,1.863c-.976.783-1.941,1.608-2.867,2.45a1.19,1.19,0,0,1-.8.311m7.99-6.157a1.194,1.194,0,0,1-.65-2.2c1.09-.707,2.219-1.389,3.353-2.028a1.194,1.194,0,1,1,1.172,2.082c-1.091.614-2.177,1.271-3.226,1.95a1.19,1.19,0,0,1-.648.192m61.445-3.108a1.191,1.191,0,0,1-.544-.132c-1.114-.571-2.262-1.115-3.409-1.615a1.194,1.194,0,1,1,.954-2.19c1.193.52,2.386,1.085,3.545,1.679a1.194,1.194,0,0,1-.546,2.257M182.035,714.7a1.194,1.194,0,0,1-.478-2.289c1.194-.52,2.417-1.008,3.638-1.451a1.194,1.194,0,1,1,.815,2.245c-1.174.426-2.351.9-3.5,1.4a1.192,1.192,0,0,1-.476.1m43.238-2.183a1.2,1.2,0,0,1-.363-.057c-1.192-.38-2.413-.727-3.628-1.031a1.194,1.194,0,0,1,.58-2.317c1.264.317,2.534.677,3.773,1.073a1.194,1.194,0,0,1-.362,2.332m-33.7-1.068a1.194,1.194,0,0,1-.289-2.353c1.262-.317,2.551-.6,3.831-.834a1.194,1.194,0,1,1,.434,2.349c-1.231.228-2.471.5-3.684.8a1.186,1.186,0,0,1-.291.036m23.865-1.192a1.2,1.2,0,0,1-.173-.012c-1.237-.179-2.5-.323-3.749-.425a1.194,1.194,0,1,1,.2-2.381c1.3.107,2.61.256,3.9.442a1.194,1.194,0,0,1-.17,2.376m-13.914-.445a1.194,1.194,0,0,1-.095-2.384c1.3-.1,2.614-.17,3.915-.193h.022a1.194,1.194,0,0,1,.021,2.388c-1.252.023-2.519.085-3.767.186-.033,0-.065,0-.1,0" transform="translate(-143.867 -707.231)" fill="#91b3fa"/>
                  <path id="Trazado_874139" data-name="Trazado 874139" d="M540.238,751.693a1.19,1.19,0,0,1-.68-.214q-.768-.534-1.554-1.045a1.194,1.194,0,0,1,1.3-2q.817.531,1.615,1.086a1.194,1.194,0,0,1-.683,2.175" transform="translate(-442.481 -738.343)" fill="#91b3fa"/>
                </g>
              </g>
            </g>
            <g id="Grupo_1101047" data-name="Grupo 1101047" transform="translate(58.838 219.882)" opacity="0.64">
              <g id="Grupo_1101046" data-name="Grupo 1101046">
                <g id="Grupo_1101045" data-name="Grupo 1101045" clip-path="url(#clip-path-27)">
                  <path id="Trazado_874140" data-name="Trazado 874140" d="M650.015,915.456a1.194,1.194,0,0,1-1.176-.993q-.158-.925-.344-1.841a1.194,1.194,0,1,1,2.341-.475q.193.953.358,1.914a1.194,1.194,0,0,1-.977,1.378,1.176,1.176,0,0,1-.2.017" transform="translate(-550.825 -911.189)" fill="#91b3fa"/>
                  <path id="Trazado_874141" data-name="Trazado 874141" d="M303.641,1012.448c-.78,0-1.572-.015-2.353-.044a1.194,1.194,0,1,1,.089-2.387c1.237.046,2.485.054,3.712.025a1.194,1.194,0,1,1,.057,2.388q-.75.018-1.5.018m7.605-.47a1.194,1.194,0,0,1-.146-2.38c1.223-.152,2.456-.345,3.666-.572a1.194,1.194,0,0,1,.441,2.348c-1.258.236-2.541.437-3.812.6a1.26,1.26,0,0,1-.149.009m-16.04-.1a1.211,1.211,0,0,1-.163-.011c-1.27-.173-2.55-.388-3.805-.638a1.194,1.194,0,0,1,.467-2.342c1.208.241,2.44.447,3.661.614a1.194,1.194,0,0,1-.16,2.378m25.758-1.921a1.194,1.194,0,0,1-.337-2.34c1.179-.348,2.363-.737,3.519-1.157a1.194,1.194,0,1,1,.816,2.245c-1.2.437-2.434.842-3.66,1.2a1.185,1.185,0,0,1-.338.049m-35.455-.209a1.2,1.2,0,0,1-.35-.053c-1.226-.376-2.456-.794-3.653-1.245a1.194,1.194,0,1,1,.84-2.236c1.152.433,2.334.835,3.513,1.2a1.194,1.194,0,0,1-.349,2.336m44.711-3.358a1.194,1.194,0,0,1-.519-2.271c1.108-.534,2.215-1.109,3.29-1.711a1.194,1.194,0,1,1,1.167,2.084c-1.117.625-2.268,1.224-3.42,1.779a1.191,1.191,0,0,1-.517.118m-53.936-.313a1.186,1.186,0,0,1-.529-.125c-1.147-.568-2.292-1.181-3.4-1.82a1.194,1.194,0,0,1,1.191-2.07c1.069.614,2.17,1.2,3.273,1.75a1.194,1.194,0,0,1-.531,2.264m62.5-4.7a1.194,1.194,0,0,1-.685-2.173c1.009-.705,2.01-1.451,2.975-2.218a1.194,1.194,0,1,1,1.486,1.87c-1,.8-2.043,1.572-3.092,2.306a1.189,1.189,0,0,1-.683.215m7.651-6.32A1.194,1.194,0,0,1,345.6,993c.884-.858,1.753-1.755,2.583-2.667a1.194,1.194,0,1,1,1.765,1.608c-.863.947-1.766,1.88-2.685,2.772a1.189,1.189,0,0,1-.832.338m6.542-7.466a1.194,1.194,0,0,1-.957-1.907c.735-.989,1.449-2.014,2.122-3.048a1.194,1.194,0,0,1,2,1.3c-.7,1.075-1.443,2.141-2.207,3.169a1.192,1.192,0,0,1-.959.482m5.259-8.422a1.195,1.195,0,0,1-1.06-1.743c.566-1.1,1.105-2.223,1.6-3.352a1.194,1.194,0,0,1,2.186.963c-.517,1.174-1.078,2.347-1.667,3.486a1.2,1.2,0,0,1-1.062.646M362.064,970a1.195,1.195,0,0,1-1.136-1.563c.38-1.171.729-2.37,1.036-3.562a1.194,1.194,0,1,1,2.313.6c-.319,1.24-.682,2.486-1.078,3.7a1.194,1.194,0,0,1-1.135.826m2.293-9.656a1.195,1.195,0,0,1-1.182-1.375c.187-1.217.338-2.456.451-3.684a1.194,1.194,0,0,1,2.379.218c-.117,1.276-.275,2.564-.469,3.828a1.2,1.2,0,0,1-1.179,1.013m.718-9.9a1.194,1.194,0,0,1-1.194-1.186c-.009-1.233-.056-2.481-.14-3.71a1.194,1.194,0,0,1,2.383-.163c.087,1.277.136,2.574.146,3.856a1.194,1.194,0,0,1-1.186,1.2Z" transform="translate(-265.012 -936.292)" fill="#91b3fa"/>
                  <path id="Trazado_874142" data-name="Trazado 874142" d="M246.549,1167.975a1.19,1.19,0,0,1-.7-.225q-.791-.568-1.563-1.16a1.194,1.194,0,0,1,1.453-1.9q.743.569,1.5,1.116a1.194,1.194,0,0,1-.7,2.164" transform="translate(-243.823 -1103.334)" fill="#91b3fa"/>
                </g>
              </g>
            </g>
            <path id="Trazado_874143" data-name="Trazado 874143" d="M220.857,849.355a.738.738,0,0,0,.827.226l8.431-3.1a39.132,39.132,0,0,0,11.162,6.011l2.056,8.739a.738.738,0,0,0,.644.565l10.72,1.086a.739.739,0,0,0,.744-.425l3.767-8.149a39.134,39.134,0,0,0,12.141-3.651l7.638,4.728a.738.738,0,0,0,.855-.056l8.348-6.812a.738.738,0,0,0,.226-.827l-3.1-8.431a39.131,39.131,0,0,0,6.011-11.162l8.739-2.056a.738.738,0,0,0,.565-.644l1.086-10.721a.738.738,0,0,0-.424-.744l-8.149-3.767a39.119,39.119,0,0,0-3.651-12.141l4.728-7.638a.738.738,0,0,0-.056-.855l-6.812-8.349a.738.738,0,0,0-.827-.226l-8.431,3.1a39.123,39.123,0,0,0-11.162-6.011l-2.056-8.739a.738.738,0,0,0-.644-.565l-10.721-1.086a.738.738,0,0,0-.744.424L249,776.229a39.127,39.127,0,0,0-12.141,3.651l-7.638-4.728a.738.738,0,0,0-.855.056l-8.348,6.813a.739.739,0,0,0-.226.826l3.1,8.431a39.128,39.128,0,0,0-6.011,11.162l-8.739,2.056a.738.738,0,0,0-.565.644l-1.086,10.72a.738.738,0,0,0,.424.744l8.149,3.767a39.127,39.127,0,0,0,3.651,12.141l-4.728,7.638a.738.738,0,0,0,.056.855Z" transform="translate(-156.661 -582.407)" fill="#6cdfd4"/>
            <path id="Trazado_874144" data-name="Trazado 874144" d="M370.719,942.408a10.537,10.537,0,1,1,1.541-.113,10.539,10.539,0,0,1-1.541.113m1.4-1.058h0Zm-1.377-18.08a8.739,8.739,0,0,0-1.274.094,8.577,8.577,0,1,0,1.274-.094" transform="translate(-273.28 -699.022)" fill="#123e3a"/>
            <path id="Trazado_874145" data-name="Trazado 874145" d="M321.3,907.548a26.845,26.845,0,0,1-7.553-1.083q-.342-.1-.682-.211a.478.478,0,1,1,.294-.909,25.706,25.706,0,0,0,5.319,1.115,25.329,25.329,0,0,0,17.368-4.594q.684-.487,1.341-1.024a25.356,25.356,0,0,0,9.256-17.2,25.523,25.523,0,1,0-48.508,8.258.478.478,0,0,1-.229.635.478.478,0,0,1-.636-.229,26.48,26.48,0,1,1,50.459-11.261,26.752,26.752,0,0,1-.136,2.693A26.484,26.484,0,0,1,321.3,907.548" transform="translate(-223.637 -648.364)" fill="#123e3a"/>
            <path id="Trazado_874146" data-name="Trazado 874146" d="M716.859,621.9l4.729-2.179a22.673,22.673,0,0,0,6.725,2.96l1.589,4.954a.428.428,0,0,0,.4.3l6.243.135a.428.428,0,0,0,.411-.279l1.8-4.881a22.68,22.68,0,0,0,6.846-2.667l4.63,2.381a.427.427,0,0,0,.491-.071l4.51-4.319a.427.427,0,0,0,.093-.488l-2.178-4.728a22.68,22.68,0,0,0,2.96-6.725l4.954-1.589a.428.428,0,0,0,.3-.4l.135-6.244a.427.427,0,0,0-.279-.41l-4.881-1.8A22.676,22.676,0,0,0,753.667,589l2.381-4.63a.428.428,0,0,0-.071-.491l-4.319-4.51a.428.428,0,0,0-.488-.093l-4.728,2.179a22.673,22.673,0,0,0-6.725-2.96l-1.59-4.954a.427.427,0,0,0-.4-.3l-6.244-.135a.428.428,0,0,0-.41.279l-1.8,4.881a22.678,22.678,0,0,0-6.847,2.667l-4.63-2.381a.428.428,0,0,0-.492.072l-4.51,4.319a.428.428,0,0,0-.093.488l2.179,4.728a22.676,22.676,0,0,0-2.96,6.725l-4.954,1.59a.427.427,0,0,0-.3.4l-.135,6.243a.428.428,0,0,0,.279.411l4.881,1.8a22.683,22.683,0,0,0,2.667,6.846l-2.381,4.63a.428.428,0,0,0,.071.492l4.319,4.51a.428.428,0,0,0,.488.093" transform="translate(-536.038 -434.808)" fill="#6cdfd4"/>
            <path id="Trazado_874147" data-name="Trazado 874147" d="M801.473,674.069a6.03,6.03,0,1,1,1.348-.154,6.033,6.033,0,0,1-1.348.154m0-11.091a5.068,5.068,0,1,0,4.938,3.934,5.07,5.07,0,0,0-4.938-3.934" transform="translate(-603.498 -502.267)" fill="#123e3a"/>
            <g id="Grupo_1101050" data-name="Grupo 1101050" transform="translate(163.298 131.1)" opacity="0.64">
              <g id="Grupo_1101049" data-name="Grupo 1101049">
                <g id="Grupo_1101048" data-name="Grupo 1101048" clip-path="url(#clip-path-28)">
                  <path id="Trazado_874148" data-name="Trazado 874148" d="M697.449,755.372a1.194,1.194,0,0,1-1-.54c-.359-.548-.708-1.115-1.036-1.685a1.194,1.194,0,1,1,2.069-1.193c.306.531.63,1.058.965,1.568a1.194,1.194,0,0,1-1,1.849" transform="translate(-690.777 -701.144)" fill="#91b3fa"/>
                  <path id="Trazado_874149" data-name="Trazado 874149" d="M679.734,590.069a1.2,1.2,0,0,1-1.129-.806,35.158,35.158,0,0,1-1.014-3.55l-.083-.368a1.194,1.194,0,0,1,2.334-.507l.077.342a32.783,32.783,0,0,0,.944,3.308,1.195,1.195,0,0,1-1.129,1.582m-1.826-10.117a1.194,1.194,0,0,1-1.193-1.164q-.011-.432-.011-.863c0-1.065.05-2.144.149-3.205a1.194,1.194,0,0,1,2.378.222c-.092.988-.139,1.992-.139,2.983q0,.4.01.8a1.194,1.194,0,0,1-1.164,1.224h-.031m1.335-10.192a1.195,1.195,0,0,1-1.146-1.53,34.849,34.849,0,0,1,1.372-3.831,1.194,1.194,0,1,1,2.2.936,32.536,32.536,0,0,0-1.278,3.568,1.2,1.2,0,0,1-1.145.859m4.367-9.305a1.195,1.195,0,0,1-.99-1.861,34.947,34.947,0,0,1,2.464-3.237,1.194,1.194,0,0,1,1.812,1.556,32.474,32.474,0,0,0-2.295,3.014,1.193,1.193,0,0,1-.992.528m6.975-7.548a1.194,1.194,0,0,1-.743-2.13,34.579,34.579,0,0,1,3.329-2.336,1.194,1.194,0,0,1,1.254,2.033,32.079,32.079,0,0,0-3.1,2.174,1.189,1.189,0,0,1-.742.259m8.937-5.067a1.194,1.194,0,0,1-.422-2.312,34.976,34.976,0,0,1,3.883-1.212,1.194,1.194,0,0,1,.577,2.317,32.6,32.6,0,0,0-3.617,1.129,1.191,1.191,0,0,1-.422.077m13.988-2.109-.077,0a32.2,32.2,0,0,0-3.788-.015,1.194,1.194,0,0,1-.131-2.385,34.6,34.6,0,0,1,4.071.016,1.194,1.194,0,0,1-.074,2.386" transform="translate(-676.704 -543.276)" fill="#91b3fa"/>
                  <path id="Trazado_874150" data-name="Trazado 874150" d="M853.49,550.687a1.184,1.184,0,0,1-.368-.058c-.584-.189-1.178-.363-1.768-.517a1.194,1.194,0,0,1,.6-2.31c.633.166,1.272.352,1.9.555a1.194,1.194,0,0,1-.367,2.331" transform="translate(-808.532 -546.679)" fill="#91b3fa"/>
                </g>
              </g>
            </g>
            <g id="Grupo_1101053" data-name="Grupo 1101053" transform="translate(185.038 148.661)" opacity="0.64">
              <g id="Grupo_1101052" data-name="Grupo 1101052">
                <g id="Grupo_1101051" data-name="Grupo 1101051" clip-path="url(#clip-path-29)">
                  <path id="Trazado_874151" data-name="Trazado 874151" d="M939.587,620.146a1.194,1.194,0,0,1-1.082-.688c-.26-.555-.538-1.108-.828-1.645a1.194,1.194,0,0,1,2.1-1.135c.312.577.611,1.171.89,1.767a1.195,1.195,0,0,1-1.081,1.7" transform="translate(-896.331 -616.051)" fill="#91b3fa"/>
                  <path id="Trazado_874152" data-name="Trazado 874152" d="M804.866,691.79h-.126a34.486,34.486,0,0,1-3.876-.22,1.194,1.194,0,0,1,.27-2.373,32.123,32.123,0,0,0,3.614.2h.1a1.194,1.194,0,1,1,.015,2.388m6.237-.61a1.194,1.194,0,0,1-.224-2.367q.561-.107,1.122-.237c.84-.193,1.678-.421,2.493-.677a1.194,1.194,0,1,1,.716,2.278c-.874.275-1.774.519-2.674.726q-.6.139-1.205.255a1.194,1.194,0,0,1-.227.022m9.532-3.381a1.194,1.194,0,0,1-.566-2.247,32.215,32.215,0,0,0,3.175-1.95,1.194,1.194,0,1,1,1.366,1.959,34.642,34.642,0,0,1-3.411,2.1,1.188,1.188,0,0,1-.564.142m8.076-6.081a1.194,1.194,0,0,1-.854-2.029,32.415,32.415,0,0,0,2.445-2.811,1.194,1.194,0,1,1,1.889,1.461,34.8,34.8,0,0,1-2.626,3.019,1.19,1.19,0,0,1-.854.36m5.895-8.214a1.195,1.195,0,0,1-1.063-1.737,32.535,32.535,0,0,0,1.5-3.413,1.194,1.194,0,1,1,2.238.834,34.945,34.945,0,0,1-1.611,3.664,1.194,1.194,0,0,1-1.065.652m3.187-9.6a1.223,1.223,0,0,1-.2-.017,1.2,1.2,0,0,1-.977-1.377,32.156,32.156,0,0,0,.41-3.705,1.194,1.194,0,1,1,2.385.124,34.6,34.6,0,0,1-.44,3.981,1.2,1.2,0,0,1-1.176.994m.157-10.112a1.2,1.2,0,0,1-1.181-1.032c-.132-.959-.309-1.925-.526-2.872q-.091-.4-.191-.788a1.194,1.194,0,1,1,2.314-.59q.107.42.2.845c.234,1.016.423,2.053.564,3.082a1.194,1.194,0,0,1-1.021,1.345,1.223,1.223,0,0,1-.164.011" transform="translate(-791.839 -639.994)" fill="#91b3fa"/>
                  <path id="Trazado_874153" data-name="Trazado 874153" d="M769.8,814.971a1.192,1.192,0,0,1-.356-.054c-.625-.195-1.255-.411-1.871-.642a1.194,1.194,0,1,1,.84-2.236c.573.215,1.159.416,1.741.6a1.194,1.194,0,0,1-.355,2.334" transform="translate(-766.795 -764.686)" fill="#91b3fa"/>
                </g>
              </g>
            </g>
            <path id="Trazado_874154" data-name="Trazado 874154" d="M771.543,653.652c-.115,0-.229,0-.345,0h0a15.665,15.665,0,0,1-3.283-.42.478.478,0,0,1,.222-.929,14.6,14.6,0,0,0,17.985-13.878c0-.106,0-.212,0-.317a14.591,14.591,0,0,0-29.178-.313q0,.159,0,.318a14.563,14.563,0,0,0,1.909,7.217.478.478,0,1,1-.83.474,15.519,15.519,0,0,1-2.034-7.691c0-.112,0-.225,0-.338a15.546,15.546,0,0,1,31.089.333q0,.169,0,.338a15.547,15.547,0,0,1-15.534,15.21" transform="translate(-573.558 -472.328)" fill="#123e3a"/>
            <g id="Grupo_1101056" data-name="Grupo 1101056" transform="translate(115.415 153.55)" opacity="0.64">
              <g id="Grupo_1101055" data-name="Grupo 1101055">
                <g id="Grupo_1101054" data-name="Grupo 1101054" clip-path="url(#clip-path-30)">
                  <path id="Trazado_874155" data-name="Trazado 874155" d="M481.587,755.612a.478.478,0,0,1-.458-.344q-.171-.583-.313-1.178a.478.478,0,0,1,.929-.221q.136.571.3,1.13a.478.478,0,0,1-.458.612" transform="translate(-480.194 -725.223)" fill="#91b3fa"/>
                  <path id="Trazado_874156" data-name="Trazado 874156" d="M478.941,663.231a.478.478,0,0,1-.473-.416,23.394,23.394,0,0,1-.188-2.4.478.478,0,0,1,.955-.026,22.509,22.509,0,0,0,.18,2.3.478.478,0,0,1-.412.536.491.491,0,0,1-.063,0m-.128-4.7h-.036a.477.477,0,0,1-.441-.512,23.792,23.792,0,0,1,.3-2.383.478.478,0,0,1,.941.167,22.82,22.82,0,0,0-.287,2.287.478.478,0,0,1-.476.442m.821-4.628a.468.468,0,0,1-.132-.019.478.478,0,0,1-.328-.59,23.494,23.494,0,0,1,.778-2.274.478.478,0,0,1,.887.356,22.389,22.389,0,0,0-.747,2.181.478.478,0,0,1-.459.346m1.75-4.364a.478.478,0,0,1-.422-.7,23.342,23.342,0,0,1,1.228-2.066.478.478,0,1,1,.795.529,22.593,22.593,0,0,0-1.177,1.981.478.478,0,0,1-.423.255m2.607-3.913a.478.478,0,0,1-.368-.782,23.627,23.627,0,0,1,1.622-1.772.478.478,0,0,1,.671.68,22.761,22.761,0,0,0-1.556,1.7.477.477,0,0,1-.368.174m3.347-3.3a.478.478,0,0,1-.3-.85,23.62,23.62,0,0,1,1.947-1.407.478.478,0,0,1,.519.8,22.561,22.561,0,0,0-1.868,1.35.478.478,0,0,1-.3.105m3.945-2.555a.478.478,0,0,1-.218-.9,23.654,23.654,0,0,1,2.192-.982.478.478,0,0,1,.345.891,22.512,22.512,0,0,0-2.1.941.479.479,0,0,1-.217.052m20.448-.21a.479.479,0,0,1-.208-.048,22.424,22.424,0,0,0-2.123-.9.478.478,0,0,1,.326-.9,23.425,23.425,0,0,1,2.214.935.478.478,0,0,1-.209.908m-16.066-1.487a.478.478,0,0,1-.125-.939,23.373,23.373,0,0,1,2.347-.512.478.478,0,1,1,.155.943,22.353,22.353,0,0,0-2.251.491.483.483,0,0,1-.126.017m11.647-.117a.472.472,0,0,1-.117-.014,22.579,22.579,0,0,0-2.262-.444.478.478,0,0,1,.136-.946,23.664,23.664,0,0,1,2.358.462.478.478,0,0,1-.115.941m-7.009-.647a.478.478,0,0,1-.028-.954,23.636,23.636,0,0,1,2.4-.022.478.478,0,1,1-.039.954,22.966,22.966,0,0,0-2.305.021H500.3" transform="translate(-478.28 -636.311)" fill="#91b3fa"/>
                  <path id="Trazado_874157" data-name="Trazado 874157" d="M625.032,652.183a.474.474,0,0,1-.272-.086q-.479-.333-.976-.642a.478.478,0,0,1,.5-.812q.518.322,1.018.669a.478.478,0,0,1-.273.87" transform="translate(-588.5 -647.131)" fill="#91b3fa"/>
                </g>
              </g>
            </g>
            <g id="Grupo_1101059" data-name="Grupo 1101059" transform="translate(124.416 171.934)" opacity="0.64">
              <g id="Grupo_1101058" data-name="Grupo 1101058">
                <g id="Grupo_1101057" data-name="Grupo 1101057" clip-path="url(#clip-path-31)">
                  <path id="Trazado_874158" data-name="Trazado 874158" d="M667.379,714.624a.478.478,0,0,1-.472-.407q-.086-.58-.2-1.151a.478.478,0,1,1,.936-.19c.081.4.152.8.211,1.2a.478.478,0,0,1-.4.543.5.5,0,0,1-.071.005" transform="translate(-630.229 -712.493)" fill="#91b3fa"/>
                  <path id="Trazado_874159" data-name="Trazado 874159" d="M539.344,751.944c-.542,0-1.094-.019-1.641-.057q-.312-.021-.622-.051a.478.478,0,1,1,.091-.951q.3.028.6.049c.525.036,1.056.054,1.576.054h.093a.478.478,0,1,1,.007.955Zm2.407-.126a.478.478,0,0,1-.049-.953,22.444,22.444,0,0,0,2.239-.351.478.478,0,0,1,.2.935,23.345,23.345,0,0,1-2.336.366l-.05,0m-6.916-.314a.47.47,0,0,1-.093-.009,23.428,23.428,0,0,1-2.293-.576.478.478,0,1,1,.279-.914,22.427,22.427,0,0,0,2.2.552.478.478,0,0,1-.092.946m11.443-.633a.478.478,0,0,1-.145-.933,22.483,22.483,0,0,0,2.122-.8.478.478,0,0,1,.38.877,23.5,23.5,0,0,1-2.212.829.49.49,0,0,1-.145.022m-15.868-.719a.476.476,0,0,1-.185-.037,23.362,23.362,0,0,1-2.13-1.026.478.478,0,0,1,.458-.839,22.293,22.293,0,0,0,2.043.984.478.478,0,0,1-.186.918m20.11-1.121a.478.478,0,0,1-.234-.894,22.611,22.611,0,0,0,1.92-1.206.478.478,0,0,1,.548.783c-.644.45-1.317.873-2,1.256a.476.476,0,0,1-.233.061m3.788-2.652a.478.478,0,0,1-.312-.84,22.674,22.674,0,0,0,1.642-1.564.478.478,0,0,1,.693.658,23.609,23.609,0,0,1-1.711,1.63.475.475,0,0,1-.311.116m3.184-3.354a.478.478,0,0,1-.377-.77,22.548,22.548,0,0,0,1.3-1.86.478.478,0,0,1,.81.506,23.443,23.443,0,0,1-1.351,1.939.477.477,0,0,1-.378.185m2.449-3.924a.478.478,0,0,1-.428-.688,22.44,22.44,0,0,0,.9-2.083.478.478,0,1,1,.9.332,23.338,23.338,0,0,1-.933,2.173.477.477,0,0,1-.429.267m1.609-4.337a.493.493,0,0,1-.12-.015.478.478,0,0,1-.343-.583,22.549,22.549,0,0,0,.457-2.22.478.478,0,1,1,.944.145,23.486,23.486,0,0,1-.476,2.315.478.478,0,0,1-.462.358m.7-4.57h-.026a.478.478,0,0,1-.452-.5c.021-.4.032-.81.032-1.212q0-.531-.025-1.056a.478.478,0,1,1,.954-.045q.026.548.026,1.1c0,.418-.011.843-.034,1.263a.478.478,0,0,1-.477.452" transform="translate(-524.886 -723.44)" fill="#91b3fa"/>
                  <path id="Trazado_874160" data-name="Trazado 874160" d="M517.022,808.731a.473.473,0,0,1-.27-.084c-.332-.228-.664-.469-.986-.716a.478.478,0,0,1,.581-.758q.463.355.945.687a.478.478,0,0,1-.271.871" transform="translate(-515.579 -784.25)" fill="#91b3fa"/>
                </g>
              </g>
            </g>
            <path id="Trazado_874161" data-name="Trazado 874161" d="M507.134,689.533a.275.275,0,0,0,.309.084l3.149-1.158a14.618,14.618,0,0,0,4.169,2.245l.768,3.263a.276.276,0,0,0,.241.211l4,.406a.276.276,0,0,0,.278-.159l1.407-3.043a14.615,14.615,0,0,0,4.534-1.363l2.852,1.766a.276.276,0,0,0,.32-.021l3.118-2.544a.275.275,0,0,0,.084-.309l-1.158-3.149a14.612,14.612,0,0,0,2.245-4.169l3.264-.768a.276.276,0,0,0,.211-.241l.406-4a.275.275,0,0,0-.159-.278L534.13,674.9a14.605,14.605,0,0,0-1.363-4.534l1.766-2.853a.276.276,0,0,0-.021-.32l-2.544-3.117a.276.276,0,0,0-.309-.084l-3.149,1.158a14.611,14.611,0,0,0-4.168-2.245l-.768-3.264a.275.275,0,0,0-.24-.211l-4-.405a.275.275,0,0,0-.278.159l-1.407,3.043a14.607,14.607,0,0,0-4.534,1.363l-2.853-1.766a.275.275,0,0,0-.319.021l-3.118,2.544a.276.276,0,0,0-.084.309l1.158,3.149a14.617,14.617,0,0,0-2.245,4.168l-3.264.768a.275.275,0,0,0-.211.24l-.406,4a.276.276,0,0,0,.159.278l3.043,1.407a14.622,14.622,0,0,0,1.363,4.534l-1.766,2.853a.275.275,0,0,0,.021.319Z" transform="translate(-380.685 -499.99)" fill="#6cdfd4"/>
            <path id="Trazado_874162" data-name="Trazado 874162" d="M562.719,724.027a4.053,4.053,0,1,1,.593-.044h0a4.066,4.066,0,0,1-.593.044m0-7.147a3.116,3.116,0,0,0-.453.033,3.094,3.094,0,1,0,.453-.033" transform="translate(-423.855 -543.163)" fill="#123e3a"/>
            <path id="Trazado_874163" data-name="Trazado 874163" d="M543.691,710.622a10.3,10.3,0,0,1-1.034-.052h0a10.284,10.284,0,0,1-2.122-.445.478.478,0,1,1,.294-.909,9.316,9.316,0,0,0,1.925.4l.1.009a9.235,9.235,0,0,0,9.994-8.035q.015-.114.026-.229a9.361,9.361,0,0,0,.048-.939,9.233,9.233,0,1,0-17.594,3.926.478.478,0,0,1-.229.636.478.478,0,0,1-.636-.229,10.16,10.16,0,0,1-.962-4.317,10.31,10.31,0,0,1,.052-1.034,10.188,10.188,0,1,1,10.143,11.215" transform="translate(-404.756 -523.68)" fill="#123e3a"/>
          </g>
        </g>
        <g id="Grupo_1101063" data-name="Grupo 1101063" transform="translate(222.75 224.682)">
          <g id="Grupo_1101062" data-name="Grupo 1101062" clip-path="url(#clip-path-32)">
            <rect id="Rectángulo_401927" data-name="Rectángulo 401927" width="14.616" height="13.38" transform="translate(-3.238 1.222) rotate(-20.674)" fill="url(#linear-gradient-19)"/>
          </g>
        </g>
        <g id="Grupo_1101065" data-name="Grupo 1101065" transform="translate(230.778 211.572)">
          <g id="Grupo_1101064" data-name="Grupo 1101064" clip-path="url(#clip-path-33)">
            <rect id="Rectángulo_401928" data-name="Rectángulo 401928" width="22.065" height="21.488" transform="matrix(0.673, -0.739, 0.739, 0.673, -9.854, 10.818)" fill="url(#linear-gradient-20)"/>
          </g>
        </g>
        <g id="Grupo_1101067" data-name="Grupo 1101067" transform="translate(240.263 295.889)">
          <g id="Grupo_1101066" data-name="Grupo 1101066" clip-path="url(#clip-path-34)">
            <rect id="Rectángulo_401929" data-name="Rectángulo 401929" width="13.583" height="5.805" transform="translate(0)" fill="url(#linear-gradient-21)"/>
          </g>
        </g>
        <g id="Grupo_1101069" data-name="Grupo 1101069" transform="translate(240.051 300.141)">
          <g id="Grupo_1101068" data-name="Grupo 1101068" clip-path="url(#clip-path-35)">
            <rect id="Rectángulo_401930" data-name="Rectángulo 401930" width="14.097" height="2.708" transform="translate(-0.216 0.002) rotate(-1.522)" fill="url(#linear-gradient-22)"/>
          </g>
        </g>
        <g id="Grupo_1101071" data-name="Grupo 1101071" transform="translate(271.719 296.035)">
          <g id="Grupo_1101070" data-name="Grupo 1101070" clip-path="url(#clip-path-36)">
            <rect id="Rectángulo_401931" data-name="Rectángulo 401931" width="6.595" height="7.403" transform="translate(-1.01 5.333) rotate(-79.624)" fill="url(#linear-gradient-23)"/>
          </g>
        </g>
        <g id="Grupo_1101073" data-name="Grupo 1101073" transform="translate(271.911 301.326)">
          <g id="Grupo_1101072" data-name="Grupo 1101072" clip-path="url(#clip-path-37)">
            <rect id="Rectángulo_401932" data-name="Rectángulo 401932" width="0.973" height="6.305" transform="matrix(0.022, -1, 1, 0.022, -0.019, 0.832)" fill="url(#linear-gradient-24)"/>
          </g>
        </g>
        <g id="Grupo_1101075" data-name="Grupo 1101075" transform="translate(271.254 290.612)">
          <g id="Grupo_1101074" data-name="Grupo 1101074" clip-path="url(#clip-path-38)">
            <rect id="Rectángulo_401933" data-name="Rectángulo 401933" width="4.261" height="7.447" transform="translate(0 0)" fill="url(#linear-gradient-25)"/>
          </g>
        </g>
        <g id="Grupo_1101077" data-name="Grupo 1101077" transform="translate(249.681 291.271)">
          <g id="Grupo_1101076" data-name="Grupo 1101076" clip-path="url(#clip-path-39)">
            <rect id="Rectángulo_401934" data-name="Rectángulo 401934" width="3.643" height="5.556" transform="translate(0)" fill="url(#linear-gradient-26)"/>
          </g>
        </g>
        <g id="Grupo_1101079" data-name="Grupo 1101079" transform="translate(243.439 241.228)">
          <g id="Grupo_1101078" data-name="Grupo 1101078" clip-path="url(#clip-path-40)">
            <rect id="Rectángulo_401935" data-name="Rectángulo 401935" width="61.63" height="54.219" transform="matrix(0.501, -0.866, 0.866, 0.501, -22.767, 39.381)" fill="url(#linear-gradient-27)"/>
          </g>
        </g>
        <g id="Grupo_1101081" data-name="Grupo 1101081" transform="translate(251.15 249.151)">
          <g id="Grupo_1101080" data-name="Grupo 1101080" clip-path="url(#clip-path-41)">
            <rect id="Rectángulo_401936" data-name="Rectángulo 401936" width="3.569" height="3.57" transform="matrix(0.791, -0.612, 0.612, 0.791, -1.254, 0.953)" fill="url(#linear-gradient-28)"/>
          </g>
        </g>
        <g id="Grupo_1101083" data-name="Grupo 1101083" transform="translate(232.81 200.988)">
          <g id="Grupo_1101082" data-name="Grupo 1101082" clip-path="url(#clip-path-42)">
            <rect id="Rectángulo_401937" data-name="Rectángulo 401937" width="48.178" height="50.4" transform="matrix(0.772, -0.636, 0.636, 0.772, -22.117, 17.491)" fill="url(#linear-gradient-29)"/>
          </g>
        </g>
        <g id="Grupo_1101085" data-name="Grupo 1101085" transform="translate(238.145 192.397)">
          <g id="Grupo_1101084" data-name="Grupo 1101084" clip-path="url(#clip-path-43)">
            <rect id="Rectángulo_401938" data-name="Rectángulo 401938" width="9.029" height="12.399" transform="translate(-1.716 0.261) rotate(-8.702)" fill="url(#linear-gradient-30)"/>
          </g>
        </g>
        <g id="Grupo_1101087" data-name="Grupo 1101087" transform="translate(235.35 185.705)">
          <g id="Grupo_1101086" data-name="Grupo 1101086" clip-path="url(#clip-path-44)">
            <rect id="Rectángulo_401939" data-name="Rectángulo 401939" width="12.122" height="12.781" transform="translate(-1.763 0.135) rotate(-6.17)" fill="url(#linear-gradient-31)"/>
          </g>
        </g>
        <g id="Grupo_1101089" data-name="Grupo 1101089" transform="translate(235.026 180.804)">
          <g id="Grupo_1101088" data-name="Grupo 1101088" clip-path="url(#clip-path-45)">
            <rect id="Rectángulo_401940" data-name="Rectángulo 401940" width="20.04" height="20.234" transform="translate(-7.272 8.607) rotate(-52.163)" fill="url(#linear-gradient-32)"/>
          </g>
        </g>
        <g id="Grupo_1101091" data-name="Grupo 1101091" transform="translate(242.802 190.215)">
          <g id="Grupo_1101090" data-name="Grupo 1101090" clip-path="url(#clip-path-46)">
            <rect id="Rectángulo_401941" data-name="Rectángulo 401941" width="3.668" height="3.797" transform="matrix(0.994, -0.107, 0.107, 0.994, -0.37, 0.04)" fill="url(#linear-gradient-33)"/>
          </g>
        </g>
        <g id="Grupo_1101093" data-name="Grupo 1101093">
          <g id="Grupo_1101092" data-name="Grupo 1101092" clip-path="url(#clip-path-3)">
            <path id="Trazado_874179" data-name="Trazado 874179" d="M921.929,938.605l-79.065-16.392-2,7.906,77.358,23.146q.258.078.521.144l2.638.667c4.527,1.144,8.822-.4,9.594-3.455l.917-3.629c.771-3.053-2.273-6.454-6.8-7.6l-2.638-.667q-.262-.066-.527-.121m4.635,8.97c-.512,2.025-3.69,2.969-7.1,2.107s-5.756-3.2-5.244-5.227,3.69-2.969,7.1-2.107,5.756,3.2,5.245,5.227" transform="translate(-637.954 -699.671)" fill="#91b3fa"/>
            <path id="Trazado_874180" data-name="Trazado 874180" d="M718.97,850.764l15.308,3.869a3.624,3.624,0,0,1,2.437,2.073l2.29,5.288a3.623,3.623,0,0,1-1.084,4.287l-4.528,3.564a3.624,3.624,0,0,1-3.129.666l-15.308-3.87a2.785,2.785,0,0,0-3.181,3.944A20.841,20.841,0,0,0,725.26,881.2c11.008,2.783,20.751-3.887,23.427-14.476s-2.727-21.086-13.735-23.869a20.84,20.84,0,0,0-16.907,2.93,2.785,2.785,0,0,0,.925,4.981" transform="translate(-539.78 -638.964)" fill="#91b3fa"/>
            <path id="Trazado_874181" data-name="Trazado 874181" d="M717.458,856.743l15.308,3.869a3.624,3.624,0,0,1,2.437,2.073l2.29,5.288a3.623,3.623,0,0,1-1.084,4.287l-4.528,3.564a3.623,3.623,0,0,1-3.129.666l-15.308-3.869a2.785,2.785,0,0,0-3.18,3.944,20.841,20.841,0,0,0,13.484,10.612c11.008,2.783,20.751-3.887,23.427-14.476s-2.727-21.086-13.735-23.869a20.841,20.841,0,0,0-16.907,2.93,2.785,2.785,0,0,0,.925,4.981" transform="translate(-538.633 -643.5)" fill="#bdd0fb"/>
            <path id="Trazado_874182" data-name="Trazado 874182" d="M920.723,943.374l-79.065-16.392-2,7.906,77.358,23.146q.259.078.521.144l2.638.667c4.527,1.144,8.822-.4,9.594-3.455l.917-3.629c.772-3.053-2.273-6.454-6.8-7.6l-2.638-.667q-.262-.066-.527-.121m4.635,8.97c-.512,2.025-3.69,2.969-7.1,2.107s-5.756-3.2-5.244-5.227,3.69-2.969,7.1-2.107,5.756,3.2,5.244,5.227" transform="translate(-637.039 -703.289)" fill="#bdd0fb"/>
          </g>
        </g>
        <g id="Grupo_1101095" data-name="Grupo 1101095" transform="translate(264.696 223.442)">
          <g id="Grupo_1101094" data-name="Grupo 1101094" clip-path="url(#clip-path-48)">
            <rect id="Rectángulo_401943" data-name="Rectángulo 401943" width="12.319" height="14.733" transform="matrix(0.875, -0.485, 0.485, 0.875, -5.53, 3.064)" fill="url(#linear-gradient-34)"/>
          </g>
        </g>
        <g id="Grupo_1101097" data-name="Grupo 1101097" transform="translate(252.422 201.275)">
          <g id="Grupo_1101096" data-name="Grupo 1101096" clip-path="url(#clip-path-49)">
            <rect id="Rectángulo_401944" data-name="Rectángulo 401944" width="28.794" height="29.42" transform="translate(-11.291 9.303) rotate(-39.506)" fill="url(#linear-gradient-35)"/>
          </g>
        </g>
        <g id="Grupo_1101099" data-name="Grupo 1101099" transform="translate(215.678 232.856)">
          <g id="Grupo_1101098" data-name="Grupo 1101098" clip-path="url(#clip-path-50)">
            <rect id="Rectángulo_401945" data-name="Rectángulo 401945" width="8.767" height="7.369" transform="matrix(0.936, -0.353, 0.353, 0.936, -2.061, 0.631)" fill="url(#linear-gradient-36)"/>
          </g>
        </g>
        <g id="Grupo_1101101" data-name="Grupo 1101101" transform="translate(262.506 234.483)">
          <g id="Grupo_1101100" data-name="Grupo 1101100" clip-path="url(#clip-path-51)">
            <rect id="Rectángulo_401946" data-name="Rectángulo 401946" width="12.367" height="13.068" transform="matrix(0.875, -0.485, 0.485, 0.875, -4.347, 2.409)" fill="url(#linear-gradient-37)"/>
          </g>
        </g>
        <g id="Grupo_1101103" data-name="Grupo 1101103">
          <g id="Grupo_1101102" data-name="Grupo 1101102" clip-path="url(#clip-path-3)">
            <path id="Trazado_874187" data-name="Trazado 874187" d="M80.033,498.366H2.981a2.982,2.982,0,0,1,0-5.963H80.033a2.982,2.982,0,0,1,0,5.963" transform="translate(0 -373.58)" fill="#91b3fa"/>
            <path id="Trazado_874188" data-name="Trazado 874188" d="M118.4,546.764H41.347a2.982,2.982,0,0,1,0-5.963H118.4a2.982,2.982,0,0,1,0,5.963" transform="translate(-29.108 -410.299)" fill="#91b3fa"/>
            <path id="Trazado_874189" data-name="Trazado 874189" d="M96.488,643.561H41.347a2.982,2.982,0,0,1,0-5.963H96.488a2.982,2.982,0,0,1,0,5.963" transform="translate(-29.108 -483.737)" fill="#91b3fa"/>
            <path id="Trazado_874190" data-name="Trazado 874190" d="M154.207,595.163H77.155a2.982,2.982,0,0,1,0-5.963h77.052a2.982,2.982,0,0,1,0,5.963" transform="translate(-56.275 -447.018)" fill="#91b3fa"/>
          </g>
        </g>
      </g>
    </g>
  </g>
</svg>
