<svg xmlns="http://www.w3.org/2000/svg" xmlns:xlink="http://www.w3.org/1999/xlink" width="124" height="124" viewBox="0 0 124 124">
  <defs>
    <clipPath id="clip-path">
      <rect id="Rectángulo_401845" data-name="Rectángulo 401845" width="64.211" height="64.357" fill="#231291"/>
    </clipPath>
  </defs>
  <g id="banner-principal-decorativo-1" transform="translate(-915.5 -132)">
    <circle id="banner-principal-decorativo-1-2" data-name="banner-principal-decorativo-1" cx="62" cy="62" r="62" transform="translate(915.5 132)" fill="#cbc4f8"/>
    <g id="Grupo_1101684" data-name="Grupo 1101684">
      <g id="Grupo_1100914" data-name="Grupo 1100914" transform="translate(945.395 161.821)">
        <g id="Grupo_1100913" data-name="Grupo 1100913" clip-path="url(#clip-path)">
          <path id="Trazado_874019" data-name="Trazado 874019" d="M64.211,14.454H0V8.634C0,4.526,5.23-.035,9.291,0L55.3.023c3.921.156,8.913,4.62,8.913,8.611ZM11.743,7.2A1.8,1.8,0,1,0,9.946,9a1.8,1.8,0,0,0,1.8-1.8m8.063,0A1.806,1.806,0,1,0,18,9,1.805,1.805,0,0,0,19.806,7.2m8.048,0a1.8,1.8,0,1,0-1.8,1.8,1.8,1.8,0,0,0,1.8-1.8" transform="translate(0 0)" fill="#231291"/>
          <path id="Trazado_874020" data-name="Trazado 874020" d="M64.211,134.049V171.84c0,3.941-4.887,8.442-8.779,8.611l-46.274.024C5.123,180.5,0,175.9,0,171.84V134.049ZM19.767,142.5c-.931.127-1.636,1.2-2.24,1.783-1.668,1.6-3.268,3.227-4.883,4.883a20.683,20.683,0,0,0-2.267,2.281,1.839,1.839,0,0,0,.254,2.133c2.757,2.321,5.263,5.822,8.026,8.027,1.786,1.425,3.915-.246,2.907-2.1l-6.974-7.081c2.157-2.547,4.863-4.7,7-7.286a1.811,1.811,0,0,0-1.823-2.635m16.186,0a2.134,2.134,0,0,0-1.6,1.223c-2.883,4.991-5.047,10.854-7.893,15.918a1.8,1.8,0,0,0,3.211,1.607c2.2-5.354,6.034-10.809,8.072-16.141a2.358,2.358,0,0,0,.247-.826,1.927,1.927,0,0,0-2.041-1.78m8.027,0a1.8,1.8,0,0,0-1.36,2.635c2.157,2.545,4.72,4.744,7,7.189l-.116.253-6.9,7.011a1.8,1.8,0,0,0,2.887,2.084c2.32-2.757,5.824-5.264,8.027-8.026a1.8,1.8,0,0,0,.443-1.922c-.207-.666-2.614-2.774-3.259-3.429-1.326-1.347-2.64-2.7-4.013-4.013-.736-.706-1.487-1.949-2.7-1.783" transform="translate(0 -116.117)" fill="#231291"/>
        </g>
      </g>
    </g>
  </g>
</svg>
