<svg xmlns="http://www.w3.org/2000/svg" xmlns:xlink="http://www.w3.org/1999/xlink" width="139" height="139" viewBox="0 0 139 139">
  <defs>
    <clipPath id="clip-path">
      <rect id="Rectángulo_401124" data-name="Rectángulo 401124" width="79.045" height="79.046" fill="#123e3a"/>
    </clipPath>
    <clipPath id="clip-path-2">
      <rect id="Rectángulo_400938" data-name="Rectángulo 400938" width="139" height="139" transform="translate(-0.043 -0.043)" fill="none"/>
    </clipPath>
    <clipPath id="clip-path-3">
      <rect id="Rectángulo_401837" data-name="Rectángulo 401837" width="78.137" height="78.501" fill="#123e3a"/>
    </clipPath>
  </defs>
  <g id="img14" transform="translate(-318 -4886.881)">
    <g id="Grupo_1100810" data-name="Grupo 1100810" transform="translate(53.043 -397.076)">
      <g id="Grupo_1099585" data-name="Grupo 1099585" transform="translate(264.957 5283.957)">
        <g id="Grupo_1099472" data-name="Grupo 1099472" transform="translate(0 0)" clip-path="url(#clip-path)">
          <path id="Trazado_873498" data-name="Trazado 873498" d="M23.156,78.743q.49.4.991.773L79.516,24.147q-.378-.5-.773-.991Z" transform="translate(-8.429 -8.429)" fill="#123e3a"/>
          <path id="Trazado_873499" data-name="Trazado 873499" d="M44.424,93.595c.459.136.921.261,1.383.38L93.974,45.808c-.12-.462-.244-.924-.38-1.383Z" transform="translate(-16.17 -16.171)" fill="#123e3a"/>
          <path id="Trazado_873500" data-name="Trazado 873500" d="M29.485,83.9q.549.339,1.106.658L84.559,30.591q-.32-.557-.658-1.106Z" transform="translate(-10.733 -10.733)" fill="#123e3a"/>
          <path id="Trazado_873501" data-name="Trazado 873501" d="M36.544,88.859q.612.277,1.231.532L89.39,37.776q-.255-.619-.532-1.231Z" transform="translate(-13.302 -13.302)" fill="#123e3a"/>
          <path id="Trazado_873502" data-name="Trazado 873502" d="M53.3,98.058q.784.112,1.572.191L98.248,54.874c-.054-.525-.116-1.049-.191-1.572Z" transform="translate(-19.402 -19.402)" fill="#123e3a"/>
          <path id="Trazado_873503" data-name="Trazado 873503" d="M17.941,73.849c.148.148.3.291.446.436l55.9-55.9c-.145-.149-.288-.3-.436-.446s-.3-.291-.446-.435l-55.9,55.9c.144.149.287.3.435.446" transform="translate(-6.372 -6.372)" fill="#123e3a"/>
          <path id="Trazado_873504" data-name="Trazado 873504" d="M63.5,102.161q.924-.02,1.848-.084l36.726-36.726q.063-.923.083-1.847Z" transform="translate(-23.115 -23.116)" fill="#123e3a"/>
          <path id="Trazado_873505" data-name="Trazado 873505" d="M105.688,75.821,75.82,105.689q1.2-.268,2.375-.611L105.077,78.2q.343-1.179.611-2.375" transform="translate(-27.599 -27.599)" fill="#123e3a"/>
          <path id="Trazado_873506" data-name="Trazado 873506" d="M.084,36.81Q.021,37.733,0,38.658L38.657,0q-.924.02-1.848.084Z" transform="translate(0 0)" fill="#123e3a"/>
          <path id="Trazado_873507" data-name="Trazado 873507" d="M.313,43.687c.054.525.116,1.049.191,1.573L45.26.5Q44.475.392,43.687.313Z" transform="translate(-0.114 -0.114)" fill="#123e3a"/>
          <path id="Trazado_873508" data-name="Trazado 873508" d="M93.715,107.7A39.84,39.84,0,0,0,107.7,93.715Z" transform="translate(-34.112 -34.113)" fill="#123e3a"/>
          <path id="Trazado_873509" data-name="Trazado 873509" d="M2.113,29q-.342,1.179-.611,2.375L31.37,1.5q-1.194.268-2.375.611Z" transform="translate(-0.547 -0.547)" fill="#123e3a"/>
          <path id="Trazado_873510" data-name="Trazado 873510" d="M22.567,8.582A39.821,39.821,0,0,0,8.581,22.568Z" transform="translate(-3.124 -3.124)" fill="#123e3a"/>
          <path id="Trazado_873511" data-name="Trazado 873511" d="M8.207,62.176q.32.557.658,1.106L63.281,8.866q-.549-.339-1.106-.658Z" transform="translate(-2.987 -2.988)" fill="#123e3a"/>
          <path id="Trazado_873512" data-name="Trazado 873512" d="M12.512,67.882q.378.5.773.991L68.872,13.286q-.49-.4-.991-.773Z" transform="translate(-4.554 -4.555)" fill="#123e3a"/>
          <path id="Trazado_873513" data-name="Trazado 873513" d="M1.953,50.12c.119.463.244.925.38,1.384L51.5,2.334c-.459-.137-.921-.261-1.384-.38Z" transform="translate(-0.711 -0.711)" fill="#123e3a"/>
          <path id="Trazado_873514" data-name="Trazado 873514" d="M4.649,56.264q.255.619.532,1.231L57.5,5.181q-.612-.277-1.231-.532Z" transform="translate(-1.692 -1.692)" fill="#123e3a"/>
        </g>
      </g>
      <g id="Grupo_1099379" data-name="Grupo 1099379" transform="translate(265 5284)">
        <rect id="Rectángulo_401103" data-name="Rectángulo 401103" width="139" height="139" transform="translate(-0.043 -0.043)" fill="none"/>
        <path id="Trazado_873425" data-name="Trazado 873425" d="M57.977,0A57.977,57.977,0,1,1,0,57.977,57.977,57.977,0,0,1,57.977,0Z" transform="translate(17.221 20.665)" fill="#6cdfd4"/>
        <circle id="Elipse_11503" data-name="Elipse 11503" cx="60.5" cy="60.5" r="60.5" transform="translate(8.957 8.957)" fill="#fff"/>
      </g>
    </g>
    <g id="Grupo_1100906" data-name="Grupo 1100906" transform="translate(347.931 4917.131)">
      <g id="Grupo_1100905" data-name="Grupo 1100905" clip-path="url(#clip-path-3)">
        <path id="Trazado_873972" data-name="Trazado 873972" d="M88.2,251.534a1.529,1.529,0,0,1-.6,2.337c-1.307.376-4.691.268-3.805-1.835.486-1.153,3.863-1.049,4.41-.5" transform="translate(-63.179 -189.689)" fill="#123e3a"/>
        <path id="Trazado_873973" data-name="Trazado 873973" d="M150.418,58.282c.867-.249,3.427-.268,3.859.688.967,2.138-2.537,2.28-3.859,1.9a1.377,1.377,0,0,1,0-2.588" transform="translate(-112.929 -43.912)" fill="#123e3a"/>
        <path id="Trazado_873974" data-name="Trazado 873974" d="M78.67,18.455l0,55.084H64.456l0-55.084Zm-2.7,2.707H67.157V70.833h8.809Z" transform="translate(-48.682 -13.939)" fill="#123e3a"/>
        <path id="Trazado_873975" data-name="Trazado 873975" d="M.54,77.719l12.546.079.612.612.139,19.7-.5.968L.969,99.213,0,98.714V78.158ZM2.326,96.755h8.809V80.361H2.326Z" transform="translate(0 -58.702)" fill="#123e3a"/>
        <path id="Trazado_873976" data-name="Trazado 873976" d="M18.685,58.384c1.442-.332,4.9-.016,3.619,2.153-.385.652-3.4.64-4.033.358a1.34,1.34,0,0,1,.414-2.511" transform="translate(-13.248 -44.014)" fill="#123e3a"/>
        <path id="Trazado_873977" data-name="Trazado 873977" d="M18.685,173.384c1.442-.332,4.9-.016,3.619,2.153-.385.652-3.4.64-4.033.358a1.34,1.34,0,0,1,.414-2.511" transform="translate(-13.248 -130.875)" fill="#123e3a"/>
        <path id="Trazado_873978" data-name="Trazado 873978" d="M144.662,77.455l0,55.084h-14.22l0-55.084Zm-2.7,2.707h-8.809v49.671h8.809Z" transform="translate(-98.525 -58.503)" fill="#123e3a"/>
        <path id="Trazado_873979" data-name="Trazado 873979" d="M150.346,310.253c1.286-.37,4.915-.2,3.866,1.908-.338.678-3.67.667-4.285.366-.9-.441-.516-2,.419-2.274" transform="translate(-112.856 -234.222)" fill="#123e3a"/>
        <path id="Trazado_873980" data-name="Trazado 873980" d="M88.176,2.271c-.572.574-4.851.855-4.549-1.23C83.808-.21,86.9-.1,87.818.176c.828.245.844,1.607.358,2.094" transform="translate(-63.153 0)" fill="#123e3a"/>
        <path id="Trazado_873981" data-name="Trazado 873981" d="M263.374,51.137c3.684.218,8.1-.471,11.7-.056.454.052,1.138.169,1.3.656l-.081,39.477-.54.439-12.8-.072-.439-.54-.062-38.623a1.451,1.451,0,0,1,.921-1.281m10.592,2.64h-8.809V89.011h8.809Z" transform="translate(-198.235 -38.479)" fill="#123e3a"/>
        <path id="Trazado_873982" data-name="Trazado 873982" d="M282.293,32.29c.9-.258,3.335-.248,3.805.742,1.215,2.561-4.323,2.271-4.674,1.245a1.6,1.6,0,0,1,.869-1.987" transform="translate(-212.505 -24.282)" fill="#123e3a"/>
        <path id="Trazado_873983" data-name="Trazado 873983" d="M282.273,225.281c1.264-.362,4.87-.158,3.865,1.907-.462.949-3.411.934-4.226.553-1.024-.48-.6-2.185.361-2.46" transform="translate(-212.485 -170.049)" fill="#123e3a"/>
        <path id="Trazado_873984" data-name="Trazado 873984" d="M216.816,199.512c1.386-.252,4.374.006,3.216,1.988-.611,1.046-4.2,1.019-4.575-.266-.312-1.071.4-1.548,1.359-1.722" transform="translate(-162.682 -150.634)" fill="#123e3a"/>
        <path id="Trazado_873985" data-name="Trazado 873985" d="M207.929,21.229h-8.809V58.421h8.809V32.362a1.351,1.351,0,0,1,2.677.259l-.038,27.339a1.462,1.462,0,0,1-1.281.921,79.016,79.016,0,0,1-11.279,0c-1.363-.115-1.475-.227-1.59-1.59l-.005-39.175a1.44,1.44,0,0,1,1.123-1.569l12.351.115a1.93,1.93,0,0,1,.739,1.463,51.184,51.184,0,0,1-.058,8.028,1.339,1.339,0,0,1-2.639.052Z" transform="translate(-148.347 -14.007)" fill="#123e3a"/>
        <path id="Trazado_873986" data-name="Trazado 873986" d="M215.745,2.271c-.486-.488-.47-1.849.358-2.094.918-.272,4.01-.386,4.191.864.3,2.085-3.977,1.8-4.549,1.23" transform="translate(-162.711 0)" fill="#123e3a"/>
      </g>
    </g>
  </g>
</svg>
