<svg xmlns="http://www.w3.org/2000/svg" xmlns:xlink="http://www.w3.org/1999/xlink" width="139" height="139" viewBox="0 0 139 139">
  <defs>
    <clipPath id="clip-path">
      <rect id="Rectángulo_401162" data-name="Rectángulo 401162" width="79.045" height="79.046" fill="#231291"/>
    </clipPath>
    <clipPath id="clip-path-2">
      <rect id="Rectángulo_400938" data-name="Rectángulo 400938" width="139" height="139" transform="translate(-0.043 -0.043)" fill="none"/>
    </clipPath>
    <clipPath id="clip-path-3">
      <rect id="Rectángulo_401841" data-name="Rectángulo 401841" width="73.139" height="73.192" fill="#123e3a"/>
    </clipPath>
  </defs>
  <g id="img16" transform="translate(-1150 -4886.881)">
    <g id="Grupo_1100812" data-name="Grupo 1100812" transform="translate(885.043 -397.076)">
      <g id="Grupo_1099379" data-name="Grupo 1099379" transform="translate(265 5284)">
        <g id="Grupo_1099588" data-name="Grupo 1099588" transform="translate(-0.043 -0.043)" clip-path="url(#clip-path)">
          <path id="Trazado_873814" data-name="Trazado 873814" d="M23.156,78.743q.49.4.991.773L79.516,24.147q-.378-.5-.773-.991Z" transform="translate(-8.429 -8.429)" fill="#231291"/>
          <path id="Trazado_873815" data-name="Trazado 873815" d="M44.424,93.595c.459.136.921.261,1.383.38L93.974,45.808c-.12-.462-.244-.924-.38-1.383Z" transform="translate(-16.17 -16.171)" fill="#231291"/>
          <path id="Trazado_873816" data-name="Trazado 873816" d="M29.485,83.9q.549.339,1.106.658L84.559,30.591q-.32-.557-.658-1.106Z" transform="translate(-10.733 -10.733)" fill="#231291"/>
          <path id="Trazado_873817" data-name="Trazado 873817" d="M36.544,88.859q.612.277,1.231.532L89.39,37.776q-.255-.619-.532-1.231Z" transform="translate(-13.302 -13.302)" fill="#231291"/>
          <path id="Trazado_873818" data-name="Trazado 873818" d="M53.3,98.058q.784.112,1.572.191L98.248,54.874c-.054-.525-.116-1.049-.191-1.572Z" transform="translate(-19.402 -19.402)" fill="#231291"/>
          <path id="Trazado_873819" data-name="Trazado 873819" d="M17.941,73.849c.148.148.3.291.446.436l55.9-55.9c-.145-.149-.288-.3-.436-.446s-.3-.291-.446-.435l-55.9,55.9c.144.149.287.3.435.446" transform="translate(-6.372 -6.372)" fill="#231291"/>
          <path id="Trazado_873820" data-name="Trazado 873820" d="M63.5,102.161q.924-.02,1.848-.084l36.726-36.726q.063-.923.083-1.847Z" transform="translate(-23.115 -23.116)" fill="#231291"/>
          <path id="Trazado_873821" data-name="Trazado 873821" d="M105.688,75.821,75.82,105.689q1.2-.268,2.375-.611L105.077,78.2q.343-1.179.611-2.375" transform="translate(-27.599 -27.599)" fill="#231291"/>
          <path id="Trazado_873822" data-name="Trazado 873822" d="M.084,36.81Q.021,37.733,0,38.658L38.657,0q-.924.02-1.848.084Z" transform="translate(0 0)" fill="#231291"/>
          <path id="Trazado_873823" data-name="Trazado 873823" d="M.313,43.687c.054.525.116,1.049.191,1.573L45.26.5Q44.475.392,43.687.313Z" transform="translate(-0.114 -0.114)" fill="#231291"/>
          <path id="Trazado_873824" data-name="Trazado 873824" d="M93.715,107.7A39.84,39.84,0,0,0,107.7,93.715Z" transform="translate(-34.112 -34.113)" fill="#231291"/>
          <path id="Trazado_873825" data-name="Trazado 873825" d="M2.113,29q-.342,1.179-.611,2.375L31.37,1.5q-1.194.268-2.375.611Z" transform="translate(-0.547 -0.547)" fill="#231291"/>
          <path id="Trazado_873826" data-name="Trazado 873826" d="M22.567,8.582A39.821,39.821,0,0,0,8.581,22.568Z" transform="translate(-3.124 -3.124)" fill="#231291"/>
          <path id="Trazado_873827" data-name="Trazado 873827" d="M8.207,62.176q.32.557.658,1.106L63.281,8.866q-.549-.339-1.106-.658Z" transform="translate(-2.987 -2.988)" fill="#231291"/>
          <path id="Trazado_873828" data-name="Trazado 873828" d="M12.512,67.882q.378.5.773.991L68.872,13.286q-.49-.4-.991-.773Z" transform="translate(-4.554 -4.555)" fill="#231291"/>
          <path id="Trazado_873829" data-name="Trazado 873829" d="M1.953,50.12c.119.463.244.925.38,1.384L51.5,2.334c-.459-.137-.921-.261-1.384-.38Z" transform="translate(-0.711 -0.711)" fill="#231291"/>
          <path id="Trazado_873830" data-name="Trazado 873830" d="M4.649,56.264q.255.619.532,1.231L57.5,5.181q-.612-.277-1.231-.532Z" transform="translate(-1.692 -1.692)" fill="#231291"/>
        </g>
        <rect id="Rectángulo_401103" data-name="Rectángulo 401103" width="139" height="139" transform="translate(-0.043 -0.043)" fill="none"/>
        <path id="Trazado_873425" data-name="Trazado 873425" d="M57.977,0A57.977,57.977,0,1,1,0,57.977,57.977,57.977,0,0,1,57.977,0Z" transform="translate(17.221 20.665)" fill="#b6adf0"/>
        <circle id="Elipse_11503" data-name="Elipse 11503" cx="60.5" cy="60.5" r="60.5" transform="translate(8.957 8.957)" fill="#fff"/>
      </g>
    </g>
    <g id="Grupo_1100910" data-name="Grupo 1100910" transform="translate(1188.896 4916.785)">
      <g id="Grupo_1100909" data-name="Grupo 1100909" clip-path="url(#clip-path-3)">
        <path id="Trazado_873998" data-name="Trazado 873998" d="M57.575,33.261c3.264-.3,8.538-3.07,11.622-2.538,2.8.483,4.361,4.269,3.843,6.8-.8,3.9-6,4.034-9.1,4.942.3,1.022.856,1.939,1.165,2.962,1.191,3.936.277,6.345,3.2,9.78.965,1.136,3.572,2.749,3.085,4.255l-13.257,13.4c-1.511.8-1.994-.633-2.326-.635-.128,0-1.707,1.224-2.352.911L3.9,73.132A4.382,4.382,0,0,1,0,68.777V10.249A4.317,4.317,0,0,1,3.666,6.13c1.692-.193,11.276.424,11.678,0,.375-.4-.79-1.9,2-2.132,1.725-.144,3.647.12,5.4.018a6.574,6.574,0,0,1,12.112,0c1.748.1,3.67-.163,5.4-.018,2.786.233,1.622,1.736,2,2.132.394.416,9.809-.163,11.45-.009a4.05,4.05,0,0,1,2.829,1.417,7.909,7.909,0,0,1,1.054,2.013ZM39.881,6.6H34.1c-1.135,0-1.286-1.554-1.72-2.291a4.286,4.286,0,0,0-7.176,0c-.435.737-.586,2.291-1.72,2.291H17.7v5.662H39.881ZM15.345,8.489H3.667a2.112,2.112,0,0,0-1.309,1.994V68.542c-.262.695,1.022,2.23,1.545,2.23H53.682c.057,0,.348-.218.238-.472-.136-.315-1.617-1.73-2.113-1.664l-46.031.026a1.079,1.079,0,0,1-1.3-1.3l.136-56.276a6.106,6.106,0,0,1,.7-.712H15.345ZM55.215,33.969V9.787a2.937,2.937,0,0,0-1.3-1.3H42.24v1.887H52.266c.59,0,.906,1,.835,1.523l-.013,21.482c-.06.806,1.91.917,2.127.586M15.345,12.736c-.29-.31-7.428.235-8.493,0V66.29H49.789c-1.718-2.048-4.035-3.731-4.992-6.332L28.217,59.9c-1.772-.281-1.424-2.344-.487-2.344H41.768a4.42,4.42,0,0,1-1.456-2.79c-.5.111-1.828-.749-1.965-.749H27.495c-.494,0-1.066-1.954.522-2.309,1.356-.3,8.491.266,8.8-.049.077-.079-.145-1.51.235-1.886a4.3,4.3,0,0,1-1.463.186A66.863,66.863,0,0,1,27.6,47.777c-2.118-.973,1.006-3.179,1.664-4.134-1.084.261-2.841-.325-2.242-1.648.612-1.352,3.638-.368,4.85-.825.129-1.018-.243-2.132.459-3.192H27.967c-1.146,0-1.234-2.359-.472-2.359H35.28c.682,0,5.272-2.324,6.5-2.7,3.339-1.033,5.651-.29,8.955.344V12.736H42.24c-.11,0,.29,1.685-.825,1.887l-25.021.013c-1.235.206-.952-1.8-1.048-1.9m34.7,30.887a3.152,3.152,0,0,0,1.362-.138c5.988-1.219,12.173-3.6,18.185-4.934,2.291-1.225.949-5.838-1.72-5.511L48.138,38.217Zm-.726-8.236c-2.349-.4-3.982-.984-6.374-.362-1.034.269-7.759,3.029-8.256,3.54a3.1,3.1,0,0,0-.468.827,27.54,27.54,0,0,0,5.263-1.222c.523-.3.754-1.144,1.227-1.6a4.73,4.73,0,0,1,5.889-.253ZM50.969,46a17.406,17.406,0,0,0,1.375,3.222c.6,1.086,3.047,3.609,1.833,4.582-1.181.946-2.32-.981-2.928-1.835-2.371-3.326-2.9-7.068-4.412-10.687-.7-1.676-1.7-4.357-3.952-3.251-2.7,1.326-.116,4.38.65,6.317C45.6,49.582,45.073,57.2,48.253,61.1c1.726,2.121,4.322,4.021,6.137,6.127L65.6,55.8c-2.714-3.671-1.523-8.692-4.013-12.524ZM39.4,40.822c-.165-.148-3.865.692-3.981,1.078-.205.678,1.383,4.48,1.4,5.518l4.716-1.182c.458-.468-2.206-4.5-2.137-5.413m-6.125,2.584c-.289-.289-1.717,1.667-2.073,1.824-.008.22-1.115.706-.755,1.005.15.124,3.276.509,3.773.945a20.072,20.072,0,0,0-.945-3.774m9.2,4.953c-.455-.453-4.379,2.035-2.96,3.552,1.1,1.173,3.163-.753,3.218-1.777.031-.574-.325-1.177-.259-1.774m.943,7.315c-.073-.668.316-1.772-.467-2.123-.264.748-.5,1.748.467,2.123M67.351,57.54,56.02,68.885,57.34,70.2,68.671,58.858Z" transform="translate(0 0)" fill="#123e3a"/>
        <path id="Trazado_873999" data-name="Trazado 873999" d="M56.377,73.162a2.351,2.351,0,0,1,.492.8,59.881,59.881,0,0,1,.068,9.149,1.822,1.822,0,0,1-1.172,1.659,65.288,65.288,0,0,1-9.337.111,1.822,1.822,0,0,1-1.659-1.173,65.285,65.285,0,0,1-.111-9.336,1.822,1.822,0,0,1,1.173-1.659,66.8,66.8,0,0,1,9.341-.116,2.087,2.087,0,0,1,1.2.565m-1.8,1.8H47.024v7.549h7.549Z" transform="translate(-34.038 -55.388)" fill="#123e3a"/>
        <path id="Trazado_874000" data-name="Trazado 874000" d="M46.342,209.579a49.413,49.413,0,0,1,8.2-.055,2.184,2.184,0,0,1,2.247,2,56.874,56.874,0,0,1,0,8.5,2.178,2.178,0,0,1-2.005,2.005,55.14,55.14,0,0,1-8.268,0,2.177,2.177,0,0,1-2.005-2.005,57.19,57.19,0,0,1,.019-8.721,2.141,2.141,0,0,1,1.812-1.727m8.083,2.3H46.875v7.785h7.549Z" transform="translate(-33.89 -159.983)" fill="#123e3a"/>
        <path id="Trazado_874001" data-name="Trazado 874001" d="M45.126,152.592a2.349,2.349,0,0,1-.492-.8,59.881,59.881,0,0,1-.068-9.149,1.8,1.8,0,0,1,1.353-1.714c1.2-.464,6.957-.453,8.443-.287.877.1,2.086.491,2.371,1.4a62.805,62.805,0,0,1,.111,9.1,2.273,2.273,0,0,1-1.408,1.894,63.291,63.291,0,0,1-9.1.116,2.086,2.086,0,0,1-1.2-.565M54.479,143H46.93v7.785h7.549Z" transform="translate(-33.944 -107.382)" fill="#123e3a"/>
        <path id="Trazado_874002" data-name="Trazado 874002" d="M115.032,82l18.127-.061c1.506.2,1.623,2.161-.243,2.374-5.329.611-11.779-.468-17.231,0-1.475-.09-2.147-1.576-.654-2.314" transform="translate(-87.252 -62.606)" fill="#123e3a"/>
        <path id="Trazado_874003" data-name="Trazado 874003" d="M115.265,106.019l17.648-.055a1.194,1.194,0,1,1,.243,2.374c-5.339.705-12.21-.559-17.717,0-1.6-.21-1.67-1.86-.173-2.321" transform="translate(-87.248 -80.965)" fill="#123e3a"/>
        <path id="Trazado_874004" data-name="Trazado 874004" d="M118.833,19.2a1.433,1.433,0,1,1-1.433-1.433,1.433,1.433,0,0,1,1.433,1.433" transform="translate(-88.608 -13.574)" fill="#123e3a"/>
        <path id="Trazado_874005" data-name="Trazado 874005" d="M62.1,87.9c.773-.232,1.557-.032,1.681.834.127.89-2.947,4.739-3.978,4.451-1.054-.294-3.787-3.161-1.875-4.035,1.146-.524,1.689,1.059,2,1.058.388,0,1.588-2.132,2.173-2.307" transform="translate(-43.752 -67.092)" fill="#123e3a"/>
        <path id="Trazado_874006" data-name="Trazado 874006" d="M63.256,225.014a1.462,1.462,0,0,1,.119,1.531,25.078,25.078,0,0,1-3.062,3.559,1.3,1.3,0,0,1-1.006-.08,22.02,22.02,0,0,1-2.322-2.407c-.345-1.153.611-1.759,1.679-1.436.458.138.812,1,1.223.9.494-.122,1.878-3.559,3.369-2.066" transform="translate(-43.486 -171.642)" fill="#123e3a"/>
        <path id="Trazado_874007" data-name="Trazado 874007" d="M57.382,157.642c1.029-1.03,2.3.708,2.63.641.38-.079,1.522-2.278,2.4-2.363A1.4,1.4,0,0,1,63.7,157c.076.739-2.763,4.265-3.44,4.362-1.286.184-4.041-2.56-2.878-3.724" transform="translate(-43.63 -119.133)" fill="#123e3a"/>
      </g>
    </g>
  </g>
</svg>
