<svg id="img13" xmlns="http://www.w3.org/2000/svg" width="715" height="262" viewBox="0 0 715 262">
  <path id="Rect치ngulo_389225" data-name="Rect치ngulo 389225" d="M9,0H706a9,9,0,0,1,9,9V55a0,0,0,0,1,0,0H0a0,0,0,0,1,0,0V9A9,9,0,0,1,9,0Z" fill="#3a1d71"/>
  <path id="Rect치ngulo_389226" data-name="Rect치ngulo 389226" d="M0,0H715a0,0,0,0,1,0,0V198a9,9,0,0,1-9,9H9a9,9,0,0,1-9-9V0A0,0,0,0,1,0,0Z" transform="translate(0 55)" fill="#110628"/>
  <circle id="Elipse_11380" data-name="Elipse 11380" cx="8" cy="8" r="8" transform="translate(32 19)" fill="#fb130d"/>
  <circle id="Elipse_11381" data-name="Elipse 11381" cx="8" cy="8" r="8" transform="translate(67 19)" fill="#fecd02"/>
  <circle id="Elipse_11382" data-name="Elipse 11382" cx="8" cy="8" r="8" transform="translate(102 19)" fill="#43dfaa"/>
</svg>
