<svg xmlns="http://www.w3.org/2000/svg" xmlns:xlink="http://www.w3.org/1999/xlink" width="139.045" height="139" viewBox="0 0 139.045 139">
  <defs>
    <clipPath id="clip-path">
      <rect id="Rectángulo_401159" data-name="Rectángulo 401159" width="79.045" height="79.046" fill="#075214"/>
    </clipPath>
    <clipPath id="clip-path-2">
      <rect id="Rectángulo_400938" data-name="Rectángulo 400938" width="139" height="139" transform="translate(-0.043 -0.043)" fill="none"/>
    </clipPath>
    <clipPath id="clip-path-3">
      <rect id="Rectángulo_401844" data-name="Rectángulo 401844" width="66.957" height="67.767" fill="#123e3a"/>
    </clipPath>
  </defs>
  <g id="img15" transform="translate(-730.955 -4886.881)">
    <g id="Grupo_1100811" data-name="Grupo 1100811" transform="translate(466.043 -397.076)">
      <g id="Grupo_1099379" data-name="Grupo 1099379" transform="translate(265 5284)">
        <g id="Grupo_1099587" data-name="Grupo 1099587" transform="translate(-0.088 -0.043)" clip-path="url(#clip-path)">
          <path id="Trazado_873797" data-name="Trazado 873797" d="M23.156,78.743q.49.4.991.773L79.516,24.147q-.378-.5-.773-.991Z" transform="translate(-8.429 -8.429)" fill="#075214"/>
          <path id="Trazado_873798" data-name="Trazado 873798" d="M44.424,93.595c.459.136.921.261,1.383.38L93.974,45.808c-.12-.462-.244-.924-.38-1.383Z" transform="translate(-16.17 -16.171)" fill="#075214"/>
          <path id="Trazado_873799" data-name="Trazado 873799" d="M29.485,83.9q.549.339,1.106.658L84.559,30.591q-.32-.557-.658-1.106Z" transform="translate(-10.733 -10.733)" fill="#075214"/>
          <path id="Trazado_873800" data-name="Trazado 873800" d="M36.544,88.859q.612.277,1.231.532L89.39,37.776q-.255-.619-.532-1.231Z" transform="translate(-13.302 -13.302)" fill="#075214"/>
          <path id="Trazado_873801" data-name="Trazado 873801" d="M53.3,98.058q.784.112,1.572.191L98.248,54.874c-.054-.525-.116-1.049-.191-1.572Z" transform="translate(-19.402 -19.402)" fill="#075214"/>
          <path id="Trazado_873802" data-name="Trazado 873802" d="M17.941,73.849c.148.148.3.291.446.436l55.9-55.9c-.145-.149-.288-.3-.436-.446s-.3-.291-.446-.435l-55.9,55.9c.144.149.287.3.435.446" transform="translate(-6.372 -6.372)" fill="#075214"/>
          <path id="Trazado_873803" data-name="Trazado 873803" d="M63.5,102.161q.924-.02,1.848-.084l36.726-36.726q.063-.923.083-1.847Z" transform="translate(-23.115 -23.116)" fill="#075214"/>
          <path id="Trazado_873804" data-name="Trazado 873804" d="M105.688,75.821,75.82,105.689q1.2-.268,2.375-.611L105.077,78.2q.343-1.179.611-2.375" transform="translate(-27.599 -27.599)" fill="#075214"/>
          <path id="Trazado_873805" data-name="Trazado 873805" d="M.084,36.81Q.021,37.733,0,38.658L38.657,0q-.924.02-1.848.084Z" transform="translate(0 0)" fill="#075214"/>
          <path id="Trazado_873806" data-name="Trazado 873806" d="M.313,43.687c.054.525.116,1.049.191,1.573L45.26.5Q44.475.392,43.687.313Z" transform="translate(-0.114 -0.114)" fill="#075214"/>
          <path id="Trazado_873807" data-name="Trazado 873807" d="M93.715,107.7A39.84,39.84,0,0,0,107.7,93.715Z" transform="translate(-34.112 -34.113)" fill="#075214"/>
          <path id="Trazado_873808" data-name="Trazado 873808" d="M2.113,29q-.342,1.179-.611,2.375L31.37,1.5q-1.194.268-2.375.611Z" transform="translate(-0.547 -0.547)" fill="#075214"/>
          <path id="Trazado_873809" data-name="Trazado 873809" d="M22.567,8.582A39.821,39.821,0,0,0,8.581,22.568Z" transform="translate(-3.124 -3.124)" fill="#075214"/>
          <path id="Trazado_873810" data-name="Trazado 873810" d="M8.207,62.176q.32.557.658,1.106L63.281,8.866q-.549-.339-1.106-.658Z" transform="translate(-2.987 -2.988)" fill="#075214"/>
          <path id="Trazado_873811" data-name="Trazado 873811" d="M12.512,67.882q.378.5.773.991L68.872,13.286q-.49-.4-.991-.773Z" transform="translate(-4.554 -4.555)" fill="#075214"/>
          <path id="Trazado_873812" data-name="Trazado 873812" d="M1.953,50.12c.119.463.244.925.38,1.384L51.5,2.334c-.459-.137-.921-.261-1.384-.38Z" transform="translate(-0.711 -0.711)" fill="#075214"/>
          <path id="Trazado_873813" data-name="Trazado 873813" d="M4.649,56.264q.255.619.532,1.231L57.5,5.181q-.612-.277-1.231-.532Z" transform="translate(-1.692 -1.692)" fill="#075214"/>
        </g>
        <rect id="Rectángulo_401103" data-name="Rectángulo 401103" width="139" height="139" transform="translate(-0.043 -0.043)" fill="none"/>
        <path id="Trazado_873425" data-name="Trazado 873425" d="M57.977,0A57.977,57.977,0,1,1,0,57.977,57.977,57.977,0,0,1,57.977,0Z" transform="translate(17.221 20.665)" fill="#99eca7"/>
        <circle id="Elipse_11503" data-name="Elipse 11503" cx="60.5" cy="60.5" r="60.5" transform="translate(8.957 8.957)" fill="#fff"/>
      </g>
    </g>
    <g id="Grupo_1100912" data-name="Grupo 1100912" transform="translate(766.521 4924.399)">
      <g id="Grupo_1100911" data-name="Grupo 1100911" clip-path="url(#clip-path-3)">
        <path id="Trazado_874008" data-name="Trazado 874008" d="M91.745,96.885v-7.62c.575.105,2.3-.3,2.51.347l.034,8.856c.115.6,1.394,1.577,1.9,2.016V93.71h2.541l.012,11.313a14.028,14.028,0,0,1,1.018,3.851c.062.685-.121,3.959.026,4.1.08.077.98-.08,1.061,0a11.924,11.924,0,0,1,0,2.542c-.112.113-1.36-.15-1.66.035a9.111,9.111,0,0,0-1.009,3.144c1.049,1.892,10.55,9.963,10.717,11.12a1.576,1.576,0,0,1-.334,1.144c-.174.275-3.148,3.283-3.365,3.408a2.023,2.023,0,0,1-1.929,0L92.911,124.016a15.95,15.95,0,0,1-24.239-8.5H53.219v-2.54H68.037a18.853,18.853,0,0,1,1.064-8.144L69.094,92.65h2.541v7.832c.506-.438,1.785-1.415,1.9-2.016.26-1.357-.321-7.347.1-7.947.286-.411,1.9-.111,2.448-.2v6.562c3.02-.468,1.514-2.91,2-5.094.292-.419,2.083-.1,2.66-.2v3.6c.306-.2,1.905-.116,1.905-.212V86.936h2.54V94.98c0,.1,1.6.013,1.905.212V84.819c.6.115,2.507-.309,2.722.347l.029,10.555c.111.6,1.336,1.017,1.906,1.163m5.562,13.965a13.394,13.394,0,1,0-13.394,13.394A13.394,13.394,0,0,0,97.307,110.85m-1.113,9.956c-.046.815-1.356,1.063-.963,1.9l8.679,8.7c.484.53,1.913-1.1,1.712-1.493Z" transform="translate(-41.954 -66.841)" fill="#123e3a"/>
        <path id="Trazado_874009" data-name="Trazado 874009" d="M51.755,86.908c.239.151.562,2.855-.535,2.746-4.423-.221-9.155.319-13.539,0-3.855-.277-6.189-2-6.468-6.021-.818-11.791.629-24.525.013-36.415a6.1,6.1,0,0,1,4.429-5.308c15.988-.122,32.05-.224,48.024.051a6.21,6.21,0,0,1,4.278,4.824l.006,37.484c.009.593-1,3.134-1.413,3.258s-1.91-1.367-1.926-1.573c-.029-.361,1.018-1.483.8-2.109V47.419a3.374,3.374,0,0,0-3.494-3.068l-45.1.009a3.274,3.274,0,0,0-3.078,3.273l.008,35.586a4.952,4.952,0,0,0,.75,2.623c1.867,2.816,17.244,1.066,17.244,1.066" transform="translate(-24.403 -32.944)" fill="#123e3a"/>
        <path id="Trazado_874010" data-name="Trazado 874010" d="M55.588,6.971H55.5a1.253,1.253,0,0,1-1.242-1.18,3.171,3.171,0,0,0-2.541-3.25,1.253,1.253,0,0,0-.235-.021l-46.527.1a1.231,1.231,0,0,0-.536.122A3.318,3.318,0,0,0,2.578,5.586V41.8a3.31,3.31,0,0,0,1.764,2.8,1.246,1.246,0,0,1,.59,1.323c-.313,1.53-.471,1.976-2.415.59a6.443,6.443,0,0,1-2.1-2.681,1.227,1.227,0,0,1-.1-.437C-.321,30.745.236,17.938.04,5.228c0-.043,0-.086,0-.129A5.93,5.93,0,0,1,3.857.165,1.2,1.2,0,0,1,4.289.088L52.231,0a1.231,1.231,0,0,1,.376.056,6.026,6.026,0,0,1,4.225,5.634,1.239,1.239,0,0,1-1.244,1.282" transform="translate(0 0.001)" fill="#123e3a"/>
        <rect id="Rectángulo_401842" data-name="Rectángulo 401842" width="2.55" height="13.991" transform="translate(18.029 30.246)" fill="#123e3a"/>
        <path id="Trazado_874011" data-name="Trazado 874011" d="M108.758,159.933v10.372c-.452-.042-2.54.185-2.54-.318V159.933Z" transform="translate(-83.734 -126.079)" fill="#123e3a"/>
        <path id="Trazado_874012" data-name="Trazado 874012" d="M66.758,174.933v6.88c0,.47-2.54.47-2.54,0v-6.88Z" transform="translate(-50.624 -137.903)" fill="#123e3a"/>
        <path id="Trazado_874013" data-name="Trazado 874013" d="M55.509,62.731c.869,2.759-.11,2.646-2.511,2.512-.175-2.55-.109-2.793,2.511-2.512" transform="translate(-41.734 -49.38)" fill="#123e3a"/>
        <rect id="Rectángulo_401843" data-name="Rectángulo 401843" width="2.548" height="2.548" transform="translate(13.59 4.427)" fill="#123e3a"/>
        <path id="Trazado_874014" data-name="Trazado 874014" d="M23.538,20.928V23.47c-2.631.183-2.724.086-2.542-2.542Z" transform="translate(-16.505 -16.498)" fill="#123e3a"/>
        <path id="Trazado_874015" data-name="Trazado 874015" d="M45.755,20.928c.182,2.631.086,2.724-2.542,2.542V20.928Z" transform="translate(-34.066 -16.498)" fill="#123e3a"/>
        <path id="Trazado_874016" data-name="Trazado 874016" d="M77.755,65.253H75.213V62.711c2.628-.182,2.725-.089,2.542,2.542" transform="translate(-59.292 -49.39)" fill="#123e3a"/>
        <path id="Trazado_874017" data-name="Trazado 874017" d="M98.539,62.711v2.542H96c-.183-2.631-.086-2.724,2.542-2.542" transform="translate(-75.63 -49.39)" fill="#123e3a"/>
        <path id="Trazado_874018" data-name="Trazado 874018" d="M167.021,165.3a11.452,11.452,0,1,1-11.452-11.452A11.452,11.452,0,0,1,167.021,165.3M154.3,156.619c-.45.026-1.721.1-1.878.556-.294,1.271.337,7.48-.119,8.136-.3.428-2.66.276-2.66-.331v-6.245a8.9,8.9,0,0,0-2.752,8.679h17.358a8.9,8.9,0,0,0-2.752-8.679v6.245c0,.607-2.362.759-2.66.331-.456-.656.175-6.865-.119-8.136-.157-.458-1.428-.53-1.878-.556v8.573c0,.47-2.54.47-2.54,0Zm8.679,13.336H148.16a7.371,7.371,0,0,0,3.379,3.289,8.916,8.916,0,0,0,8.458-.237,6.853,6.853,0,0,0,2.981-3.052" transform="translate(-113.611 -121.283)" fill="#123e3a"/>
      </g>
    </g>
  </g>
</svg>
