<svg xmlns="http://www.w3.org/2000/svg" xmlns:xlink="http://www.w3.org/1999/xlink" width="295.881" height="207.353" viewBox="0 0 295.881 207.353">
  <defs>
    <clipPath id="clip-path">
      <path id="Trazado_874023" data-name="Trazado 874023" d="M302.95,85.68c-1.107,2.69-3.005,14.8-7.166,12.8-3.149-1.515-1.923-13.541-7.51-4.241-2.272,3.782-1.016,9.125-1.691,13.163-.989,5.914-1.412,8.368-6.636,7.668-2.707-.362-3.277-3.606-6.151-.928-1.48,1.379-1.189,6.664-.9,8.472,2.614,16.607,10.927,26.749,14.278,27.716,4.536,1.309,12.006-2.678,15.325-5.306,1.65-1.306,4.687-3.513,4.062-6.106-.7-2.911-5.192-1.805-5.619-3.512-.79-3.144,3.042-2.836,6.483-2.529,1.856.166,3.6.332,4.44-.045,3.106-1.391,7.609-7.984,3.751-10.539-.4-.262-14.676.827-7.267-4.879,1.818-1.4,3.976-.963,6.128-.526,2.7.549,5.392,1.1,7.387-1.992,3.961-6.135-1.478-6.051-5.517-5.967a15.411,15.411,0,0,1-2.979-.1c-7.675-1.676-1.611-5.887,2.754-7.858,3.532-1.594,12.511-4.676,7.823-10.41-4.912-6-7.455,2.7-10.44,4.085-6.671,3.1-.718-6.742.666-9.335,1.9-3.553,5.916-10.835-.416-11h-.133c-5.06,0-9.13,7.624-10.668,11.366" transform="translate(-272.661 -74.314)" fill="#99eca7"/>
    </clipPath>
    <clipPath id="clip-path-2">
      <rect id="Rectángulo_401848" data-name="Rectángulo 401848" width="295.881" height="198.053" fill="none"/>
    </clipPath>
    <clipPath id="clip-path-3">
      <path id="Trazado_874043" data-name="Trazado 874043" d="M288.748,182.837c-6.2,2.7,1.066,10.16,2.495,11.365,1.052.887,2.749,2.524.213,2.082-2.224-.387-5.656-4.666-6.838-6.55-.577-.921-1.07-3.717-2.067-4.2-1.136-.546-17.163,9.662-18.248,15.632-1.128,6.2,9.439,11.416,14.562,11.415-2.42,2.672-5.538,6.065-8.092,8.588-3.33,3.287-2.928,5.97.771,8.716,4.566,3.389,11.961,4.506,17.562,4.56,1.98.019,2.322-.168,2.033-2.37-.214-1.625-.654-3.1-.752-4.754-.19-3.2-.089-5.984,1.376-8.866,2.311-4.545,3.337.52,2.851,3.009a27.227,27.227,0,0,0-.352,8.959c.723,5.127,16.3-5.051,18.318-8.35-2.132-1.171-5.269-6.848-4.135-9.425,1-2.269,1.9-.08,2.39,1.251a10.861,10.861,0,0,0,2.074,4.177c4.645,4.789,10.534-10.574,11.6-13.714,1.407-4.131,3.606-5.035,7.57-5.792-3.391-3.3-8.322-8.055-13.344-7.5-2.434.269-4.24,2.3-5.955,3.835-1.182,1.059-5.162,3.88-3.349.277,1.266-2.516,4.233-3.733,5.462-6.341-1.529-1.418-6.426-3.7-8.507-2.9-2.492.96-2.521,6.133-3.887,8.123-2.287-2.829.755-6.443,1.588-9.163a27.011,27.011,0,0,0-11.162-2.808,10.525,10.525,0,0,0-4.178.74" transform="translate(-264.22 -182.097)" fill="#99eca7"/>
    </clipPath>
    <clipPath id="clip-path-4">
      <path id="Trazado_874044" data-name="Trazado 874044" d="M48.459,74.315c-6.332.166-2.313,7.448-.416,11,1.385,2.593,7.338,12.434.666,9.335-2.986-1.385-5.528-10.09-10.44-4.085-4.688,5.734,4.292,8.816,7.823,10.41,4.366,1.971,10.43,6.182,2.754,7.858a15.414,15.414,0,0,1-2.979.1c-4.039-.083-9.478-.168-5.518,5.967,1.994,3.09,4.686,2.541,7.387,1.992,2.151-.437,4.31-.875,6.129.526,7.408,5.705-6.871,4.617-7.267,4.879-3.859,2.554.645,9.148,3.75,10.539.84.377,2.583.211,4.44.045,3.44-.308,7.272-.616,6.484,2.529-.428,1.707-4.919.6-5.619,3.512-.625,2.594,2.411,4.8,4.061,6.106,3.318,2.628,10.788,6.615,15.325,5.306,3.351-.966,11.664-11.108,14.278-27.716.285-1.808.576-7.094-.9-8.472-2.874-2.678-3.445.566-6.151.928-5.224.7-5.646-1.754-6.636-7.668-.675-4.038.581-9.381-1.691-13.163-5.586-9.3-4.361,2.726-7.511,4.241-4.16,2-6.058-10.112-7.165-12.8-1.539-3.742-5.609-11.366-10.669-11.366h-.132" transform="translate(-36.944 -74.314)" fill="#99eca7"/>
    </clipPath>
    <clipPath id="clip-path-5">
      <rect id="Rectángulo_401851" data-name="Rectángulo 401851" width="295.881" height="198.053" fill="#075214"/>
    </clipPath>
    <clipPath id="clip-path-6">
      <path id="Trazado_874064" data-name="Trazado 874064" d="M52.708,184.9c.833,2.721,3.875,6.334,1.588,9.163-1.366-1.991-1.4-7.163-3.887-8.123-2.081-.8-6.978,1.482-8.506,2.9,1.229,2.608,4.2,3.825,5.461,6.341,1.813,3.6-2.166.782-3.349-.277-1.715-1.537-3.52-3.566-5.955-3.835-5.022-.556-9.954,4.2-13.344,7.5,3.963.757,6.162,1.661,7.569,5.792,1.069,3.14,6.957,18.5,11.6,13.714a10.872,10.872,0,0,0,2.074-4.177c.49-1.331,1.391-3.52,2.39-1.251,1.134,2.577-2,8.255-4.135,9.425,2.017,3.3,17.594,13.477,18.318,8.35a27.266,27.266,0,0,0-.352-8.959c-.486-2.49.54-7.554,2.85-3.009,1.467,2.882,1.567,5.665,1.377,8.866-.1,1.656-.538,3.129-.752,4.754-.289,2.2.052,2.389,2.033,2.37,5.6-.054,13-1.171,17.563-4.56,3.7-2.746,4.1-5.429.771-8.716-2.554-2.523-5.672-5.916-8.092-8.588,5.122,0,15.689-5.212,14.561-11.415-1.086-5.97-17.112-16.178-18.248-15.632-1,.479-1.489,3.275-2.067,4.2-1.182,1.884-4.614,6.163-6.838,6.55-2.537.442-.839-1.195.213-2.082,1.429-1.2,8.692-8.664,2.5-11.365a10.53,10.53,0,0,0-4.178-.74A27.015,27.015,0,0,0,52.708,184.9" transform="translate(-24.716 -182.097)" fill="#99eca7"/>
    </clipPath>
    <clipPath id="clip-path-7">
      <path id="Rectángulo_401854" data-name="Rectángulo 401854" d="M9.8,0H139.392a9.8,9.8,0,0,1,9.8,9.8V186.458a9.8,9.8,0,0,1-9.8,9.8H9.8a9.8,9.8,0,0,1-9.8-9.8V9.8A9.8,9.8,0,0,1,9.8,0Z" fill="#b6adf0"/>
    </clipPath>
    <clipPath id="clip-path-9">
      <path id="Trazado_874068" data-name="Trazado 874068" d="M154.8,81.042l-19.141,19.141-5.64-7.624a1.418,1.418,0,1,0-2.278,1.687l6.618,8.948a1.419,1.419,0,0,0,1.035.571c.035,0,.07,0,.106,0a1.423,1.423,0,0,0,1-.415l20.3-20.306a1.419,1.419,0,0,0-2.007-2.005" transform="translate(-127.462 -80.626)" fill="none"/>
    </clipPath>
    <linearGradient id="linear-gradient" x1="-3.121" y1="5.987" x2="-3.096" y2="5.987" gradientUnits="objectBoundingBox">
      <stop offset="0" stop-color="#d5615d"/>
      <stop offset="1" stop-color="#e2928f"/>
    </linearGradient>
    <clipPath id="clip-path-10">
      <path id="Trazado_874069" data-name="Trazado 874069" d="M204.706,81.042l-19.141,19.141-5.639-7.624a1.418,1.418,0,1,0-2.279,1.687l6.618,8.948a1.419,1.419,0,0,0,1.035.571c.035,0,.07,0,.106,0a1.422,1.422,0,0,0,1-.415l20.3-20.306a1.418,1.418,0,0,0-2.006-2.005" transform="translate(-177.368 -80.626)" fill="none"/>
    </clipPath>
    <linearGradient id="linear-gradient-2" x1="-4.345" y1="5.987" x2="-4.321" y2="5.987" xlink:href="#linear-gradient"/>
    <clipPath id="clip-path-11">
      <path id="Trazado_874070" data-name="Trazado 874070" d="M254.465,81.042l-19.141,19.141-5.639-7.624a1.418,1.418,0,1,0-2.28,1.687l6.618,8.948a1.42,1.42,0,0,0,1.035.571c.035,0,.07,0,.1,0a1.423,1.423,0,0,0,1-.415l20.3-20.306a1.418,1.418,0,0,0-2.006-2.005" transform="translate(-227.127 -80.626)" fill="none"/>
    </clipPath>
    <linearGradient id="linear-gradient-3" x1="-5.566" y1="5.987" x2="-5.541" y2="5.987" xlink:href="#linear-gradient"/>
    <clipPath id="clip-path-12">
      <rect id="Rectángulo_401861" data-name="Rectángulo 401861" width="28.574" height="1.405" fill="none"/>
    </clipPath>
    <linearGradient id="linear-gradient-4" x1="-3.088" y1="17.73" x2="-3.062" y2="17.73" gradientUnits="objectBoundingBox">
      <stop offset="0" stop-color="#5f94d1"/>
      <stop offset="0.005" stop-color="#5f94d1"/>
      <stop offset="1" stop-color="#3a699f"/>
    </linearGradient>
    <clipPath id="clip-path-13">
      <rect id="Rectángulo_401863" data-name="Rectángulo 401863" width="6.556" height="21.982" fill="none"/>
    </clipPath>
    <linearGradient id="linear-gradient-5" x1="-13.742" y1="2.133" x2="-13.63" y2="2.133" xlink:href="#linear-gradient"/>
    <clipPath id="clip-path-15">
      <rect id="Rectángulo_401867" data-name="Rectángulo 401867" width="6.644" height="14.085" fill="none"/>
    </clipPath>
    <linearGradient id="linear-gradient-6" x1="-16.298" y1="2.769" x2="-16.187" y2="2.769" xlink:href="#linear-gradient"/>
    <linearGradient id="linear-gradient-7" x1="-3.088" y1="104.709" x2="-3.062" y2="104.709" xlink:href="#linear-gradient-4"/>
    <clipPath id="clip-path-17">
      <rect id="Rectángulo_401871" data-name="Rectángulo 401871" width="6.556" height="21.981" fill="none"/>
    </clipPath>
    <linearGradient id="linear-gradient-8" x1="-13.742" y1="7.694" x2="-13.63" y2="7.694" xlink:href="#linear-gradient"/>
    <linearGradient id="linear-gradient-9" x1="-16.298" y1="11.447" x2="-16.187" y2="11.447" xlink:href="#linear-gradient"/>
    <clipPath id="clip-path-21">
      <path id="Trazado_874072" data-name="Trazado 874072" d="M137.793,154.145l15.448-12.1a18.1,18.1,0,0,0-15.356-8.66c.084,5.484-.092,20.764-.092,20.764" transform="translate(-137.793 -133.381)" fill="none"/>
    </clipPath>
    <linearGradient id="linear-gradient-10" x1="-6.584" y1="4.797" x2="-6.536" y2="4.797" xlink:href="#linear-gradient"/>
    <clipPath id="clip-path-22">
      <path id="Trazado_874073" data-name="Trazado 874073" d="M170.451,38.355a1.214,1.214,0,1,0,0,2.428h57.114a1.214,1.214,0,1,0,0-2.428Z" transform="translate(-169.237 -38.355)" fill="none"/>
    </clipPath>
    <linearGradient id="linear-gradient-11" x1="-2.098" y1="69.925" x2="-2.085" y2="69.925" gradientUnits="objectBoundingBox">
      <stop offset="0" stop-color="#3a699f"/>
      <stop offset="0.333" stop-color="#4a7cb5"/>
      <stop offset="0.73" stop-color="#598dc9"/>
      <stop offset="0.995" stop-color="#5f94d1"/>
      <stop offset="1" stop-color="#5f94d1"/>
    </linearGradient>
    <clipPath id="clip-path-24">
      <path id="Trazado_874078" data-name="Trazado 874078" d="M170.451,207.725a1.214,1.214,0,1,0,0,2.428h57.114a1.214,1.214,0,1,0,0-2.428Z" transform="translate(-169.237 -207.725)" fill="none"/>
    </clipPath>
    <linearGradient id="linear-gradient-12" x1="-2.098" y1="18.429" x2="-2.085" y2="18.429" xlink:href="#linear-gradient-11"/>
    <clipPath id="clip-path-26">
      <path id="Trazado_874083" data-name="Trazado 874083" d="M170.451,143.434a1.214,1.214,0,1,0,0,2.428h57.114a1.214,1.214,0,0,0,0-2.428Z" transform="translate(-169.237 -143.434)" fill="none"/>
    </clipPath>
    <linearGradient id="linear-gradient-13" x1="-2.098" y1="37.964" x2="-2.085" y2="37.964" xlink:href="#linear-gradient-11"/>
    <clipPath id="clip-path-28">
      <path id="Trazado_874089" data-name="Trazado 874089" d="M335.563,92.166c-7.542,9.622-21.473,15.009-35.857,17.736l1.42,4.349c12.282-.911,26.268-2.968,35.262-8.491a20.034,20.034,0,0,0,7.576-8.377,4.977,4.977,0,0,0-4.271-7.128c-.071,0-.142-.005-.213-.005a4.983,4.983,0,0,0-3.918,1.916" transform="translate(-299.706 -90.25)" fill="none"/>
    </clipPath>
    <linearGradient id="linear-gradient-14" x1="-4.463" y1="2.911" x2="-4.448" y2="2.911" gradientUnits="objectBoundingBox">
      <stop offset="0" stop-color="#3b244a"/>
      <stop offset="0.008" stop-color="#3c254b"/>
      <stop offset="0.225" stop-color="#533c63"/>
      <stop offset="0.453" stop-color="#644d74"/>
      <stop offset="0.699" stop-color="#6e577e"/>
      <stop offset="0.996" stop-color="#725b82"/>
      <stop offset="1" stop-color="#725b82"/>
    </linearGradient>
    <clipPath id="clip-path-30">
      <path id="Trazado_874098" data-name="Trazado 874098" d="M341.907,230.227l4.338,0c.027-27.561,3.928-53.86,12.289-78.706l-18.168-.02a286.871,286.871,0,0,0,1.54,78.721" transform="translate(-338.372 -151.506)" fill="#123e3a"/>
    </clipPath>
    <clipPath id="clip-path-31">
      <path id="Trazado_874099" data-name="Trazado 874099" d="M365.768,230.32l5.152.006c-7.066-26.866-10.807-44.639-8.592-78.815l-20.857-.077c8.058,30.648,16.795,56.448,24.3,78.886" transform="translate(-341.471 -151.434)" fill="#123e3a"/>
    </clipPath>
    <clipPath id="clip-path-32">
      <path id="Trazado_874100" data-name="Trazado 874100" d="M342.16,97.935a24.525,24.525,0,0,0-.617,10.945,76.052,76.052,0,0,1,.232,20.381l-.7,5.894,21.15.023c-2.963-17.842-.082-28.223-2.943-36.68-1.123-3.318-5.324-8.163-8.393-9.419,0,0-7.231,4.218-8.728,8.856" transform="translate(-341.074 -89.079)" fill="none"/>
    </clipPath>
    <linearGradient id="linear-gradient-15" x1="-11.794" y1="2.87" x2="-11.759" y2="2.87" xlink:href="#linear-gradient"/>
    <clipPath id="clip-path-34">
      <path id="Trazado_874101" data-name="Trazado 874101" d="M350.148,196.751l4.438,5.34a3.139,3.139,0,0,0,4.422.408l6.6-5.485a3.14,3.14,0,0,0,.408-4.422l-4.439-5.341Z" transform="translate(-350.148 -187.252)" fill="none"/>
    </clipPath>
    <linearGradient id="linear-gradient-16" x1="-15.224" y1="3.659" x2="-15.18" y2="3.659" xlink:href="#linear-gradient"/>
    <clipPath id="clip-path-36">
      <path id="Trazado_874104" data-name="Trazado 874104" d="M271.7,94.866l4.715-3.918-6.931-3.473Z" transform="translate(-269.488 -87.474)" fill="none"/>
    </clipPath>
    <linearGradient id="linear-gradient-17" x1="-28.699" y1="18.059" x2="-28.593" y2="18.059" xlink:href="#linear-gradient"/>
    <clipPath id="clip-path-37">
      <path id="Trazado_874105" data-name="Trazado 874105" d="M341.823,93.067a4.978,4.978,0,0,0-2.541,3.776c-1.46,12.138-10.578,23.968-21.463,33.759l3.47,2.983c10.029-7.148,20.922-16.159,25.748-25.546a20.018,20.018,0,0,0,2.135-11.09h0a4.967,4.967,0,0,0-7.347-3.881" transform="translate(-317.819 -92.448)" fill="none"/>
    </clipPath>
    <linearGradient id="linear-gradient-18" x1="-4.354" y1="2.624" x2="-4.34" y2="2.624" xlink:href="#linear-gradient-14"/>
    <clipPath id="clip-path-39">
      <path id="Trazado_874107" data-name="Trazado 874107" d="M340.388,65.989c-3.216.253-6.392,2.249-9.1,3.911-.78.479-1.878,1.295-1.737,2.324a2.514,2.514,0,0,0,1.743,1.783,7.248,7.248,0,0,0,2.785.461,6.91,6.91,0,0,0,1.7-.125c.424-.106.91-.514,1.32-.484l-1.585-.263c.368-.007.71-.021.978-.021.314,0,1.317.164,1.46-.128s-.3-.65-.33-.914a3.463,3.463,0,0,1,.93.244,6.757,6.757,0,0,0,1.514.142c.128,0,.247,0,.357-.009.523-.024.846-.048,1.027.579.269.931.264,1.92.444,2.866a16.426,16.426,0,0,1,.3,2.219c.483-.726.245-1.733.82-2.441a1.622,1.622,0,0,1,2.265-.121,2.039,2.039,0,0,1,.545,2.538,2.806,2.806,0,0,1-.974.714c-.405.225-.408.125-.28.622a5.631,5.631,0,0,0,1.01,2.494,14.336,14.336,0,0,1,1.3-1.244,13.968,13.968,0,0,0,2.039-2.788,8.492,8.492,0,0,0,.349-6.933,9.31,9.31,0,0,0-8.227-5.453q-.322,0-.647.025" transform="translate(-329.535 -65.964)" fill="#123e3a"/>
    </clipPath>
  </defs>
  <g id="img8" transform="translate(-179 -2597.173)">
    <g id="Grupo_1101454" data-name="Grupo 1101454" transform="translate(2.301 -2052.827)">
      <g id="Grupo_1101445" data-name="Grupo 1101445" transform="translate(10566.711 11448.711)">
        <ellipse id="Elipse_11527" data-name="Elipse 11527" cx="73.315" cy="73.399" rx="73.315" ry="73.399" transform="translate(-10367.398 -6798.711)" fill="#93fdf3"/>
        <path id="Trazado_873743" data-name="Trazado 873743" d="M23.156,266.554q.279.226.564.44l31.538-31.538q-.215-.285-.44-.564Z" transform="translate(-10403.779 -6988.25)" fill="#231291"/>
        <path id="Trazado_873744" data-name="Trazado 873744" d="M44.424,284.166c.262.078.525.149.788.216l27.435-27.435c-.068-.263-.139-.526-.217-.788Z" transform="translate(-10417.344 -7001.813)" fill="#231291"/>
        <path id="Trazado_873745" data-name="Trazado 873745" d="M29.485,272.216q.312.193.63.375l30.739-30.739q-.182-.317-.375-.63Z" transform="translate(-10407.816 -6992.285)" fill="#231291"/>
        <path id="Trazado_873746" data-name="Trazado 873746" d="M36.544,278.078q.349.158.7.3l29.4-29.4q-.145-.353-.3-.7Z" transform="translate(-10412.317 -6996.788)" fill="#231291"/>
        <path id="Trazado_873747" data-name="Trazado 873747" d="M53.3,290.53q.447.064.9.109L78.9,265.934c-.031-.3-.066-.6-.109-.9Z" transform="translate(-10423.005 -7007.476)" fill="#231291"/>
        <path id="Trazado_873748" data-name="Trazado 873748" d="M17.754,261.334c.084.084.17.166.254.248l31.838-31.838c-.083-.085-.164-.17-.248-.254s-.169-.166-.254-.248L17.506,261.08c.082.085.164.17.248.254" transform="translate(-10400.177 -6984.646)" fill="#231291"/>
        <path id="Trazado_873749" data-name="Trazado 873749" d="M63.5,297.259q.527-.012,1.052-.048l20.919-20.919q.036-.525.047-1.052Z" transform="translate(-10429.511 -7013.981)" fill="#231291"/>
        <path id="Trazado_873750" data-name="Trazado 873750" d="M92.833,287.557,75.82,304.57q.681-.153,1.353-.348L92.485,288.91q.2-.672.348-1.353" transform="translate(-10437.366 -7021.836)" fill="#231291"/>
        <path id="Trazado_873751" data-name="Trazado 873751" d="M.048,232.7q-.036.525-.048,1.052l22.019-22.019q-.527.011-1.052.047Z" transform="translate(-10389.012 -6973.482)" fill="#231291"/>
        <path id="Trazado_873752" data-name="Trazado 873752" d="M.313,236.755c.031.3.066.6.109.9l25.493-25.493q-.447-.064-.9-.109Z" transform="translate(-10389.212 -6973.682)" fill="#231291"/>
        <path id="Trazado_873753" data-name="Trazado 873753" d="M93.715,313.417a22.688,22.688,0,0,0,7.966-7.966Z" transform="translate(-10448.81 -7033.248)" fill="#231291"/>
        <path id="Trazado_873754" data-name="Trazado 873754" d="M1.85,228.9q-.2.672-.348,1.353l17.013-17.013q-.68.153-1.353.348Z" transform="translate(-10389.97 -6974.44)" fill="#231291"/>
        <path id="Trazado_873755" data-name="Trazado 873755" d="M16.547,220.318a22.682,22.682,0,0,0-7.966,7.966Z" transform="translate(-10394.484 -6978.955)" fill="#231291"/>
        <path id="Trazado_873756" data-name="Trazado 873756" d="M8.207,250.683q.182.317.375.63l30.995-30.995q-.312-.193-.63-.375Z" transform="translate(-10394.246 -6978.717)" fill="#231291"/>
        <path id="Trazado_873757" data-name="Trazado 873757" d="M12.512,255.787q.215.285.44.564l31.662-31.662q-.279-.226-.564-.44Z" transform="translate(-10396.992 -6981.462)" fill="#231291"/>
        <path id="Trazado_873758" data-name="Trazado 873758" d="M1.953,241.125c.068.264.139.527.217.788l28.006-28.006c-.262-.078-.525-.149-.788-.217Z" transform="translate(-10390.258 -6974.728)" fill="#231291"/>
        <path id="Trazado_873759" data-name="Trazado 873759" d="M4.649,245.784q.145.353.3.7l29.8-29.8q-.349-.158-.7-.3Z" transform="translate(-10391.978 -6976.447)" fill="#231291"/>
        <line id="Línea_3222" data-name="Línea 3222" y1="40.253" x2="40.253" transform="translate(-10363.497 -6711.554)" fill="none" stroke="#99eca7" stroke-linecap="round" stroke-miterlimit="10" stroke-width="34.595"/>
      </g>
    </g>
    <g id="Grupo_1100995" data-name="Grupo 1100995" transform="translate(179 2606.473)">
      <g id="Grupo_1100918" data-name="Grupo 1100918" transform="translate(201.245 54.849)">
        <g id="Grupo_1100917" data-name="Grupo 1100917" clip-path="url(#clip-path)">
          <rect id="Rectángulo_401847" data-name="Rectángulo 401847" width="57.27" height="78.023" transform="translate(-1.307 0.011) rotate(-0.713)" fill="#99eca7"/>
        </g>
      </g>
      <g id="Grupo_1100920" data-name="Grupo 1100920">
        <g id="Grupo_1100919" data-name="Grupo 1100919" clip-path="url(#clip-path-2)">
          <path id="Trazado_874024" data-name="Trazado 874024" d="M315.242,117.326a32.725,32.725,0,0,0-10.16-1.339,67.381,67.381,0,0,0,5.329-10.264c.373-1.011-1.252-1.429-1.622-.424-.162.438-.35.867-.531,1.3a10.327,10.327,0,0,1-.351-3.358,21.446,21.446,0,0,1,.974-6.156.839.839,0,0,0-1.622-.424,23.118,23.118,0,0,0-.962,7.886,6.012,6.012,0,0,0,1.184,3.8c-2,4.2-4.675,8.187-6.8,12.288a16.419,16.419,0,0,1-3.249-5.5c-.772-2.278-.842-4.7-1.437-7.023a.839.839,0,0,0-1.616.452c.716,2.791.8,5.625,1.931,8.313a18.9,18.9,0,0,0,3.558,5.364,103.42,103.42,0,0,0-6.173,15.205c-.533,1.74-.995,3.5-1.433,5.268a31.217,31.217,0,0,1-4.823-6.825,25.067,25.067,0,0,1-1.929-4.4,12.555,12.555,0,0,0-.994-3.317.839.839,0,0,0-1.447.847c.769,1.278.843,3.082,1.419,4.485a43.28,43.28,0,0,0,1.886,3.976,33.054,33.054,0,0,0,5.32,7.114.769.769,0,0,0,.1.066c-.728,3.05-1.428,6.108-2.3,9.115a.779.779,0,0,0-.2.373,7.752,7.752,0,0,0-.28,1.2c-1.433,6.156-2.884,12.312-4.24,18.486-.23,1.052,1.391,1.481,1.622.424,1.351-6.153,2.8-12.287,4.225-18.422.011-.027.028-.044.038-.074.509-1.627.954-3.275,1.372-4.93,3.132.316,6.353-1.067,9-2.618a.839.839,0,0,0-.847-1.447c-2.3,1.348-5.017,2.536-7.739,2.41.918-3.78,1.746-7.587,2.88-11.3.452-1.479.953-2.94,1.487-4.389a.785.785,0,0,0,.186.087,24.615,24.615,0,0,0,13.2-.29c1.027-.323.581-1.94-.452-1.615a22.9,22.9,0,0,1-12.324.283c-.009,0-.016,0-.024,0a126.914,126.914,0,0,1,5.792-12.544c.363-.7.746-1.385,1.136-2.074a.7.7,0,0,0,.685.345,30.987,30.987,0,0,1,9.816,1.281.839.839,0,0,0,.424-1.622" transform="translate(-74.109 -25.16)" fill="#4e79a9"/>
          <path id="Trazado_874025" data-name="Trazado 874025" d="M349.764,144c-6.906,3.947-14.148,6.785-20.414,11.813a169.354,169.354,0,0,0-17.072,15.769c-4.882,5.173-9.492,10.578-14.4,15.734-5.73,6.018-9.383,12.831-14.035,19.6-.746,1.086-2.5.025-1.753-1.064,4.217-6.136,7.5-12.561,12.565-18.1,5.381-5.883,10.733-11.853,16.2-17.648a167.367,167.367,0,0,1,17.814-16.358c6.161-4.87,13.352-7.681,20.117-11.548,1.146-.655,2.123,1.148.976,1.8" transform="translate(-73.838 -37.208)" fill="#4e79a9"/>
          <path id="Trazado_874026" data-name="Trazado 874026" d="M369.684,143.933a6.06,6.06,0,0,1,5.746-.089c1.706,1.174.537,2.732-1.041,3.287-1.757.616-3.721.213-5.527.132-1.873-.084-3.782.613-5.577.275a13.38,13.38,0,0,1,4.065-2.284c1.3-.549,2.45-1.4,3.721-1.956" transform="translate(-95.153 -37.497)" fill="#4e79a9"/>
          <path id="Trazado_874027" data-name="Trazado 874027" d="M367.538,143.875c2.642-1.4,6.8-1.7,8.345-4.7,1.01-1.965.323-3.507-1.98-3.362-1.749.111-2.983,1.463-3.906,2.807a35.319,35.319,0,0,0-3.352,5.742" transform="translate(-96.033 -35.569)" fill="#4e79a9"/>
          <path id="Trazado_874028" data-name="Trazado 874028" d="M357.773,146.894c.531-3.378,1.095-7.655,3.924-10.063,1.763-1.5,2.5.816,2.219,2.238-.63,3.245-3.25,6.309-5.735,8.348Z" transform="translate(-93.709 -35.712)" fill="#4e79a9"/>
          <path id="Trazado_874029" data-name="Trazado 874029" d="M348.563,151.4c.006-4.177-.117-9.443,2.845-12.88,1.845-2.142,3.164.515,3.1,2.284-.152,4.034-2.737,8.224-5.352,11.15Z" transform="translate(-91.297 -36.072)" fill="#4e79a9"/>
          <path id="Trazado_874030" data-name="Trazado 874030" d="M329.266,167.51c-.724-4.113-1.765-9.277.551-13.178,1.443-2.432,3.206-.046,3.45,1.707.555,4-1.259,8.574-3.323,11.913Z" transform="translate(-86.014 -40.152)" fill="#4e79a9"/>
          <path id="Trazado_874031" data-name="Trazado 874031" d="M313.332,182.287c-2.118-4.459-4.926-10.017-3.513-15.19.881-3.225,3.639-1.059,4.468.861,1.889,4.382,1.261,10.167-.042,14.62Z" transform="translate(-81.049 -43.334)" fill="#4e79a9"/>
          <path id="Trazado_874032" data-name="Trazado 874032" d="M335.755,160.941c.655-4.767,1.336-10.8,5.221-14.2,2.422-2.117,3.5,1.153,3.152,3.16-.8,4.578-4.376,8.9-7.79,11.775Z" transform="translate(-87.942 -38.256)" fill="#4e79a9"/>
          <path id="Trazado_874033" data-name="Trazado 874033" d="M358.878,152.249c3.119,1.4,7.009,3.265,10.572,2.211,2.22-.657.681-2.536-.662-3.081-3.062-1.244-7.06-.724-10.125.243Z" transform="translate(-93.942 -39.458)" fill="#4e79a9"/>
          <path id="Trazado_874034" data-name="Trazado 874034" d="M337.366,163.266c3.856.523,8.7,1.3,12.248-1,2.211-1.433-.076-2.986-1.717-3.149-3.742-.37-7.936,1.486-10.968,3.53Z" transform="translate(-88.25 -41.665)" fill="#4e79a9"/>
          <path id="Trazado_874035" data-name="Trazado 874035" d="M327.553,175.9c4.134.56,9.329,1.4,13.132-1.069,2.371-1.536-.08-3.2-1.84-3.376-4.012-.4-8.509,1.594-11.76,3.786Z" transform="translate(-85.671 -44.895)" fill="#4e79a9"/>
          <path id="Trazado_874036" data-name="Trazado 874036" d="M316.935,186.063c5.482.53,12.365,1.371,17.565-2.115,3.242-2.173.061-4.265-2.276-4.4-5.329-.318-11.428,2.571-15.879,5.663Z" transform="translate(-82.858 -47.021)" fill="#4e79a9"/>
          <path id="Trazado_874037" data-name="Trazado 874037" d="M321.242,174.626c-1.285-2.4-2.984-4.4-3.492-7.139a9.36,9.36,0,0,1,1.548-6.717c.56-.884,1.119-2.035,2.233-2.337,1.563-.424,1.15,1.378,1.006,2.461a64.939,64.939,0,0,0-.54,6.981c-.03,1.278-.1,2.473-.237,3.7-.092.813.145,2.366-.114,2.943" transform="translate(-83.192 -41.481)" fill="#4e79a9"/>
          <path id="Trazado_874038" data-name="Trazado 874038" d="M325.207,190.694c-2.948.478-12.336,2.822-15.992,3.414-.736.795-1.49,1.577-2.253,2.363,6.189.554,16.178.03,18.687-.979,1.083-.435,3.269-1.759,3.5-2.969.415-2.183-2.654-2.037-3.941-1.83" transform="translate(-80.401 -49.918)" fill="#4e79a9"/>
          <path id="Trazado_874039" data-name="Trazado 874039" d="M314.8,212.059c-3.663-.258-15.56-.089-20.1-.408-1.1.745-2.226,1.469-3.361,2.2,7.252,2.4,19.358,4.583,22.644,4.08,1.418-.216,4.407-1.186,5.023-2.569,1.111-2.5-2.6-3.185-4.2-3.3" transform="translate(-76.306 -55.436)" fill="#4e79a9"/>
          <path id="Trazado_874040" data-name="Trazado 874040" d="M302.568,193.824c-.711-1.516-5.473-5.63-5.009-14.562.066-1.267.269-2.948,1.509-3.62,1.721-.934,2.16,1.086,2.4,2.37.478,2.533,1.6,12.262,2.193,14.642" transform="translate(-77.93 -45.942)" fill="#4e79a9"/>
          <path id="Trazado_874041" data-name="Trazado 874041" d="M298.619,205.358c1.864.247,3.814,1.092,5.756,1.41,2.081.342,13.378.566,16.749-.668,1.464-.537,4.424-.865,4.511-2.843.084-1.911-2.348-2.728-3.876-2.99-3.549-.609-19.365,2.907-23.3,4.37" transform="translate(-78.173 -52.436)" fill="#4e79a9"/>
          <path id="Trazado_874042" data-name="Trazado 874042" d="M294.018,201.293c-5.072-5.318-8.574-17.374-7.739-18.773,1.81-3.037,5.235.761,6.094,2.729,1.923,4.414,2.423,15.408,1.679,15.68" transform="translate(-74.951 -47.509)" fill="#4e79a9"/>
        </g>
      </g>
      <g id="Grupo_1100922" data-name="Grupo 1100922" transform="translate(195.014 134.402)">
        <g id="Grupo_1100921" data-name="Grupo 1100921" clip-path="url(#clip-path-3)">
          <rect id="Rectángulo_401849" data-name="Rectángulo 401849" width="68.905" height="53.457" transform="translate(-1.044 -0.001)" fill="#99eca7"/>
        </g>
      </g>
      <g id="Grupo_1100924" data-name="Grupo 1100924" transform="translate(27.267 54.849)">
        <g id="Grupo_1100923" data-name="Grupo 1100923" clip-path="url(#clip-path-4)">
          <rect id="Rectángulo_401850" data-name="Rectángulo 401850" width="57.27" height="78.023" transform="translate(-4.325 0.011) rotate(-0.713)" fill="#99eca7"/>
        </g>
      </g>
      <g id="Grupo_1100926" data-name="Grupo 1100926">
        <g id="Grupo_1100925" data-name="Grupo 1100925" clip-path="url(#clip-path-5)">
          <path id="Trazado_874045" data-name="Trazado 874045" d="M53.96,117.326a32.722,32.722,0,0,1,10.16-1.339,67.381,67.381,0,0,1-5.329-10.264c-.373-1.011,1.252-1.429,1.622-.424.162.438.35.867.531,1.3a10.328,10.328,0,0,0,.351-3.358,21.446,21.446,0,0,0-.974-6.156.839.839,0,0,1,1.622-.424,23.119,23.119,0,0,1,.962,7.886,6.012,6.012,0,0,1-1.184,3.8c2,4.2,4.675,8.187,6.8,12.288a16.418,16.418,0,0,0,3.249-5.5c.772-2.278.842-4.7,1.437-7.023a.839.839,0,0,1,1.615.452c-.715,2.791-.8,5.625-1.93,8.313a18.9,18.9,0,0,1-3.558,5.364,103.338,103.338,0,0,1,6.173,15.205c.534,1.74,1,3.5,1.433,5.268a31.215,31.215,0,0,0,4.822-6.825,25.015,25.015,0,0,0,1.93-4.4,12.554,12.554,0,0,1,.994-3.317.839.839,0,0,1,1.447.847c-.769,1.278-.844,3.082-1.419,4.485a43.282,43.282,0,0,1-1.886,3.976,33.054,33.054,0,0,1-5.32,7.114.766.766,0,0,1-.1.066c.728,3.05,1.428,6.108,2.3,9.115a.779.779,0,0,1,.2.373,7.661,7.661,0,0,1,.28,1.2c1.434,6.156,2.885,12.312,4.24,18.486.23,1.052-1.391,1.481-1.622.424-1.351-6.153-2.8-12.287-4.225-18.422-.01-.027-.027-.044-.037-.074-.509-1.627-.954-3.275-1.372-4.93-3.132.316-6.353-1.067-9-2.618a.839.839,0,0,1,.847-1.447c2.3,1.348,5.017,2.536,7.739,2.41-.917-3.78-1.746-7.587-2.879-11.3-.452-1.479-.953-2.94-1.487-4.389a.776.776,0,0,1-.187.087,24.612,24.612,0,0,1-13.2-.29c-1.027-.323-.581-1.94.452-1.615a22.9,22.9,0,0,0,12.324.283c.009,0,.016,0,.024,0A126.924,126.924,0,0,0,66.021,119.4c-.363-.7-.746-1.385-1.136-2.074a.7.7,0,0,1-.685.345,30.987,30.987,0,0,0-9.816,1.281.839.839,0,0,1-.424-1.622" transform="translate(-13.975 -25.16)" fill="#4e79a9"/>
          <path id="Trazado_874046" data-name="Trazado 874046" d="M6.851,144c6.906,3.947,14.148,6.785,20.414,11.813a169.354,169.354,0,0,1,17.072,15.769c4.882,5.173,9.492,10.578,14.4,15.734,5.73,6.018,9.383,12.831,14.035,19.6.745,1.086,2.5.025,1.753-1.064-4.217-6.136-7.5-12.561-12.565-18.1-5.381-5.883-10.733-11.853-16.2-17.648a167.372,167.372,0,0,0-17.814-16.358c-6.161-4.87-13.352-7.681-20.117-11.548-1.146-.655-2.123,1.148-.976,1.8" transform="translate(-1.66 -37.208)" fill="#4e79a9"/>
          <path id="Trazado_874047" data-name="Trazado 874047" d="M6.587,143.933a6.06,6.06,0,0,0-5.746-.089c-1.706,1.174-.537,2.732,1.041,3.287,1.757.616,3.721.213,5.527.132,1.872-.084,3.782.613,5.577.275a13.389,13.389,0,0,0-4.065-2.284c-1.3-.549-2.45-1.4-3.721-1.956" transform="translate(0 -37.497)" fill="#4e79a9"/>
          <path id="Trazado_874048" data-name="Trazado 874048" d="M9.9,143.875c-2.642-1.4-6.8-1.7-8.345-4.7-1.01-1.965-.323-3.507,1.98-3.362,1.749.111,2.983,1.463,3.906,2.807a35.319,35.319,0,0,1,3.352,5.742" transform="translate(-0.289 -35.569)" fill="#4e79a9"/>
          <path id="Trazado_874049" data-name="Trazado 874049" d="M20.9,146.894c-.531-3.378-1.095-7.655-3.924-10.063-1.763-1.5-2.5.816-2.219,2.238.63,3.245,3.25,6.309,5.735,8.348Z" transform="translate(-3.852 -35.712)" fill="#4e79a9"/>
          <path id="Trazado_874050" data-name="Trazado 874050" d="M30.205,151.4c-.005-4.177.117-9.443-2.845-12.88-1.845-2.142-3.164.515-3.1,2.284.151,4.034,2.736,8.224,5.351,11.15Z" transform="translate(-6.354 -36.072)" fill="#4e79a9"/>
          <path id="Trazado_874051" data-name="Trazado 874051" d="M49.847,167.51c.724-4.113,1.765-9.277-.551-13.178-1.444-2.432-3.207-.046-3.45,1.707-.556,4,1.258,8.574,3.322,11.913Z" transform="translate(-11.982 -40.152)" fill="#4e79a9"/>
          <path id="Trazado_874052" data-name="Trazado 874052" d="M65.4,182.287c2.118-4.459,4.926-10.017,3.513-15.19-.881-3.225-3.639-1.059-4.468.861-1.889,4.382-1.261,10.167.042,14.62Z" transform="translate(-16.569 -43.334)" fill="#4e79a9"/>
          <path id="Trazado_874053" data-name="Trazado 874053" d="M42.129,160.941c-.656-4.767-1.335-10.8-5.221-14.2-2.422-2.117-3.5,1.153-3.152,3.16.8,4.578,4.376,8.9,7.79,11.775Z" transform="translate(-8.825 -38.256)" fill="#4e79a9"/>
          <path id="Trazado_874054" data-name="Trazado 874054" d="M17.774,152.249c-3.12,1.4-7.01,3.265-10.572,2.211-2.22-.657-.681-2.536.662-3.081,3.062-1.244,7.06-.724,10.125.243Z" transform="translate(-1.593 -39.458)" fill="#4e79a9"/>
          <path id="Trazado_874055" data-name="Trazado 874055" d="M38.686,163.266c-3.856.523-8.7,1.3-12.248-1-2.211-1.433.075-2.986,1.716-3.149,3.742-.37,7.936,1.486,10.968,3.53Z" transform="translate(-6.685 -41.665)" fill="#4e79a9"/>
          <path id="Trazado_874056" data-name="Trazado 874056" d="M48.151,175.9c-4.134.56-9.329,1.4-13.132-1.069-2.371-1.536.08-3.2,1.84-3.376,4.012-.4,8.509,1.594,11.76,3.786Z" transform="translate(-8.915 -44.895)" fill="#4e79a9"/>
          <path id="Trazado_874057" data-name="Trazado 874057" d="M57.011,186.063c-5.482.53-12.366,1.371-17.565-2.115-3.242-2.173-.061-4.265,2.276-4.4,5.329-.318,11.428,2.571,15.878,5.663Z" transform="translate(-9.97 -47.021)" fill="#4e79a9"/>
          <path id="Trazado_874058" data-name="Trazado 874058" d="M57.834,174.626c1.285-2.4,2.984-4.4,3.492-7.139a9.36,9.36,0,0,0-1.548-6.717c-.561-.884-1.119-2.035-2.233-2.337-1.563-.424-1.15,1.378-1.006,2.461a64.947,64.947,0,0,1,.54,6.981c.03,1.278.1,2.473.237,3.7.092.813-.145,2.366.114,2.943" transform="translate(-14.767 -41.481)" fill="#4e79a9"/>
          <path id="Trazado_874059" data-name="Trazado 874059" d="M47.784,190.694c2.949.478,12.336,2.822,15.992,3.414.736.795,1.49,1.577,2.253,2.363-6.189.554-16.178.03-18.687-.979-1.083-.435-3.269-1.759-3.5-2.969-.415-2.183,2.654-2.037,3.941-1.83" transform="translate(-11.473 -49.918)" fill="#4e79a9"/>
          <path id="Trazado_874060" data-name="Trazado 874060" d="M56.193,212.059c3.662-.258,15.56-.089,20.1-.408,1.1.745,2.226,1.469,3.362,2.2-7.253,2.4-19.358,4.583-22.645,4.08-1.418-.216-4.407-1.186-5.023-2.569-1.111-2.5,2.6-3.185,4.2-3.3" transform="translate(-13.564 -55.436)" fill="#4e79a9"/>
          <path id="Trazado_874061" data-name="Trazado 874061" d="M76.132,193.824c.712-1.516,5.473-5.63,5.009-14.562-.066-1.267-.269-2.948-1.509-3.62-1.721-.934-2.16,1.086-2.4,2.37-.478,2.533-1.6,12.262-2.194,14.642" transform="translate(-19.653 -45.942)" fill="#4e79a9"/>
          <path id="Trazado_874062" data-name="Trazado 874062" d="M72.614,205.358c-1.864.247-3.814,1.092-5.756,1.41-2.081.342-13.378.566-16.749-.668-1.464-.537-4.424-.865-4.511-2.843-.084-1.911,2.348-2.728,3.876-2.99,3.549-.609,19.365,2.907,23.3,4.37" transform="translate(-11.943 -52.436)" fill="#4e79a9"/>
          <path id="Trazado_874063" data-name="Trazado 874063" d="M83.941,201.293c5.072-5.318,8.573-17.374,7.739-18.773-1.81-3.037-5.235.761-6.094,2.729-1.923,4.414-2.423,15.408-1.679,15.68" transform="translate(-21.891 -47.509)" fill="#4e79a9"/>
        </g>
      </g>
      <g id="Grupo_1100928" data-name="Grupo 1100928" transform="translate(18.242 134.402)">
        <g id="Grupo_1100927" data-name="Grupo 1100927" clip-path="url(#clip-path-6)">
          <rect id="Rectángulo_401852" data-name="Rectángulo 401852" width="68.905" height="53.457" transform="translate(0 -0.001)" fill="#99eca7"/>
        </g>
      </g>
      <g id="Grupo_1100930" data-name="Grupo 1100930" transform="translate(66.019)">
        <g id="Grupo_1100929" data-name="Grupo 1100929" clip-path="url(#clip-path-7)">
          <rect id="Rectángulo_401853" data-name="Rectángulo 401853" width="193.284" height="227.179" transform="matrix(0.969, -0.248, 0.248, 0.969, -47.237, 12.117)" fill="#b6adf0"/>
        </g>
      </g>
      <g id="Grupo_1100932" data-name="Grupo 1100932">
        <g id="Grupo_1100931" data-name="Grupo 1100931" clip-path="url(#clip-path-2)">
          <rect id="Rectángulo_401855" data-name="Rectángulo 401855" width="128.474" height="176.026" transform="translate(76.265 11.172)" fill="#fff"/>
          <path id="Trazado_874065" data-name="Trazado 874065" d="M147.61,98.5a13.269,13.269,0,1,1-13.268-13.268A13.269,13.269,0,0,1,147.61,98.5Z" transform="translate(-31.712 -22.323)" fill="none" stroke="#5f94d1" stroke-miterlimit="10" stroke-width="3"/>
          <path id="Trazado_874066" data-name="Trazado 874066" d="M197.515,98.5a13.269,13.269,0,1,1-13.268-13.268A13.269,13.269,0,0,1,197.515,98.5Z" transform="translate(-44.783 -22.323)" fill="none" stroke="#5f94d1" stroke-miterlimit="10" stroke-width="3"/>
          <path id="Trazado_874067" data-name="Trazado 874067" d="M247.274,98.5A13.269,13.269,0,1,1,234,85.228,13.269,13.269,0,0,1,247.274,98.5Z" transform="translate(-57.816 -22.323)" fill="none" stroke="#5f94d1" stroke-miterlimit="10" stroke-width="3"/>
        </g>
      </g>
      <g id="Grupo_1100934" data-name="Grupo 1100934" transform="translate(94.077 59.508)">
        <g id="Grupo_1100933" data-name="Grupo 1100933" clip-path="url(#clip-path-9)">
          <rect id="Rectángulo_401857" data-name="Rectángulo 401857" width="30.085" height="23.142" transform="translate(-0.188 0)" fill="url(#linear-gradient)"/>
        </g>
      </g>
      <g id="Grupo_1100936" data-name="Grupo 1100936" transform="translate(130.911 59.508)">
        <g id="Grupo_1100935" data-name="Grupo 1100935" clip-path="url(#clip-path-10)">
          <rect id="Rectángulo_401858" data-name="Rectángulo 401858" width="30.085" height="23.142" transform="translate(-0.187 0)" fill="url(#linear-gradient-2)"/>
        </g>
      </g>
      <g id="Grupo_1100938" data-name="Grupo 1100938" transform="translate(167.637 59.508)">
        <g id="Grupo_1100937" data-name="Grupo 1100937" clip-path="url(#clip-path-11)">
          <rect id="Rectángulo_401859" data-name="Rectángulo 401859" width="30.085" height="23.142" transform="translate(-0.187 0)" fill="url(#linear-gradient-3)"/>
        </g>
      </g>
      <g id="Grupo_1100940" data-name="Grupo 1100940" transform="translate(88.229 173.137)">
        <g id="Grupo_1100939" data-name="Grupo 1100939" clip-path="url(#clip-path-12)">
          <rect id="Rectángulo_401860" data-name="Rectángulo 401860" width="28.574" height="1.405" fill="url(#linear-gradient-4)"/>
        </g>
      </g>
      <g id="Grupo_1100942" data-name="Grupo 1100942" transform="translate(90.098 151.156)">
        <g id="Grupo_1100941" data-name="Grupo 1100941" clip-path="url(#clip-path-13)">
          <rect id="Rectángulo_401862" data-name="Rectángulo 401862" width="6.556" height="21.982" fill="url(#linear-gradient-5)"/>
        </g>
      </g>
      <g id="Grupo_1100944" data-name="Grupo 1100944">
        <g id="Grupo_1100943" data-name="Grupo 1100943" clip-path="url(#clip-path-2)">
          <rect id="Rectángulo_401864" data-name="Rectángulo 401864" width="6.644" height="28.171" transform="translate(99.492 144.967)" fill="#6a9ad1"/>
        </g>
      </g>
      <g id="Grupo_1100946" data-name="Grupo 1100946" transform="translate(108.289 159.053)">
        <g id="Grupo_1100945" data-name="Grupo 1100945" clip-path="url(#clip-path-15)">
          <rect id="Rectángulo_401866" data-name="Rectángulo 401866" width="6.644" height="14.085" fill="url(#linear-gradient-6)"/>
        </g>
      </g>
      <g id="Grupo_1100948" data-name="Grupo 1100948" transform="translate(88.229 50.905)">
        <g id="Grupo_1100947" data-name="Grupo 1100947" clip-path="url(#clip-path-12)">
          <rect id="Rectángulo_401868" data-name="Rectángulo 401868" width="28.574" height="1.405" fill="url(#linear-gradient-7)"/>
        </g>
      </g>
      <g id="Grupo_1100950" data-name="Grupo 1100950" transform="translate(90.098 28.924)">
        <g id="Grupo_1100949" data-name="Grupo 1100949" clip-path="url(#clip-path-17)">
          <rect id="Rectángulo_401870" data-name="Rectángulo 401870" width="6.556" height="21.981" fill="url(#linear-gradient-8)"/>
        </g>
      </g>
      <g id="Grupo_1100952" data-name="Grupo 1100952">
        <g id="Grupo_1100951" data-name="Grupo 1100951" clip-path="url(#clip-path-2)">
          <rect id="Rectángulo_401872" data-name="Rectángulo 401872" width="6.644" height="28.171" transform="translate(99.492 22.735)" fill="#6a9ad1"/>
        </g>
      </g>
      <g id="Grupo_1100954" data-name="Grupo 1100954" transform="translate(108.289 36.82)">
        <g id="Grupo_1100953" data-name="Grupo 1100953" clip-path="url(#clip-path-15)">
          <rect id="Rectángulo_401874" data-name="Rectángulo 401874" width="6.644" height="14.085" transform="translate(0 0)" fill="url(#linear-gradient-9)"/>
        </g>
      </g>
      <g id="Grupo_1100956" data-name="Grupo 1100956">
        <g id="Grupo_1100955" data-name="Grupo 1100955" clip-path="url(#clip-path-2)">
          <path id="Trazado_874071" data-name="Trazado 874071" d="M149.473,151.483a18.1,18.1,0,1,1-18.1-18.1h.093a18.092,18.092,0,0,1,18.009,18.1" transform="translate(-29.67 -34.936)" fill="#6a9ad1"/>
        </g>
      </g>
      <g id="Grupo_1100958" data-name="Grupo 1100958" transform="translate(101.702 98.445)">
        <g id="Grupo_1100957" data-name="Grupo 1100957" clip-path="url(#clip-path-21)">
          <rect id="Rectángulo_401877" data-name="Rectángulo 401877" width="15.448" height="20.764" transform="translate(0 0)" fill="url(#linear-gradient-10)"/>
        </g>
      </g>
      <g id="Grupo_1100960" data-name="Grupo 1100960" transform="translate(124.91 28.309)">
        <g id="Grupo_1100959" data-name="Grupo 1100959" clip-path="url(#clip-path-22)">
          <rect id="Rectángulo_401878" data-name="Rectángulo 401878" width="59.542" height="2.428" transform="translate(0 0)" fill="url(#linear-gradient-11)"/>
        </g>
      </g>
      <g id="Grupo_1100962" data-name="Grupo 1100962">
        <g id="Grupo_1100961" data-name="Grupo 1100961" clip-path="url(#clip-path-2)">
          <path id="Trazado_874074" data-name="Trazado 874074" d="M222.331,48.427h-51.88a1.214,1.214,0,1,1,0-2.428h51.88a1.214,1.214,0,0,1,0,2.428" transform="translate(-44.327 -12.048)" fill="#6a9ad1"/>
          <path id="Trazado_874075" data-name="Trazado 874075" d="M222.331,64.652h-51.88a1.214,1.214,0,1,1,0-2.428h51.88a1.214,1.214,0,1,1,0,2.428" transform="translate(-44.327 -16.298)" fill="#6a9ad1"/>
          <path id="Trazado_874076" data-name="Trazado 874076" d="M200.746,56.488h-30.3a1.214,1.214,0,1,1,0-2.428h30.3a1.214,1.214,0,1,1,0,2.428" transform="translate(-44.327 -14.16)" fill="#6a9ad1"/>
          <path id="Trazado_874077" data-name="Trazado 874077" d="M249.375,56.488h-30.3a1.214,1.214,0,1,1,0-2.428h30.3a1.214,1.214,0,1,1,0,2.428" transform="translate(-57.064 -14.16)" fill="#6a9ad1"/>
        </g>
      </g>
      <g id="Grupo_1100964" data-name="Grupo 1100964" transform="translate(124.91 153.317)">
        <g id="Grupo_1100963" data-name="Grupo 1100963" clip-path="url(#clip-path-24)">
          <rect id="Rectángulo_401880" data-name="Rectángulo 401880" width="59.542" height="2.428" fill="url(#linear-gradient-12)"/>
        </g>
      </g>
      <g id="Grupo_1100966" data-name="Grupo 1100966">
        <g id="Grupo_1100965" data-name="Grupo 1100965" clip-path="url(#clip-path-2)">
          <path id="Trazado_874079" data-name="Trazado 874079" d="M222.331,217.8h-51.88a1.214,1.214,0,1,1,0-2.428h51.88a1.214,1.214,0,1,1,0,2.428" transform="translate(-44.327 -56.41)" fill="#6a9ad1"/>
          <path id="Trazado_874080" data-name="Trazado 874080" d="M222.331,234.022h-51.88a1.214,1.214,0,1,1,0-2.428h51.88a1.214,1.214,0,1,1,0,2.428" transform="translate(-44.327 -60.66)" fill="#6a9ad1"/>
          <path id="Trazado_874081" data-name="Trazado 874081" d="M200.746,225.858h-30.3a1.214,1.214,0,1,1,0-2.428h30.3a1.214,1.214,0,1,1,0,2.428" transform="translate(-44.327 -58.522)" fill="#6a9ad1"/>
          <path id="Trazado_874082" data-name="Trazado 874082" d="M249.375,225.858h-30.3a1.214,1.214,0,1,1,0-2.428h30.3a1.214,1.214,0,1,1,0,2.428" transform="translate(-57.064 -58.522)" fill="#6a9ad1"/>
        </g>
      </g>
      <g id="Grupo_1100968" data-name="Grupo 1100968" transform="translate(124.91 105.865)">
        <g id="Grupo_1100967" data-name="Grupo 1100967" clip-path="url(#clip-path-26)">
          <rect id="Rectángulo_401882" data-name="Rectángulo 401882" width="59.542" height="2.428" transform="translate(0 0)" fill="url(#linear-gradient-13)"/>
        </g>
      </g>
      <g id="Grupo_1100970" data-name="Grupo 1100970">
        <g id="Grupo_1100969" data-name="Grupo 1100969" clip-path="url(#clip-path-2)">
          <path id="Trazado_874084" data-name="Trazado 874084" d="M222.331,161.956h-51.88a1.214,1.214,0,1,1,0-2.428h51.88a1.214,1.214,0,0,1,0,2.428" transform="translate(-44.327 -41.784)" fill="#6a9ad1"/>
          <path id="Trazado_874085" data-name="Trazado 874085" d="M209.241,169.326h-38.79a1.214,1.214,0,1,1,0-2.428h38.79a1.214,1.214,0,0,1,0,2.428" transform="translate(-44.327 -43.715)" fill="#6a9ad1"/>
          <path id="Trazado_874086" data-name="Trazado 874086" d="M200.746,153.792h-30.3a1.214,1.214,0,0,1,0-2.428h30.3a1.214,1.214,0,0,1,0,2.428" transform="translate(-44.327 -39.646)" fill="#6a9ad1"/>
          <path id="Trazado_874087" data-name="Trazado 874087" d="M249.375,153.792h-30.3a1.214,1.214,0,0,1,0-2.428h30.3a1.214,1.214,0,0,1,0,2.428" transform="translate(-57.064 -39.646)" fill="#6a9ad1"/>
          <path id="Trazado_874088" data-name="Trazado 874088" d="M378.038,263.684c0,1.5-14.409,2.721-32.185,2.721s-32.185-1.219-32.185-2.721,14.41-2.722,32.185-2.722,32.185,1.219,32.185,2.722" transform="translate(-82.157 -68.352)" fill="#f2f2f2"/>
        </g>
      </g>
      <g id="Grupo_1100972" data-name="Grupo 1100972" transform="translate(221.206 66.611)">
        <g id="Grupo_1100971" data-name="Grupo 1100971" clip-path="url(#clip-path-28)">
          <rect id="Rectángulo_401884" data-name="Rectángulo 401884" width="49.189" height="49.528" transform="translate(-11.998 12.264) rotate(-45.63)" fill="url(#linear-gradient-14)"/>
        </g>
      </g>
      <g id="Grupo_1100974" data-name="Grupo 1100974">
        <g id="Grupo_1100973" data-name="Grupo 1100973" clip-path="url(#clip-path-2)">
          <path id="Trazado_874090" data-name="Trazado 874090" d="M296.75,116.717l1.42,4.349s-3.69,4.186-7.348,4.223a2.461,2.461,0,0,1-1.3-4.512,9.57,9.57,0,0,1,2.945-1.215l1.582-.526-1.476-.554a1.114,1.114,0,0,1,.175-2.193,13.839,13.839,0,0,1,4,.427" transform="translate(-75.544 -30.454)" fill="#eec8c7"/>
          <path id="Trazado_874091" data-name="Trazado 874091" d="M348.645,80.532a74.551,74.551,0,0,1,4.032,9.222c.695,2.059-4.2,5.641-4.439,5.6a.7.7,0,0,1-.59-.594c-.323-2.233-1.2-6.131-3.526-8.785Z" transform="translate(-90.134 -21.093)" fill="#e9b7b6"/>
          <path id="Trazado_874092" data-name="Trazado 874092" d="M348.2,72.662c-1.367-3.1-4.355-5.76-6.686-5.606-3.476.229-6.188,2.373-5.35,11.336a1.807,1.807,0,0,0,.089.568c-.319.249-.627.57-.55.842.085.3.533.334.862.334a.145.145,0,0,0,.077-.023c1.083,2.565,3.575,5.182,6.261,5.24,2.392.052,4.73-2.632,5.829-5.463a10.292,10.292,0,0,0-.531-7.227" transform="translate(-87.925 -17.562)" fill="#eec8c7"/>
          <path id="Trazado_874093" data-name="Trazado 874093" d="M340.287,85.023a2.516,2.516,0,0,0,.677-2.436.175.175,0,0,0-.342.075,2.418,2.418,0,0,1-1.606,2.79.175.175,0,1,0,.115.33,3.44,3.44,0,0,0,1.156-.758" transform="translate(-88.766 -21.595)" fill="#3b244a"/>
          <path id="Trazado_874094" data-name="Trazado 874094" d="M339.254,78.344l.016-.011a.175.175,0,0,0,.024-.246,1.441,1.441,0,0,0-2.019-.32.175.175,0,0,0-.038.244.17.17,0,0,0,.244.039,1.1,1.1,0,0,1,1.542.259.176.176,0,0,0,.231.035" transform="translate(-88.322 -20.296)" fill="#3b244a"/>
          <path id="Trazado_874095" data-name="Trazado 874095" d="M338.761,81.225a.583.583,0,1,1-.579-.624.6.6,0,0,1,.579.624" transform="translate(-88.425 -21.111)" fill="#3b244a"/>
          <path id="Trazado_874096" data-name="Trazado 874096" d="M344.23,258.339c1.991,5.272-2.07,5.355-12.357,5.31-1.43-.015-2.428-1.525,0-2.272l7.913-3.218s3.623-.044,4.373,0Z" transform="translate(-86.54 -67.613)" fill="#543867"/>
          <path id="Trazado_874097" data-name="Trazado 874097" d="M376.511,258.618c1.991,5.376-2.418,5.333-12.705,5.288-1.429-.016-2.428-1.555,0-2.317l7.428-3.282s4.4-.043,5.152.006Z" transform="translate(-94.904 -67.652)" fill="#543867"/>
        </g>
      </g>
      <g id="Grupo_1100976" data-name="Grupo 1100976" transform="translate(249.744 111.823)">
        <g id="Grupo_1100975" data-name="Grupo 1100975" clip-path="url(#clip-path-30)">
          <rect id="Rectángulo_401886" data-name="Rectángulo 401886" width="21.284" height="78.725" transform="translate(-1.122 0)" fill="#123e3a"/>
        </g>
      </g>
      <g id="Grupo_1100978" data-name="Grupo 1100978" transform="translate(252.032 111.77)">
        <g id="Grupo_1100977" data-name="Grupo 1100977" clip-path="url(#clip-path-31)">
          <rect id="Rectángulo_401887" data-name="Rectángulo 401887" width="29.449" height="78.892" transform="translate(0 0)" fill="#123e3a"/>
        </g>
      </g>
      <g id="Grupo_1100980" data-name="Grupo 1100980" transform="translate(251.739 65.747)">
        <g id="Grupo_1100979" data-name="Grupo 1100979" clip-path="url(#clip-path-32)">
          <rect id="Rectángulo_401888" data-name="Rectángulo 401888" width="21.33" height="46.099" transform="translate(-0.179 0)" fill="url(#linear-gradient-15)"/>
        </g>
      </g>
      <g id="Grupo_1100982" data-name="Grupo 1100982">
        <g id="Grupo_1100981" data-name="Grupo 1100981" clip-path="url(#clip-path-2)">
          <rect id="Rectángulo_401889" data-name="Rectángulo 401889" width="14.861" height="84.921" transform="translate(204.159 82.392) rotate(-39.727)" fill="#543867"/>
        </g>
      </g>
      <g id="Grupo_1100984" data-name="Grupo 1100984" transform="translate(258.436 138.206)">
        <g id="Grupo_1100983" data-name="Grupo 1100983" clip-path="url(#clip-path-34)">
          <rect id="Rectángulo_401891" data-name="Rectángulo 401891" width="16.976" height="16.356" transform="translate(0 0)" fill="url(#linear-gradient-16)"/>
        </g>
      </g>
      <g id="Grupo_1100986" data-name="Grupo 1100986">
        <g id="Grupo_1100985" data-name="Grupo 1100985" clip-path="url(#clip-path-2)">
          <rect id="Rectángulo_401892" data-name="Rectángulo 401892" width="14.862" height="4.246" transform="translate(255.721 144.439) rotate(-39.727)" fill="#6a9ad1"/>
          <path id="Trazado_874102" data-name="Trazado 874102" d="M286.87,97.026l-11.242,9.516L272.49,96.1l4.715-3.918Z" transform="translate(-71.372 -24.144)" fill="#eec8c7"/>
          <path id="Trazado_874103" data-name="Trazado 874103" d="M292.28,98.868l-.306-.153.1-.085Z" transform="translate(-76.475 -25.834)" fill="#543867"/>
        </g>
      </g>
      <g id="Grupo_1100988" data-name="Grupo 1100988" transform="translate(198.903 64.563)">
        <g id="Grupo_1100987" data-name="Grupo 1100987" clip-path="url(#clip-path-36)">
          <rect id="Rectángulo_401894" data-name="Rectángulo 401894" width="6.931" height="7.392" transform="translate(0 0)" fill="url(#linear-gradient-17)"/>
        </g>
      </g>
      <g id="Grupo_1100990" data-name="Grupo 1100990" transform="translate(234.575 68.234)">
        <g id="Grupo_1100989" data-name="Grupo 1100989" clip-path="url(#clip-path-37)">
          <rect id="Rectángulo_401895" data-name="Rectángulo 401895" width="51.59" height="51.444" transform="translate(-20.563 21.02) rotate(-45.63)" fill="url(#linear-gradient-18)"/>
        </g>
      </g>
      <g id="Grupo_1100992" data-name="Grupo 1100992">
        <g id="Grupo_1100991" data-name="Grupo 1100991" clip-path="url(#clip-path-2)">
          <path id="Trazado_874106" data-name="Trazado 874106" d="M316.285,144.142l3.47,2.983s-.984,5.493-4.094,7.421a2.462,2.462,0,0,1-3.453-3.183A9.58,9.58,0,0,1,314.1,148.8l1.08-1.27-1.549.292a1.114,1.114,0,0,1-.988-1.965,13.82,13.82,0,0,1,3.645-1.711" transform="translate(-81.71 -37.754)" fill="#eec8c7"/>
        </g>
      </g>
      <g id="Grupo_1100994" data-name="Grupo 1100994" transform="translate(243.222 48.686)">
        <g id="Grupo_1100993" data-name="Grupo 1100993" clip-path="url(#clip-path-39)">
          <rect id="Rectángulo_401897" data-name="Rectángulo 401897" width="20.783" height="16.417" transform="translate(-0.129 0)" fill="#123e3a"/>
        </g>
      </g>
    </g>
  </g>
</svg>
