<svg xmlns="http://www.w3.org/2000/svg" xmlns:xlink="http://www.w3.org/1999/xlink" width="1600" height="220" viewBox="0 0 1600 220">
  <defs>
    <clipPath id="clip-path">
      <path id="Recurso_1" data-name="Recurso 1" d="M0,0H1600V220H0Z" transform="translate(-10850 -12253)" fill="#3ae3fe"/>
    </clipPath>
    <clipPath id="clip-path-2">
      <rect id="Rectángulo_377901" data-name="Rectángulo 377901" width="1600" height="629.787" rx="20" transform="translate(1600 629.787) rotate(180)" fill="#d4fefa"/>
    </clipPath>
    <clipPath id="clip-path-3">
      <rect id="Rectángulo_401082" data-name="Rectángulo 401082" width="1769.754" height="896.635" fill="#d4fefa"/>
    </clipPath>
    <clipPath id="clip-path-5">
      <rect id="Rectángulo_401123" data-name="Rectángulo 401123" width="560.916" height="560.916" fill="#6cdfd4"/>
    </clipPath>
    <clipPath id="clip-path-6">
      <rect id="Rectángulo_401124" data-name="Rectángulo 401124" width="189.865" height="189.867" fill="#6cdfd4"/>
    </clipPath>
    <clipPath id="clip-path-7">
      <rect id="Rectángulo_401124-2" data-name="Rectángulo 401124" width="232.673" height="232.675" fill="#6cdfd4"/>
    </clipPath>
    <clipPath id="clip-path-8">
      <rect id="Rectángulo_401127" data-name="Rectángulo 401127" width="54.418" height="113.95" fill="#231291"/>
    </clipPath>
  </defs>
  <g id="imgbanner" transform="translate(10850 12253)" clip-path="url(#clip-path)">
    <g id="Grupo_1072706" data-name="Grupo 1072706" transform="translate(-10053.996 -11900.474)">
      <line id="Línea_2900" data-name="Línea 2900" x1="81.724" transform="translate(81.724 14.213) rotate(180)" fill="none" stroke="#fff" stroke-linecap="round" stroke-linejoin="round" stroke-width="3"/>
      <line id="Línea_2902" data-name="Línea 2902" x2="78.169" transform="translate(117.256 0) rotate(180)" fill="none" stroke="#fff" stroke-linecap="round" stroke-linejoin="round" stroke-width="3"/>
      <line id="Línea_2901" data-name="Línea 2901" x2="3.552" transform="translate(26.649 0) rotate(180)" fill="none" stroke="#fff" stroke-linecap="round" stroke-linejoin="round" stroke-width="3"/>
    </g>
    <g id="Grupo_1099312" data-name="Grupo 1099312" transform="translate(-9282.571 -11812.713) rotate(180)">
      <g id="Grupo_1073825" data-name="Grupo 1073825" transform="translate(-33 3)" clip-path="url(#clip-path-2)">
        <rect id="Rectángulo_378306" data-name="Rectángulo 378306" width="1684.246" height="665.476" transform="translate(1687.507 634.326) rotate(180)" fill="none"/>
        <g id="Grupo_1099304" data-name="Grupo 1099304" transform="translate(1685.255 709.22) rotate(180)">
          <g id="Grupo_1099301" data-name="Grupo 1099301" clip-path="url(#clip-path-3)">
            <rect id="Rectángulo_401077" data-name="Rectángulo 401077" width="1640.767" height="733.534" transform="translate(42.128 38.804)" fill="#d4fefa"/>
            <g id="Grupo_1099300" data-name="Grupo 1099300">
              <g id="Grupo_1099299" data-name="Grupo 1099299" clip-path="url(#clip-path-3)">
                <g id="Grupo_1099307" data-name="Grupo 1099307" transform="translate(977.293 20.598)">
                  <path id="Trazado_873388" data-name="Trazado 873388" d="M65.011,24.571C-40.708,79.856-4.742,158.391,82.063,245.71s241.81,40.3,276.429,112.64-54.062,283.4,146.445,348.5,0-682.283,0-682.283S170.729-30.714,65.011,24.571Z" transform="translate(253.684)" fill="#d4fefa"/>
                  <path id="Trazado_873389" data-name="Trazado 873389" d="M727.918,584.486c-47.295,0-74.766-74.912-74.766-118.788s9.28-80.972,9.28-130.914-19.262-122.36-113.437-122.36c-24.971,0-54.222,11.06-99.169,11.06S359.931,193.162,366,114.684,326.4,18.73,285.018,18.73,102.26,126.575,0,0H727.918Z" transform="translate(0 48.65)" fill="#d4fefa"/>
                  <path id="Trazado_873390" data-name="Trazado 873390" d="M659.006,471.049c0-21.534,2.16-41.06,4.444-61.739,2.377-21.481,4.83-43.694,4.83-69.175,0-35.182-10.527-117.008-108.08-117.008-10.181,0-21.323,1.967-34.3,4.251-18.115,3.191-38.648,6.809-64.871,6.809-25.972,0-49.046-9.473-64.971-26.686-18.712-20.211-27.078-50.6-24.2-87.875,2.4-31.083-3.419-54.444-17.3-69.432-12.752-13.776-32.377-20.761-58.343-20.761-8.835,0-24.543,6.189-42.734,13.355C221.909,55.228,178.66,72.26,133.671,72.26,83.712,72.26,41.107,50.884,7.043,8.718L0,0H744.475V595.189h-5.351c-52.6,0-80.117-80.814-80.117-124.14M742.871,1.6H3.361L8.29,7.7C42.038,49.473,84.222,70.656,133.671,70.656c44.684,0,87.77-16.973,119.233-29.368,18.343-7.219,34.181-13.46,43.32-13.46,26.429,0,46.458,7.155,59.52,21.276,14.2,15.328,20.158,39.1,17.723,70.644-2.846,36.821,5.375,66.792,23.771,86.663,15.621,16.879,38.279,26.171,63.794,26.171,26.083,0,46.546-3.607,64.661-6.8,12.98-2.289,24.192-4.262,34.508-4.262,99,0,109.684,82.951,109.684,118.613,0,25.568-2.459,47.822-4.836,69.356-2.283,20.627-4.438,40.117-4.438,61.558,0,42.764,26.967,122.535,78.513,122.535h3.747Z" transform="translate(14.204 25.974)" fill="#d4fefa"/>
                  <path id="Trazado_873391" data-name="Trazado 873391" d="M659.006,471.049c0-21.511,2.149-41.031,4.444-61.739,2.371-21.458,4.824-43.654,4.824-69.18,0-35.176-10.527-117-108.08-117-10.2,0-21.364,1.973-34.309,4.251-18.115,3.191-38.648,6.809-64.86,6.809-25.966,0-49.04-9.479-64.965-26.686-18.712-20.211-27.079-50.6-24.2-87.881,2.406-31.077-3.408-54.438-17.289-69.432-12.752-13.771-32.383-20.755-58.343-20.755-8.835,0-24.538,6.183-42.734,13.355C221.9,55.228,178.66,72.26,133.665,72.26,83.712,72.26,41.107,50.884,7.043,8.718L0,0H744.469V595.189h-5.351c-52.6,0-80.112-80.82-80.112-124.14M742.871,1.6H3.361L8.29,7.7C42.032,49.479,84.216,70.656,133.665,70.656c44.69,0,87.775-16.973,119.257-29.374,18.331-7.219,34.163-13.454,43.3-13.454,26.423,0,46.452,7.155,59.52,21.271,14.2,15.334,20.158,39.1,17.717,70.65-2.846,36.821,5.375,66.786,23.771,86.663,15.621,16.879,38.284,26.171,63.794,26.171,26.071,0,46.528-3.6,64.6-6.786,13-2.289,24.227-4.274,34.573-4.274,99,0,109.69,82.945,109.69,118.607,0,25.615-2.465,47.851-4.848,69.4-2.272,20.621-4.432,40.1-4.432,61.522,0,42.764,26.973,122.535,78.513,122.535h3.753Z" transform="translate(29.421 10.974)" fill="#d4fefa"/>
                </g>
                <path id="Trazado_873392" data-name="Trazado 873392" d="M483.819,561.867c0-36.508-49.371-81.2-83.234-81.2s-62.5,7.157-101.057,7.157-94.438-14.871-94.438-87.563c0-19.273,8.535-41.853,8.535-76.543s-23.406-69.392-83.981-64.708-74.069-30.563-74.069-62.5S97.7,78.936,0,0V561.867Z" transform="translate(-9.456 159.904)" fill="#d4fefa"/>
                <path id="Trazado_873393" data-name="Trazado 873393" d="M0,0,6.478,5.229C87.685,70.836,74.553,140.614,66.71,182.307c-1.708,9.067-3.184,16.9-3.184,22.518,0,39.116,20.051,58.947,59.583,58.947,3.275,0,6.7-.141,10.2-.4,3.759-.294,7.475-.441,11.033-.441,25.188,0,45.673,7.457,59.228,21.575,11.614,12.08,18.006,28.959,18.006,47.535,0,20.216-2.792,36.055-5.259,50.063-1.757,9.98-3.275,18.6-3.275,26.48,0,75.441,63.263,83.583,90.465,83.583,19.708,0,36.845-1.892,53.5-3.735,15.931-1.763,30.973-3.422,47.553-3.422,17,0,38.865,10.733,57.055,28,18.882,17.926,30.159,39.3,30.159,57.177v3.979H0ZM490.841,570.188c0-17.627-11.167-38.749-29.865-56.5-18.031-17.112-39.649-27.747-56.418-27.747-16.524,0-31.549,1.659-47.535,3.422-16.592,1.837-33.753,3.735-53.516,3.735-27.484,0-91.4-8.235-91.4-84.514,0-7.959,1.524-16.616,3.294-26.675,2.461-13.935,5.241-29.731,5.241-49.867,0-18.331-6.3-34.984-17.743-46.892-13.384-13.929-33.63-21.288-58.561-21.288-3.533,0-7.224.147-10.959.435-3.52.269-6.973.41-10.273.41C82.959,264.7,62.6,244.56,62.6,204.826c0-5.706,1.476-13.58,3.2-22.7C73.6,140.644,86.669,71.21,5.89,5.951L.931,1.941v571.3h489.91Z" transform="translate(-30.315 175.816)" fill="#d4fefa"/>
                <path id="Trazado_873394" data-name="Trazado 873394" d="M0,0,6.478,5.229C87.692,70.843,74.553,140.614,66.7,182.3c-1.7,9.067-3.178,16.9-3.178,22.524,0,39.116,20.045,58.947,59.583,58.947,3.257,0,6.686-.135,10.2-.4,3.765-.294,7.482-.441,11.033-.441,25.188,0,45.667,7.457,59.228,21.575,11.614,12.08,18.006,28.965,18.006,47.535,0,20.247-2.8,36.079-5.265,50.069-1.757,9.98-3.275,18.6-3.275,26.473,0,75.441,63.269,83.59,90.471,83.59,19.665,0,36.814-1.9,53.412-3.735,15.955-1.763,31.022-3.429,47.639-3.429,17,0,38.859,10.733,57.055,28,18.882,17.933,30.159,39.306,30.159,57.177v3.98H0ZM490.841,570.188c0-17.62-11.167-38.743-29.865-56.5-18.031-17.112-39.649-27.747-56.418-27.747-16.567,0-31.61,1.665-47.553,3.429-16.6,1.831-33.777,3.729-53.5,3.729-27.484,0-91.4-8.235-91.4-84.514,0-7.953,1.524-16.61,3.294-26.657,2.461-13.929,5.247-29.724,5.247-49.886,0-18.331-6.3-34.984-17.743-46.892-13.384-13.929-33.63-21.288-58.561-21.288-3.527,0-7.218.147-10.959.435-3.539.269-6.992.41-10.273.41C82.959,264.7,62.6,244.56,62.6,204.826c0-5.712,1.482-13.586,3.2-22.7C73.6,140.644,86.675,71.216,5.89,5.951L.931,1.941l-.006,571.3H490.841Z" transform="translate(-43.35 183.671)" fill="#d4fefa"/>
              </g>
            </g>
          </g>
        </g>
        <g id="Grupo_1099476" data-name="Grupo 1099476" transform="translate(1092.247 933.935) rotate(180)">
          <path id="Trazado_873478" data-name="Trazado 873478" d="M157.8,484.651a3.622,3.622,0,0,1,0-5.122l16.663-16.664a3.623,3.623,0,1,1,5.123,5.123l-16.663,16.663a3.623,3.623,0,0,1-5.123,0" transform="translate(878.415 60.543)" fill="#cbc4f8"/>
          <path id="Trazado_873479" data-name="Trazado 873479" d="M174.466,484.651,157.8,467.988a3.623,3.623,0,1,1,5.123-5.123l16.663,16.664a3.622,3.622,0,1,1-5.122,5.122" transform="translate(878.415 60.543)" fill="#cbc4f8"/>
        </g>
        <g id="Grupo_1099496" data-name="Grupo 1099496" transform="translate(2042.247 837.24) rotate(180)">
          <path id="Trazado_873478-2" data-name="Trazado 873478" d="M157.8,484.651a3.622,3.622,0,0,1,0-5.122l16.663-16.664a3.623,3.623,0,1,1,5.123,5.123l-16.663,16.663a3.623,3.623,0,0,1-5.123,0" transform="translate(878.415 60.543)" fill="#cbc4f8"/>
          <path id="Trazado_873479-2" data-name="Trazado 873479" d="M174.466,484.651,157.8,467.988a3.623,3.623,0,1,1,5.123-5.123l16.663,16.664a3.622,3.622,0,1,1-5.122,5.122" transform="translate(878.415 60.543)" fill="#cbc4f8"/>
        </g>
      </g>
      <g id="Grupo_1099471" data-name="Grupo 1099471" transform="translate(496.929 427.695) rotate(180)" opacity="0.21">
        <g id="Grupo_1099469" data-name="Grupo 1099469" clip-path="url(#clip-path-5)">
          <path id="Trazado_873497" data-name="Trazado 873497" d="M280.459,560.916A280.519,280.519,0,0,1,171.277,22.059a280.518,280.518,0,0,1,218.364,516.8,278.755,278.755,0,0,1-109.183,22.06m0-463.517C179.52,97.4,97.4,179.519,97.4,280.458s82.12,183.058,183.058,183.058S463.517,381.4,463.517,280.458,381.4,97.4,280.459,97.4" transform="translate(0 0)" fill="#6cdfd4"/>
        </g>
      </g>
      <circle id="Elipse_11516" data-name="Elipse 11516" cx="131.5" cy="131.5" r="131.5" transform="translate(1588.429 427.695) rotate(180)" fill="#c0f9df"/>
      <g id="Grupo_1099473" data-name="Grupo 1099473" transform="translate(1431.794 405.546) rotate(180)">
        <g id="Grupo_1099472" data-name="Grupo 1099472" transform="translate(73 35)" clip-path="url(#clip-path-6)">
          <path id="Trazado_873498" data-name="Trazado 873498" d="M23.156,156.677q1.178.951,2.38,1.856l133-133q-.907-1.2-1.856-2.38Z" transform="translate(12.218 12.218)" fill="#6cdfd4"/>
          <path id="Trazado_873499" data-name="Trazado 873499" d="M44.424,162.53c1.1.327,2.212.626,3.323.912l115.7-115.694c-.287-1.111-.587-2.22-.914-3.323Z" transform="translate(23.441 23.441)" fill="#6cdfd4"/>
          <path id="Trazado_873500" data-name="Trazado 873500" d="M29.485,160.192q1.318.813,2.657,1.58l129.63-129.63q-.768-1.338-1.58-2.657Z" transform="translate(15.558 15.558)" fill="#6cdfd4"/>
          <path id="Trazado_873501" data-name="Trazado 873501" d="M36.544,162.2q1.471.665,2.958,1.279L163.48,39.5q-.612-1.487-1.279-2.958Z" transform="translate(19.283 19.283)" fill="#6cdfd4"/>
          <path id="Trazado_873502" data-name="Trazado 873502" d="M53.3,160.8q1.884.268,3.776.46L161.264,57.078c-.13-1.26-.28-2.521-.46-3.776Z" transform="translate(28.125 28.125)" fill="#6cdfd4"/>
          <path id="Trazado_873503" data-name="Trazado 873503" d="M18.551,152.841c.354.354.715.7,1.072,1.046L153.888,19.623c-.348-.359-.692-.718-1.046-1.072s-.713-.7-1.072-1.045L17.506,151.769c.347.359.691.718,1.045,1.072" transform="translate(9.237 9.237)" fill="#6cdfd4"/>
          <path id="Trazado_873504" data-name="Trazado 873504" d="M63.5,156.358q2.22-.048,4.438-.2L156.157,67.94q.151-2.216.2-4.436Z" transform="translate(33.508 33.509)" fill="#6cdfd4"/>
          <path id="Trazado_873505" data-name="Trazado 873505" d="M147.563,75.821,75.82,147.564q2.871-.644,5.7-1.468L146.1,81.525q.825-2.832,1.468-5.7" transform="translate(40.007 40.008)" fill="#6cdfd4"/>
          <path id="Trazado_873506" data-name="Trazado 873506" d="M.2,88.418Q.05,90.634,0,92.856L92.854,0q-2.22.048-4.438.2Z" transform="translate(0 0)" fill="#6cdfd4"/>
          <path id="Trazado_873507" data-name="Trazado 873507" d="M.313,104.5c.13,1.262.28,2.521.458,3.778L108.276.771Q106.39.5,104.5.313Z" transform="translate(0.165 0.165)" fill="#6cdfd4"/>
          <path id="Trazado_873508" data-name="Trazado 873508" d="M93.715,127.308a95.7,95.7,0,0,0,33.592-33.593Z" transform="translate(49.45 49.45)" fill="#6cdfd4"/>
          <path id="Trazado_873509" data-name="Trazado 873509" d="M2.97,67.542q-.823,2.832-1.468,5.7L73.245,1.5q-2.869.644-5.7,1.468Z" transform="translate(0.793 0.793)" fill="#6cdfd4"/>
          <path id="Trazado_873510" data-name="Trazado 873510" d="M42.174,8.582A95.649,95.649,0,0,0,8.581,42.175Z" transform="translate(4.528 4.528)" fill="#6cdfd4"/>
          <path id="Trazado_873511" data-name="Trazado 873511" d="M8.207,137.838q.768,1.338,1.58,2.657L140.493,9.788q-1.318-.813-2.657-1.58Z" transform="translate(4.331 4.331)" fill="#6cdfd4"/>
          <path id="Trazado_873512" data-name="Trazado 873512" d="M12.512,145.51q.907,1.2,1.856,2.38L147.889,14.369q-1.178-.951-2.38-1.856Z" transform="translate(6.602 6.603)" fill="#6cdfd4"/>
          <path id="Trazado_873513" data-name="Trazado 873513" d="M1.953,117.648c.286,1.112.587,2.221.914,3.324l118.1-118.1c-1.1-.328-2.212-.628-3.324-.914Z" transform="translate(1.031 1.031)" fill="#6cdfd4"/>
          <path id="Trazado_873514" data-name="Trazado 873514" d="M4.649,128.628q.612,1.487,1.279,2.958L131.585,5.928q-1.471-.665-2.958-1.279Z" transform="translate(2.453 2.453)" fill="#6cdfd4"/>
        </g>
      </g>
      <g id="Grupo_1099495" data-name="Grupo 1099495" transform="translate(641.794 557.287) rotate(180)">
        <g id="Grupo_1099472-2" data-name="Grupo 1099472" transform="translate(73 35)" clip-path="url(#clip-path-7)">
          <path id="Trazado_873498-2" data-name="Trazado 873498" d="M23.156,186.781q1.443,1.165,2.917,2.275L189.055,26.073q-1.112-1.471-2.275-2.917Z" transform="translate(20.194 20.194)" fill="#6cdfd4"/>
          <path id="Trazado_873499-2" data-name="Trazado 873499" d="M44.424,189.158c1.352.4,2.711.768,4.072,1.118L190.277,48.5c-.352-1.361-.719-2.72-1.12-4.072Z" transform="translate(38.742 38.743)" fill="#6cdfd4"/>
          <path id="Trazado_873500-2" data-name="Trazado 873500" d="M29.485,189.661q1.615,1,3.256,1.936L191.6,32.741q-.941-1.64-1.936-3.256Z" transform="translate(25.714 25.714)" fill="#6cdfd4"/>
          <path id="Trazado_873501-2" data-name="Trazado 873501" d="M36.544,190.534q1.8.814,3.624,1.567L192.1,40.169q-.75-1.822-1.567-3.624Z" transform="translate(31.87 31.871)" fill="#6cdfd4"/>
          <path id="Trazado_873502-2" data-name="Trazado 873502" d="M53.3,185.043q2.308.329,4.628.564L185.605,57.93c-.159-1.544-.343-3.089-.563-4.628Z" transform="translate(46.483 46.484)" fill="#6cdfd4"/>
          <path id="Trazado_873503-2" data-name="Trazado 873503" d="M18.787,183.355c.434.434.876.856,1.314,1.282L184.637,20.1c-.427-.44-.848-.88-1.282-1.314s-.874-.856-1.314-1.281L17.506,182.04c.425.44.846.88,1.281,1.314" transform="translate(15.267 15.267)" fill="#6cdfd4"/>
          <path id="Trazado_873504-2" data-name="Trazado 873504" d="M63.5,177.293q2.721-.059,5.438-.247L177.047,68.941q.185-2.715.245-5.437Z" transform="translate(55.38 55.381)" fill="#6cdfd4"/>
          <path id="Trazado_873505-2" data-name="Trazado 873505" d="M163.739,75.821,75.82,163.74q3.519-.789,6.99-1.8l79.13-79.13q1.011-3.471,1.8-6.99" transform="translate(66.122 66.123)" fill="#6cdfd4"/>
          <path id="Trazado_873506-2" data-name="Trazado 873506" d="M.247,108.353Q.062,111.068,0,113.791L113.789,0q-2.721.059-5.438.247Z" transform="translate(0 0)" fill="#6cdfd4"/>
          <path id="Trazado_873507-2" data-name="Trazado 873507" d="M.313,127.988c.159,1.546.343,3.089.562,4.63L132.617.875q-2.311-.329-4.63-.562Z" transform="translate(0.273 0.273)" fill="#6cdfd4"/>
          <path id="Trazado_873508-2" data-name="Trazado 873508" d="M93.715,134.882A117.272,117.272,0,0,0,134.88,93.715Z" transform="translate(81.728 81.728)" fill="#6cdfd4"/>
          <path id="Trazado_873509-2" data-name="Trazado 873509" d="M3.3,82.432Q2.293,85.9,1.5,89.422L89.421,1.5q-3.516.789-6.99,1.8Z" transform="translate(1.31 1.311)" fill="#6cdfd4"/>
          <path id="Trazado_873510-2" data-name="Trazado 873510" d="M49.748,8.582A117.215,117.215,0,0,0,8.581,49.749Z" transform="translate(7.483 7.484)" fill="#6cdfd4"/>
          <path id="Trazado_873511-2" data-name="Trazado 873511" d="M8.207,167.064q.941,1.64,1.936,3.256L170.319,10.144q-1.615-1-3.256-1.936Z" transform="translate(7.157 7.158)" fill="#6cdfd4"/>
          <path id="Trazado_873512-2" data-name="Trazado 873512" d="M12.512,175.5q1.112,1.471,2.275,2.917L178.411,14.788q-1.443-1.165-2.917-2.275Z" transform="translate(10.912 10.912)" fill="#6cdfd4"/>
          <path id="Trazado_873513-2" data-name="Trazado 873513" d="M1.953,143.733c.35,1.363.719,2.722,1.12,4.074L147.806,3.074c-1.352-.4-2.711-.769-4.074-1.12Z" transform="translate(1.703 1.704)" fill="#6cdfd4"/>
          <path id="Trazado_873514-2" data-name="Trazado 873514" d="M4.649,156.58Q5.4,158.4,6.216,160.2L160.2,6.216q-1.8-.814-3.624-1.567Z" transform="translate(4.054 4.054)" fill="#6cdfd4"/>
        </g>
      </g>
      <g id="Grupo_1099482" data-name="Grupo 1099482" transform="translate(1238.187 447.521) rotate(-90)">
        <g id="Grupo_1099482-2" data-name="Grupo 1099482" clip-path="url(#clip-path-8)">
          <path id="Trazado_873519" data-name="Trazado 873519" d="M3.918,64.1A1.959,1.959,0,1,1,1.959,62.14,1.96,1.96,0,0,1,3.918,64.1" fill="#231291"/>
          <path id="Trazado_873520" data-name="Trazado 873520" d="M20.751,64.1a1.958,1.958,0,1,1-1.959-1.959A1.959,1.959,0,0,1,20.751,64.1" fill="#231291"/>
          <path id="Trazado_873521" data-name="Trazado 873521" d="M37.584,64.1a1.958,1.958,0,1,1-1.959-1.959A1.959,1.959,0,0,1,37.584,64.1" fill="#231291"/>
          <path id="Trazado_873522" data-name="Trazado 873522" d="M54.418,64.1a1.959,1.959,0,1,1-1.959-1.959A1.959,1.959,0,0,1,54.418,64.1" fill="#231291"/>
          <path id="Trazado_873523" data-name="Trazado 873523" d="M3.918,80.063A1.959,1.959,0,1,1,1.959,78.1a1.96,1.96,0,0,1,1.959,1.959" fill="#231291"/>
          <path id="Trazado_873524" data-name="Trazado 873524" d="M20.751,80.063A1.958,1.958,0,1,1,18.792,78.1a1.959,1.959,0,0,1,1.959,1.959" fill="#231291"/>
          <path id="Trazado_873525" data-name="Trazado 873525" d="M37.584,80.063A1.958,1.958,0,1,1,35.625,78.1a1.959,1.959,0,0,1,1.959,1.959" fill="#231291"/>
          <path id="Trazado_873526" data-name="Trazado 873526" d="M54.418,80.063A1.959,1.959,0,1,1,52.459,78.1a1.959,1.959,0,0,1,1.959,1.959" fill="#231291"/>
          <path id="Trazado_873527" data-name="Trazado 873527" d="M3.918,96.027a1.959,1.959,0,1,1-1.959-1.959,1.96,1.96,0,0,1,1.959,1.959" fill="#231291"/>
          <path id="Trazado_873528" data-name="Trazado 873528" d="M20.751,96.027a1.958,1.958,0,1,1-1.959-1.959,1.959,1.959,0,0,1,1.959,1.959" fill="#231291"/>
          <path id="Trazado_873529" data-name="Trazado 873529" d="M37.584,96.027a1.958,1.958,0,1,1-1.959-1.959,1.959,1.959,0,0,1,1.959,1.959" fill="#231291"/>
          <path id="Trazado_873530" data-name="Trazado 873530" d="M54.418,96.027a1.959,1.959,0,1,1-1.959-1.959,1.959,1.959,0,0,1,1.959,1.959" fill="#231291"/>
          <path id="Trazado_873531" data-name="Trazado 873531" d="M3.918,111.991a1.959,1.959,0,1,1-1.959-1.959,1.96,1.96,0,0,1,1.959,1.959" fill="#231291"/>
          <path id="Trazado_873532" data-name="Trazado 873532" d="M20.751,111.991a1.958,1.958,0,1,1-1.959-1.959,1.959,1.959,0,0,1,1.959,1.959" fill="#231291"/>
          <path id="Trazado_873533" data-name="Trazado 873533" d="M37.584,111.991a1.958,1.958,0,1,1-1.959-1.959,1.959,1.959,0,0,1,1.959,1.959" fill="#231291"/>
          <path id="Trazado_873534" data-name="Trazado 873534" d="M54.418,111.991a1.959,1.959,0,1,1-1.959-1.959,1.959,1.959,0,0,1,1.959,1.959" fill="#231291"/>
          <path id="Trazado_873535" data-name="Trazado 873535" d="M3.918,1.959A1.959,1.959,0,1,1,1.959,0,1.96,1.96,0,0,1,3.918,1.959" fill="#231291"/>
          <path id="Trazado_873536" data-name="Trazado 873536" d="M20.751,1.959A1.958,1.958,0,1,1,18.792,0a1.959,1.959,0,0,1,1.959,1.959" fill="#231291"/>
          <path id="Trazado_873537" data-name="Trazado 873537" d="M37.584,1.959A1.958,1.958,0,1,1,35.625,0a1.959,1.959,0,0,1,1.959,1.959" fill="#231291"/>
          <path id="Trazado_873538" data-name="Trazado 873538" d="M54.418,1.959A1.959,1.959,0,1,1,52.459,0a1.959,1.959,0,0,1,1.959,1.959" fill="#231291"/>
          <path id="Trazado_873539" data-name="Trazado 873539" d="M3.918,17.923a1.959,1.959,0,1,1-1.959-1.959,1.96,1.96,0,0,1,1.959,1.959" fill="#231291"/>
          <path id="Trazado_873540" data-name="Trazado 873540" d="M20.751,17.923a1.958,1.958,0,1,1-1.959-1.959,1.959,1.959,0,0,1,1.959,1.959" fill="#231291"/>
          <path id="Trazado_873541" data-name="Trazado 873541" d="M37.584,17.923a1.958,1.958,0,1,1-1.959-1.959,1.959,1.959,0,0,1,1.959,1.959" fill="#231291"/>
          <path id="Trazado_873542" data-name="Trazado 873542" d="M54.418,17.923a1.959,1.959,0,1,1-1.959-1.959,1.959,1.959,0,0,1,1.959,1.959" fill="#231291"/>
          <path id="Trazado_873543" data-name="Trazado 873543" d="M3.918,33.887a1.959,1.959,0,1,1-1.959-1.959,1.96,1.96,0,0,1,1.959,1.959" fill="#231291"/>
          <path id="Trazado_873544" data-name="Trazado 873544" d="M20.751,33.887a1.958,1.958,0,1,1-1.959-1.959,1.959,1.959,0,0,1,1.959,1.959" fill="#231291"/>
          <path id="Trazado_873545" data-name="Trazado 873545" d="M37.584,33.887a1.958,1.958,0,1,1-1.959-1.959,1.959,1.959,0,0,1,1.959,1.959" fill="#231291"/>
          <path id="Trazado_873546" data-name="Trazado 873546" d="M54.418,33.887a1.959,1.959,0,1,1-1.959-1.959,1.959,1.959,0,0,1,1.959,1.959" fill="#231291"/>
          <path id="Trazado_873547" data-name="Trazado 873547" d="M3.918,49.851a1.959,1.959,0,1,1-1.959-1.959,1.96,1.96,0,0,1,1.959,1.959" fill="#231291"/>
          <path id="Trazado_873548" data-name="Trazado 873548" d="M20.751,49.851a1.958,1.958,0,1,1-1.959-1.959,1.959,1.959,0,0,1,1.959,1.959" fill="#231291"/>
          <path id="Trazado_873549" data-name="Trazado 873549" d="M37.584,49.851a1.958,1.958,0,1,1-1.959-1.959,1.959,1.959,0,0,1,1.959,1.959" fill="#231291"/>
          <path id="Trazado_873550" data-name="Trazado 873550" d="M54.418,49.851a1.959,1.959,0,1,1-1.959-1.959,1.959,1.959,0,0,1,1.959,1.959" fill="#231291"/>
        </g>
      </g>
    </g>
    <line id="Línea_3209" data-name="Línea 3209" y1="93.923" x2="93.923" transform="translate(-10475.298 -12135)" fill="none" stroke="#99eca7" stroke-linecap="round" stroke-miterlimit="10" stroke-width="34.595"/>
    <line id="Línea_3210" data-name="Línea 3210" y1="93.923" x2="93.923" transform="translate(-10342.298 -12197)" fill="none" stroke="#6cdfd4" stroke-linecap="round" stroke-miterlimit="10" stroke-width="34.595"/>
  </g>
</svg>
